<svg xmlns="http://www.w3.org/2000/svg" xmlns:xlink="http://www.w3.org/1999/xlink" viewBox="0 0 900 350"><defs><style>.cls-1,.cls-2,.cls-39{fill:#ececeb;}.cls-2{clip-rule:evenodd;}.cls-3{fill:#cfcfcd;}.cls-37,.cls-4{fill:#a3a3a3;}.cls-5{fill:#dddddc;}.cls-25,.cls-49,.cls-6{fill:#474748;}.cls-6{opacity:0.2;}.cls-33,.cls-7{fill:#2b2b2b;}.cls-7{opacity:0.1;}.cls-8{fill:#a0cf7f;}.cls-9{fill:#6f9d52;}.cls-10,.cls-32{fill:#3f8f6f;}.cls-11,.cls-31{fill:#54b08b;}.cls-12{clip-path:url(#clip-path);}.cls-13,.cls-36{fill:#74c7a5;}.cls-14,.cls-29{fill:#8f8f8f;}.cls-15{fill:#738d57;}.cls-16,.cls-23{fill:#99c26c;}.cls-17,.cls-24,.cls-35,.cls-41{fill:#fff;}.cls-17{opacity:0.3;}.cls-18{fill:#bf9c83;}.cls-18,.cls-19,.cls-20,.cls-21,.cls-22,.cls-23,.cls-24,.cls-25,.cls-26,.cls-27,.cls-28,.cls-29,.cls-30,.cls-31,.cls-32,.cls-36,.cls-37,.cls-38,.cls-39,.cls-41,.cls-55,.cls-56,.cls-57,.cls-58{fill-rule:evenodd;}.cls-19{fill:#a77e62;}.cls-20,.cls-51{fill:#6f7273;}.cls-21{fill:#4f5353;}.cls-22{fill:#858686;}.cls-26,.cls-46{fill:#35785e;}.cls-27{fill:#c9ad9c;}.cls-28{fill:#737474;}.cls-30,.cls-34{fill:#835941;}.cls-38,.cls-53{fill:#c4c4c4;}.cls-40{clip-path:url(#clip-path-2);}.cls-41{opacity:0.5;}.cls-42,.cls-56{fill:#c2987a;}.cls-43,.cls-55{fill:#8b6651;}.cls-44{fill:#5a753d;}.cls-45,.cls-57{fill:#dfbda5;}.cls-47,.cls-58{fill:#e9cbb7;}.cls-48{fill:#c0db8f;}.cls-50{fill:#44622d;}.cls-52{clip-path:url(#clip-path-3);}.cls-54{fill:#9ca0a1;}</style><clipPath id="clip-path"><polygon class="cls-1" points="381.13 111.79 380.47 152.63 422.97 152.46 423.8 112.79 381.13 111.79"/></clipPath><clipPath id="clip-path-2"><polygon class="cls-2" points="637.04 57.25 605.78 299.47 755.36 313.61 789.59 65.43 637.04 57.25"/></clipPath><clipPath id="clip-path-3"><polygon class="cls-1" points="56.3 95.13 70.3 148.13 146.47 177.63 224.47 151.63 233.55 72.88 179.8 30.63 101.47 23.63 56.3 95.13"/></clipPath></defs><title>diplomats_Campaigner_ENFP_friendships</title><g id="Layer_7" data-name="Layer 7"><polygon class="cls-3" points="858.3 36.63 871.8 0.5 893.55 7.75 900.3 295.63 869.3 300.63 858.3 36.63"/><polygon class="cls-4" points="57.3 54.63 30.3 1.13 9.8 7.13 1.8 277.63 30.91 284.21 57.3 54.63"/><polygon class="cls-5" points="123.8 186.63 501.46 261.14 870.87 300.71 871.8 0.5 501.63 36.63 123.8 186.63"/><polygon class="cls-3" points="30.91 284.21 503.8 260.29 501.63 36.63 30.3 1.13 30.91 284.21"/><polygon class="cls-3" points="31.83 284.21 504.72 260.29 502.55 36.63 31.22 1.13 31.83 284.21"/><polygon class="cls-6" points="7.8 86.63 9.8 7.13 31.22 1.13 502.55 36.63 871.8 0.5 893.55 7.75 895.8 92.63 871.3 47.13 501.88 71.99 30.13 48.96 7.8 86.63"/><polygon class="cls-7" points="823.13 129.29 818.13 161.96 821.8 168.46 862.97 167.79 861.13 132.88 823.13 129.29"/><polygon class="cls-8" points="816.3 128.13 857.05 127.13 856.8 163.38 815.92 163 816.3 128.13"/><polygon class="cls-9" points="821.13 134.29 821.3 158.13 851.97 158.63 850.3 133.13 821.13 134.29"/><polygon class="cls-8" points="827.97 142.29 828.22 151.54 833.88 151.71 833.38 142.04 827.97 142.29"/><polygon class="cls-8" points="838.22 142.29 838.47 151.54 844.13 151.71 843.63 142.04 838.22 142.29"/></g><g id="Layer_10" data-name="Layer 10"><polygon class="cls-7" points="213.47 332.29 292.47 317.96 382.47 333.29 295.13 350.29 213.47 332.29"/><polygon class="cls-7" points="386.8 329.29 482.8 317.96 582.8 329.29 482.8 343.29 386.8 329.29"/><polygon class="cls-7" points="674.13 276.63 772.85 331.65 870.87 300.71 871.3 171.63 772.3 170.63 674.13 276.63"/><polygon class="cls-7" points="170.47 278.96 239.47 295.63 149.8 316.96 53.13 303.63 30.91 284.21 30.84 257.67 46.47 255.46 129.47 256.29 170.47 278.96"/><polygon class="cls-7" points="386.8 121.13 361.8 103.96 353.3 115.13 350.3 169.13 418.8 168.13 429.3 154.63 386.8 121.13"/></g><g id="Layer_12" data-name="Layer 12"><polygon class="cls-10" points="382.3 106.88 370.55 102.13 361.8 103.96 361.13 160.63 369.55 161.13 382.3 106.88"/><polygon class="cls-11" points="370.55 102.13 369.55 161.13 434.55 160.88 434.8 104.13 370.55 102.13"/><polygon class="cls-1" points="381.13 111.79 380.47 152.63 422.97 152.46 423.8 112.79 381.13 111.79"/><g class="cls-12"><polygon class="cls-3" points="395.97 143.29 417.47 131.96 443.13 142.46 423.47 157.29 395.97 143.29"/><polygon class="cls-4" points="361.3 143.96 398.13 132.79 432.13 145.96 426.47 164.46 381.3 161.13 361.3 143.96"/><polygon class="cls-3" points="377.22 122.08 384.63 119.58 391.97 122.83 400.84 122.5 391.17 127.42 385.09 126.54 377.59 128.58 377.22 122.08"/><polygon class="cls-3" points="406.47 118.63 416.13 116.25 420.47 118.88 429.05 119.46 427.67 124.5 421.72 126 415.09 120.83 406.47 118.63"/></g><path class="cls-10" d="M375.42,107.62l.38,47,51,.38,1.12-44.75ZM422,151.46l-41,.16.33-39.16,40.83,1.16Z"/></g><g id="Layer_8" data-name="Layer 8"><polygon class="cls-10" points="426.97 305.13 425.63 284.13 428.3 282.46 471.97 285.29 434.63 304.13 426.97 305.13"/><polygon class="cls-11" points="418.13 291.96 409.33 286.07 428.3 282.46 428.8 294.13 418.13 291.96"/><polygon class="cls-11" points="440.97 308.96 460.3 288.79 471.97 285.29 474.03 327.65 466.3 328.46 461.63 334.46 440.97 308.96"/><polygon class="cls-13" points="409.33 286.07 460.3 288.79 461.63 334.46 410.44 330.35 409.33 286.07"/><polygon class="cls-1" points="421.84 290.33 425.84 305.96 442.59 306.33 447.72 290.58 443.97 290.46 440.84 303.21 428.59 303.83 424.97 289.46 421.84 290.33"/></g><g id="Layer_11" data-name="Layer 11"><polygon class="cls-10" points="209.05 285.13 194.8 299.29 146.55 290.38 209.05 285.13"/><polygon class="cls-11" points="92.97 275.63 112.13 302.63 136.13 302.29 136.63 293.79 192.97 290.79 194.8 299.29 214.13 297.96 218.97 250.29 101.97 253.46 92.97 275.63"/><polygon class="cls-10" points="57.47 242.96 57.13 291.96 112.13 302.63 112.13 261.13 57.47 242.96"/><polygon class="cls-4" points="108.13 238.13 103.97 248.46 112.13 261.13 227.13 257.13 228.3 243.29 108.13 238.13"/><polygon class="cls-14" points="108.8 240.29 46.97 237.46 46.47 255.46 112.13 261.13 112.97 247.96 108.8 240.29"/><polygon class="cls-1" points="46.97 237.46 166.13 234.29 228.3 243.29 112.97 247.96 46.97 237.46"/></g><g id="Layer_13" data-name="Layer 13"><polygon class="cls-7" points="83.97 239.29 108.05 236.38 147.55 241.63 113.97 244.04 83.97 239.29"/><polygon class="cls-15" points="105.8 212.75 98.55 202.96 123.42 202.63 137.55 205.04 105.8 212.75"/><polygon class="cls-16" points="110.38 212.21 113.38 204.79 137.55 205.04 131.8 241.38 112.72 241.96 110.38 212.21"/><polygon class="cls-9" points="98.55 202.96 102.22 239.29 112.72 241.96 113.38 204.79 98.55 202.96"/><polygon class="cls-17" points="99.67 214.06 113.13 217.17 135.64 217 137.55 205.04 113.38 204.79 98.55 202.96 99.67 214.06"/></g><g id="Layer_5" data-name="Layer 5"><polygon class="cls-18" points="583.78 208.17 588.81 215.7 600.32 207.4 596.27 197.15 586.25 201.1 583.78 208.17"/><polygon class="cls-19" points="571.02 209.5 575.69 219.01 588.81 215.7 586.25 201.1 571.02 209.5"/><polygon class="cls-18" points="422.81 241.32 420.25 248.36 404.16 250.68 399.98 241.08 412.9 234.81 422.81 241.32"/><polygon class="cls-19" points="423.12 232.03 412.9 234.81 420.25 248.36 434.42 242.4 433.1 232.34 423.12 232.03"/><polygon class="cls-18" points="563.41 213.61 572.9 204.59 579.88 199.52 586.99 195.75 589.36 198.19 584.06 203.08 582.67 208.59 567.46 215.56 563.41 213.61"/><polygon class="cls-18" points="435.65 231.68 429.05 229.69 419.05 227.85 406.63 230.99 408.14 235.86 417.43 234 424.51 237.72 437.28 234.12 435.65 231.68"/><polygon class="cls-20" points="512.07 281.42 523.41 298.72 537.73 295.25 545.92 287.93 536.84 247.12 508.9 270.82 512.07 281.42"/><polygon class="cls-21" points="523.41 298.72 532.24 315.11 550.54 311.69 548.96 308.04 545.92 287.93 523.41 298.72"/><polygon class="cls-21" points="485.72 247.7 536.84 247.12 517.09 275.84 502.7 267.71 485.72 247.7"/><polygon class="cls-22" points="517.09 275.84 510.58 295.38 500.41 300.75 485.09 295.93 479.32 253.89 480.63 249.42 485.72 247.7 517.09 275.84"/><polygon class="cls-20" points="510.58 295.38 505.53 313.43 501.45 317.56 487.09 316.85 485.09 295.93 510.58 295.38"/><polygon class="cls-23" points="505.53 313.43 511.37 327.06 499.28 328.37 486.77 327.06 487.09 316.85 505.53 313.43"/><polygon class="cls-23" points="548.96 308.04 565.63 323.74 546.28 325.06 532.55 323.74 532.24 315.11 548.96 308.04"/><rect class="cls-15" x="486.77" y="327.06" width="24.6" height="4.29"/><rect class="cls-15" x="532.55" y="323.74" width="33.08" height="4.29"/><polygon class="cls-24" points="481.31 176.03 489.18 249.61 527.97 248.49 519.62 174.65 499.82 171.53 481.31 176.03"/><polygon class="cls-18" points="510.25 81.2 526.3 87.2 534.04 90.69 543.04 155.15 524.6 160.12 498.67 162.73 487.29 118.3 484.85 97.78 502.24 95.67 510.25 81.2"/><polygon class="cls-19" points="514.59 164.7 518.07 163.52 499.49 163.15 490.11 116.31 484.85 97.78 474.55 110.36 477.47 120.13 478.95 125.89 478.49 129.8 479.58 136.44 475.79 133.71 472.72 127.06 469.31 132.3 469.37 136.13 471.31 139.67 474.09 145.82 472.63 145.71 474.39 153.99 481.31 176.03 510.11 185.57 514.59 164.7"/><polygon class="cls-25" points="536.8 109.96 540.45 87.03 529.03 88.88 536.8 109.96"/><polygon class="cls-26" points="540.05 181.32 555.41 206.82 559.5 217.24 548.34 232.87 532.53 218.54 531.76 198.43 540.05 181.32"/><polygon class="cls-19" points="495.6 113.56 509.65 120.86 516.02 133.75 516.82 121.85 513.95 114.83 511.65 111.62 504.81 110.64 495.6 113.56"/><polygon class="cls-19" points="521 109.94 521.03 113.99 520.91 119.02 523.55 125.41 533.27 108.55 527.97 106.59 521 109.94"/><polygon class="cls-27" points="521.03 113.99 526.79 132.51 522.01 135.34 515.97 133.85 513.95 114.83 521.03 113.99"/><polygon class="cls-18" points="477.6 134.31 479.14 138.08 470.49 144.17 464.05 132.01 473 124.36 477.6 134.31"/><polygon class="cls-28" points="521.67 94.75 540.45 87.03 502.86 71.88 496.72 89.99 521.67 94.75"/><polygon class="cls-29" points="521.67 94.75 502.86 71.88 458.08 95.03 470.91 98.95 484.85 97.78 521.67 94.75"/><polygon class="cls-28" points="458.08 95.03 456.07 122.36 466.17 121.05 474.55 110.36 484.85 97.78 458.08 95.03"/><polygon class="cls-25" points="479.3 104.63 484.42 134.5 479.14 138.08 473 125.99 464.05 132.01 456.07 122.36 479.3 104.63"/><polygon class="cls-30" points="468.17 132.47 470.92 129.72 474.35 135.44 468.17 132.47"/><polygon class="cls-30" points="470.49 144.17 479.18 138.17 474.39 153.99 470.49 144.17"/><polygon class="cls-30" points="526.79 132.51 521.76 136.59 516.11 133.89 526.79 132.51"/><polygon class="cls-31" points="481.31 176.03 487.11 185.69 503.51 212.96 496.44 229.89 473.3 222.31 466.5 206.79 461.88 186.65 481.31 176.03"/><polygon class="cls-31" points="515.72 174.15 540.05 181.32 536.06 212.77 522.3 213.15 517.46 209.98 520.51 185.57 515.72 174.15"/><polygon class="cls-32" points="473.3 222.31 471.47 262.13 501.42 261.75 503.51 212.96 473.3 222.31"/><polygon class="cls-32" points="517.46 209.98 536.06 212.77 544.47 251.46 528.95 258.82 517.46 209.98"/><path class="cls-33" d="M530,116.66a2.78,2.78,0,1,1-2.78-2.78A2.78,2.78,0,0,1,530,116.66Z"/><path class="cls-33" d="M507.75,120a2.78,2.78,0,1,1-2.77-2.78A2.77,2.77,0,0,1,507.75,120Z"/><polygon class="cls-30" points="490.8 165.13 499.13 161.63 543.04 155.15 519.62 166.19 510.11 185.57 490.8 165.13"/><polygon class="cls-26" points="461.88 186.65 445.09 221.05 448.16 232.4 462.58 234.82 473.3 222.31 461.88 186.65"/><polygon class="cls-25" points="511.65 111.62 500.07 107.57 495.6 113.56 511.65 111.62"/><polygon class="cls-25" points="521 109.94 526.72 103.94 533.27 108.55 521 109.94"/><polygon class="cls-34" points="508.16 142.45 533.97 138.82 527.97 149.71 518.21 151.8 508.16 142.45"/><polygon class="cls-35" points="513.32 144.13 530.07 141.47 527.41 147.06 518.9 149.15 513.32 144.13"/><polygon class="cls-36" points="481.31 176.03 476.72 201.98 503.51 212.96 481.31 176.03"/><polygon class="cls-32" points="572.9 204.59 555.41 206.82 548.34 232.87 575.69 219.01 572.9 204.59"/><polygon class="cls-32" points="429.05 229.69 445.09 221.05 462.58 234.82 433.94 242.62 429.05 229.69"/><polygon class="cls-36" points="515.72 174.15 531.97 191.75 517.46 209.98 515.72 174.15"/></g><g id="Layer_6" data-name="Layer 6"><polygon class="cls-4" points="779.54 309.89 796.29 325.51 803.54 312.68 771.17 260.21 756.1 284.77 779.54 309.89"/><polygon class="cls-14" points="739.36 297.61 759.45 319.93 796.29 325.51 761.13 263 739.36 297.61"/><polygon class="cls-29" points="636.11 246.82 588.67 313.98 772.85 331.65 727.08 269.7 636.11 246.82"/><polygon class="cls-37" points="758.89 76.59 773.4 58.18 810.8 50.92 772.85 331.65 755.36 313.61 758.89 76.59"/><polygon class="cls-38" points="622.72 70.45 623.27 45.9 810.8 50.92 789.59 65.43 622.72 70.45"/><polygon class="cls-37" points="657.88 75.85 637.04 57.25 623.27 45.9 588.67 313.98 605.78 299.47 657.88 75.85"/><polygon class="cls-39" points="637.04 57.25 605.78 299.47 755.36 313.61 789.59 65.43 637.04 57.25"/><g class="cls-40"><polygon class="cls-18" points="636.55 218.4 631.53 225.94 620.02 217.63 624.06 207.38 634.09 211.33 636.55 218.4"/><polygon class="cls-19" points="649.32 219.73 644.64 229.24 631.53 225.94 634.09 211.33 649.32 219.73"/><polygon class="cls-18" points="797.53 251.55 800.08 258.59 816.18 260.91 820.36 251.32 807.43 245.05 797.53 251.55"/><polygon class="cls-19" points="797.22 242.26 807.43 245.05 800.08 258.59 785.92 252.63 787.24 242.57 797.22 242.26"/><polygon class="cls-18" points="656.92 223.84 647.43 214.82 640.46 209.75 633.34 205.98 630.97 208.43 636.27 213.31 637.67 218.82 652.88 225.8 656.92 223.84"/><polygon class="cls-18" points="784.68 241.91 791.29 239.92 801.28 238.08 813.7 241.22 812.19 246.09 802.91 244.24 795.83 247.95 783.06 244.35 784.68 241.91"/><polygon class="cls-20" points="708.27 291.65 696.92 308.96 682.61 305.48 674.41 298.17 683.49 257.35 711.43 281.05 708.27 291.65"/><polygon class="cls-21" points="696.92 308.96 688.1 325.35 669.8 321.92 671.38 318.27 674.41 298.17 696.92 308.96"/><polygon class="cls-21" points="734.62 257.94 683.49 257.35 703.18 285.09 717.63 277.94 734.62 257.94"/><polygon class="cls-22" points="703.18 285.09 709.76 305.61 719.93 310.98 735.24 306.17 741.01 264.12 739.71 259.66 719.41 273 703.18 285.09"/><polygon class="cls-20" points="709.76 305.61 714.8 323.66 718.88 327.79 733.25 327.08 735.24 306.17 709.76 305.61"/><polygon class="cls-31" points="714.8 323.66 708.96 337.29 721.06 338.61 733.57 337.29 733.25 327.08 714.8 323.66"/><polygon class="cls-31" points="671.38 318.27 654.71 333.97 674.05 335.29 687.78 333.97 688.1 325.35 671.38 318.27"/><rect class="cls-10" x="708.96" y="337.29" width="24.6" height="4.29" transform="translate(1442.53 678.87) rotate(180)"/><rect class="cls-10" x="654.71" y="333.97" width="33.08" height="4.29" transform="translate(1342.49 672.24) rotate(180)"/><polygon class="cls-24" points="739.02 186.26 734.62 257.94 693.04 258.17 700.71 184.88 720.52 181.76 739.02 186.26"/><polygon class="cls-18" points="710.08 91.43 694.04 97.43 686.3 100.92 677.29 165.38 695.74 170.35 721.66 172.96 733.04 128.53 735.49 108.01 718.09 105.9 710.08 91.43"/><polygon class="cls-19" points="705.74 174.93 702.27 173.75 720.84 173.38 730.23 126.55 735.49 108.01 745.78 120.59 742.87 130.36 741.38 136.13 741.85 140.03 740.75 146.68 744.55 143.94 747.61 137.3 751.02 142.53 750.97 146.36 749.02 149.9 746.24 156.06 747.71 155.94 745.94 164.22 739.02 186.26 710.22 195.8 705.74 174.93"/><polygon class="cls-25" points="683.55 120.75 679.89 97.26 691.31 99.11 683.55 120.75"/><polygon class="cls-26" points="680.29 191.56 664.92 217.05 660.83 227.47 671.99 243.1 687.8 228.77 688.57 208.66 680.29 191.56"/><polygon class="cls-19" points="724.73 123.8 710.69 131.09 704.32 143.99 703.51 132.08 706.38 125.06 708.69 121.85 715.52 120.87 724.73 123.8"/><polygon class="cls-19" points="699.34 120.17 699.3 124.22 699.42 129.25 696.79 135.64 687.06 118.78 692.36 116.83 699.34 120.17"/><polygon class="cls-27" points="699.3 124.22 693.55 142.74 698.32 145.57 704.36 144.08 706.38 125.06 699.3 124.22"/><polygon class="cls-18" points="742.73 144.54 741.2 148.31 749.85 154.41 756.28 142.24 747.34 134.59 742.73 144.54"/><polygon class="cls-28" points="713.29 108.17 679.89 97.26 718.45 82.22 723.62 100.22 713.29 108.17"/><polygon class="cls-29" points="713.29 108.17 718.45 82.22 762.26 105.27 749.42 109.19 735.49 108.01 713.29 108.17"/><polygon class="cls-28" points="762.26 105.27 764.27 132.59 754.16 131.28 745.78 120.59 735.49 108.01 762.26 105.27"/><polygon class="cls-25" points="745.78 120.59 737.38 138.45 741.2 148.31 747.34 136.22 756.28 142.24 764.27 132.59 745.78 120.59"/><polygon class="cls-30" points="752.16 142.7 749.42 139.95 745.98 145.67 752.16 142.7"/><polygon class="cls-30" points="749.85 154.41 741.15 148.41 745.94 164.22 749.85 154.41"/><polygon class="cls-30" points="693.55 142.74 698.57 146.82 704.22 144.13 693.55 142.74"/><polygon class="cls-31" points="739.02 186.26 733.22 195.92 716.83 223.19 723.9 240.12 747.04 232.54 753.84 217.02 758.46 196.88 739.02 186.26"/><polygon class="cls-31" points="704.61 184.38 680.29 191.56 684.27 223.01 698.04 223.38 702.87 220.22 699.83 195.8 704.61 184.38"/><polygon class="cls-32" points="747.04 232.54 749.29 267.1 719.41 273 716.83 223.19 747.04 232.54"/><polygon class="cls-32" points="702.87 220.22 684.27 223.01 677.99 258.73 691.39 269.05 702.87 220.22"/><path class="cls-33" d="M690.34,126.89a2.78,2.78,0,1,0,2.78-2.77A2.78,2.78,0,0,0,690.34,126.89Z"/><path class="cls-33" d="M712.37,130.43a2.78,2.78,0,1,0,2.78-2.78A2.78,2.78,0,0,0,712.37,130.43Z"/><polygon class="cls-30" points="728.77 173.09 677.29 165.38 700.71 176.42 710.22 195.8 728.77 173.09"/><polygon class="cls-26" points="758.46 196.88 775.24 231.28 772.17 242.63 757.75 245.05 747.04 232.54 758.46 196.88"/><polygon class="cls-25" points="708.69 121.85 720.27 117.8 724.73 123.8 708.69 121.85"/><polygon class="cls-25" points="699.34 120.17 693.62 114.17 687.06 118.78 699.34 120.17"/><polygon class="cls-34" points="712.18 152.68 686.36 149.06 692.36 159.94 702.13 162.03 712.18 152.68"/><polygon class="cls-35" points="707.01 154.36 690.27 151.71 692.92 157.29 701.43 159.38 707.01 154.36"/><polygon class="cls-36" points="739.02 186.26 743.62 212.22 716.83 223.19 739.02 186.26"/><polygon class="cls-32" points="647.43 214.82 664.92 217.05 671.99 243.1 644.64 229.24 647.43 214.82"/><polygon class="cls-32" points="791.29 239.92 775.24 231.28 757.75 245.05 786.39 252.85 791.29 239.92"/><polygon class="cls-36" points="704.61 184.38 688.36 201.98 702.87 220.22 704.61 184.38"/></g><polygon class="cls-41" points="781.31 125.45 789.59 65.43 621.59 176.95 614.73 230.18 781.31 125.45"/><polygon class="cls-41" points="721.24 310.38 759.97 280.21 765.59 239.28 673.3 305.71 721.24 310.38"/><polygon class="cls-41" points="626.97 135.28 740.55 62.8 695.05 60.36 630.86 105.13 626.97 135.28"/><polygon class="cls-41" points="658.88 58.42 637.04 57.25 634.54 76.61 658.88 58.42"/><polygon class="cls-41" points="768.66 217.52 774.59 174.18 605.78 299.47 652.43 304.03 768.66 217.52"/></g><g id="Layer_4" data-name="Layer 4"><polygon class="cls-42" points="333.33 197.45 336.76 223.53 325.19 247.93 308.6 216.8 333.33 197.45"/><polygon class="cls-43" points="333.33 197.45 341.8 213.08 336.76 223.53 325.64 219.56 333.33 197.45"/><polygon class="cls-44" points="320.66 179.34 328.2 172.75 345.31 213.78 323.65 220.09 316.6 216.69 320.66 179.34"/><polygon class="cls-42" points="253.6 253.64 245.21 260 240.75 252.81 253.6 253.64"/><polygon class="cls-45" points="266.81 240.97 260.3 262.18 245.21 260 248.61 243.86 266.81 240.97"/><polygon class="cls-42" points="248.91 201.82 231.41 210.93 248.61 243.86 260.96 243.76 260.03 236.53 253.12 213.02 248.91 201.82"/><polygon class="cls-43" points="248.91 201.82 231.41 210.93 237.49 222.63 254.96 219.25 253.12 213.02 248.91 201.82"/><polygon class="cls-46" points="313.49 64.12 321.1 52.58 304.96 52.8 313.49 64.12"/><polygon class="cls-44" points="255.97 175.59 225.64 208.92 254.96 219.25 258.48 215.32 267.9 191.38 255.97 175.59"/><polygon class="cls-11" points="293.29 278.14 287.28 294.19 266.94 294.89 257.75 291.8 258.06 249.48 285.55 264.96 293.29 278.14"/><polygon class="cls-11" points="327.13 287.15 325.19 247.93 293.55 259.16 293.29 278.14 299.96 294.24 324.21 295.28 327.13 287.15"/><polygon class="cls-46" points="299.96 294.24 308.14 315.18 326.93 321.95 327.95 311.06 327.13 287.15 299.96 294.24"/><polygon class="cls-46" points="278.14 319.15 287.28 294.19 257.75 291.8 257.57 318.27 267.44 324.92 278.14 319.15"/><polygon class="cls-10" points="325.19 247.93 293.29 278.14 258.06 249.48 325.19 247.93"/><polygon class="cls-16" points="300.12 198.94 294.38 220.54 276.52 223.53 258.48 215.32 255.97 175.59 270.76 172.21 295.27 180.69 300.12 198.94"/><polygon class="cls-45" points="278.23 165.36 294.98 173.36 305.49 168.25 310.7 164.66 332.94 165.07 340.24 104.23 337.39 88.82 320.62 92.42 288.06 94.48 279.51 107.41 280.83 124.09 269.42 127.77 278.23 165.36"/><polygon class="cls-42" points="294.18 164 295.51 106.19 293.7 95.27 282.06 104.43 276.46 119.39 264.2 124.43 268.95 138.29 271.52 140.58 271.76 146.51 278.1 165.02 284.31 174.17 295.27 180.69 292.82 167.6 294.18 164"/><polygon class="cls-43" points="268.98 138.28 276.51 135.74 271.76 146.51 268.98 138.28"/><polygon class="cls-11" points="321.1 52.58 305.59 67.09 304.09 80.19 322.26 99.13 328.08 75.56 321.1 52.58"/><polygon class="cls-43" points="268.29 126.76 273.13 124.95 275.38 132.9 268.29 126.76"/><polygon class="cls-47" points="322 137.48 315.45 137.15 316.21 116.33 322.76 116.66 322 137.48"/><polygon class="cls-43" points="322 137.48 318.2 140.26 315.45 137.15 322 137.48"/><polygon class="cls-48" points="317.95 171.1 295.27 180.69 295.04 190.81 295.04 190.81 294.38 220.54 313.22 222.21 326.19 214.97 328.2 172.75 317.95 171.1"/><polygon class="cls-49" points="288.2 186.54 295.04 190.81 301.24 186.27 295.27 180.69 288.2 186.54"/><polygon class="cls-44" points="284.72 217.92 258.48 215.32 258.06 249.48 294.08 259.55 301.85 228.6 284.72 217.92"/><polygon class="cls-9" points="326.19 214.97 294.38 220.54 294 229.39 294.08 259.55 325.19 247.93 326.19 214.97"/><polygon class="cls-13" points="341.28 86.02 335.68 69.07 321.1 52.58 322.26 99.13 341.28 86.02"/><polygon class="cls-10" points="258.56 110.37 264.2 124.43 275.98 122.51 279.28 132.45 288.3 129.77 284.35 108.63 273.61 104.14 258.56 110.37"/><polygon class="cls-50" points="295.39 111.6 262.62 120.21 264.2 124.43 295.21 119.38 295.39 111.6"/><polygon class="cls-10" points="282.62 73.64 285.22 89.47 293.65 95.84 293.65 95.84 293.82 95.61 322.26 99.13 305.59 67.09 282.62 73.64"/><polygon class="cls-46" points="258.56 110.37 284.35 108.63 293.65 95.84 282.62 73.64 258.56 110.37"/><polygon class="cls-42" points="298.35 124.62 301.34 117.81 312.86 118.04 314.23 115.72 298.1 113.85 298.35 124.62"/><polygon class="cls-42" points="332.76 117.31 327.88 119.11 325.85 126.31 324.73 115.14 332.76 117.31"/><polygon class="cls-43" points="322.26 99.13 338.2 93.17 337.38 88.78 322.26 99.13"/><polygon class="cls-42" points="325.33 110.98 323.18 113.34 335.74 114.25 339.18 105.28 333.48 106.94 330.01 110.96 325.33 110.98"/><polygon class="cls-42" points="312.35 109.86 315.56 113.06 301.21 112.04 300.06 104.25 309.19 105.7 312.35 109.86"/><polygon class="cls-42" points="298 127.5 315.66 131.41 315.77 128.37 298 127.5"/><polygon class="cls-42" points="322.2 131.93 337.1 128.83 322.3 129.44 322.2 131.93"/><polygon class="cls-43" points="310.7 164.66 290.13 163.83 295.27 180.69 303.77 177.99 310.25 168.12 310.7 164.66"/><path class="cls-9" d="M324.32,113.4h0l-.38,0-1.07-.08v0l-6.5-.24-21-1.49L295,127.8l20.76.57.48-12,6.51.25-.46,12.84L343,130l.88-15.14ZM312.46,125l-14.11-.36.22-9.5,14.4,1.07ZM340,126.67l-14.1-.36.22-9.5,14.39,1.07Z"/><path class="cls-33" d="M336.17,120.45a2.39,2.39,0,1,1-3.07-1.39A2.39,2.39,0,0,1,336.17,120.45Z"/><path class="cls-33" d="M311.84,119.08a2.39,2.39,0,1,1-3.07-1.4A2.38,2.38,0,0,1,311.84,119.08Z"/><polygon class="cls-51" points="284.72 217.92 284.72 217.92 294.2 224.79 304.73 218.81 295.04 190.81 284.72 217.92"/><polygon class="cls-49" points="304.73 218.81 284.72 217.92 294 229.39 304.73 218.81"/><polygon class="cls-50" points="278.1 165.02 270.76 172.21 286.04 191.35 295.27 180.69 278.1 165.02"/><polygon class="cls-50" points="295.27 180.69 302.85 190.45 317.95 171.1 310.42 166.83 295.27 180.69"/><polygon class="cls-16" points="327.95 311.06 342.46 325.46 323.23 328.92 308.05 325.61 308.14 315.18 327.95 311.06"/><rect class="cls-15" x="308.06" y="325.53" width="34.4" height="4.49" transform="translate(-1.44 1.43) rotate(-0.25)"/><polygon class="cls-16" points="278.14 319.15 283.41 332.55 273.49 335.08 254.6 332.58 257.57 318.27 278.14 319.15"/><polygon class="cls-15" points="283.31 337.91 254.46 337.77 254.6 332.58 283.41 332.55 283.31 337.91"/><polygon class="cls-43" points="308.86 146.16 308.02 149.05 325.02 148.31 324.75 146.04 308.86 146.16"/><polygon class="cls-46" points="300.06 104.25 307 107.44 312.48 109.89 316.27 109.89 309.67 105.9 300.06 104.25"/><polygon class="cls-46" points="325.33 110.98 330.01 110.96 333.49 108.28 339.18 105.28 332.46 106.2 325.33 110.98"/></g><g id="Layer_9" data-name="Layer 9"><polygon class="cls-1" points="56.3 95.13 70.3 148.13 146.47 177.63 224.47 151.63 233.55 72.88 179.8 30.63 101.47 23.63 56.3 95.13"/><g class="cls-52"><polygon class="cls-3" points="74.3 46.63 82.97 42.79 96.3 44.63 114.47 40.13 132.8 49.56 115.49 49.56 96.97 53.63 74.13 50.46 74.3 46.63"/><path class="cls-5" d="M193.24,61.17l-18.07-.67,16.23-7.2,20.52,1.45,10.32-3.37s-11,11.4-11.43,11.4S193.24,61.17,193.24,61.17Z"/><polygon class="cls-53" points="125.3 109.63 124.3 99.38 137.55 102.13 148.99 112.13 150.55 130.63 125.55 136.13 125.3 109.63"/><polygon class="cls-54" points="96.05 138.13 107.55 100.38 122.51 93.85 139.8 120.38 96.05 138.13"/><polygon class="cls-53" points="82.55 107.88 96.8 96.38 105.97 92.54 110.8 133.63 50.3 144.38 82.55 107.88"/><polygon class="cls-54" points="33.8 112.13 49.55 122.13 96.8 96.38 85.8 120.13 77.55 151.88 35.8 155.38 33.8 112.13"/><polygon class="cls-53" points="194.55 106.38 206.3 89.38 236.3 101.63 229.3 153.63 187.3 156.88 194.55 106.38"/><polygon class="cls-54" points="147.55 139.88 171.05 118.13 195.05 93.88 206.3 89.38 203.8 127.13 147.55 139.88"/><polygon class="cls-14" points="93.8 145.13 111.05 186.38 182.8 181.38 185.55 146.63 146.8 129.13 93.8 145.13"/><polygon class="cls-14" points="165.8 128.13 203.8 127.13 224.47 151.63 183.05 176.88 179.3 166.38 165.8 128.13"/><polygon class="cls-4" points="184.55 125.38 173.05 136.63 179.8 167.38 108.55 162.88 88.55 132.38 111.83 121.96 184.55 125.38"/><polygon class="cls-53" points="100.3 124.38 85.8 120.13 68.05 151.38 110.8 173.63 102.05 132.63 100.3 124.38"/><polygon class="cls-3" points="85.8 120.13 164.53 114.17 203.8 127.13 173.05 136.63 102.05 132.63 85.8 120.13"/><polygon class="cls-7" points="112.92 119 134.67 121.88 117.92 127 96.17 122.38 112.92 119"/><polygon class="cls-7" points="153.57 118.6 175.32 121.47 158.57 126.6 136.82 121.97 153.57 118.6"/><polygon class="cls-48" points="134.47 44.46 134.88 38.79 152.55 52.63 135.8 65.96 134.47 44.46"/><polygon class="cls-16" points="135.3 55.13 134.88 38.79 152.55 52.63 141.05 50.38 135.3 55.13"/><polygon class="cls-42" points="92.69 74.75 91.34 73.88 90.06 69.13 92.84 67.75 95.09 69.69 96.03 71.29 94.26 75.08 92.69 74.75"/><polygon class="cls-42" points="94.97 77.96 93.9 77.44 91.34 73.88 95.86 71.06 95.94 76.52 94.97 77.96"/><polygon class="cls-45" points="97.65 77.19 96.78 74.75 97.34 72.25 95.97 69.06 95.09 69.69 95.51 72.29 94.72 74.56 96.59 77.75 97.65 77.19"/><polygon class="cls-42" points="103.92 87.25 100.88 80.21 96.78 74.75 93.9 77.44 98.3 86.13 103.92 87.25"/><polygon class="cls-43" points="100.88 80.21 98.3 86.13 103.05 87.54 100.88 80.21"/><polygon class="cls-55" points="142.57 92.08 141.38 94.51 138.03 93.67 138.68 89.93 142.57 92.08"/><polygon class="cls-43" points="133.99 80.06 135.24 80.84 137.3 79.59 136.39 76.5 133.86 78.81 133.99 80.06"/><polygon class="cls-14" points="133.63 38.96 137.34 99.35 139.3 99.19 134.88 38.79 133.63 38.96"/><polygon class="cls-56" points="138.34 93.56 135.76 93.65 136.69 89 138.68 89.93 138.34 93.56"/><polygon class="cls-57" points="144.52 93.13 142.09 90.83 140.31 89.53 138.49 88.57 137.89 89.19 139.24 90.44 139.6 91.85 143.48 93.63 144.52 93.13"/><polygon class="cls-57" points="178.61 73.88 178.8 71.25 180.3 68 183.64 69.91 182.67 74.22 178.61 73.88"/><polygon class="cls-56" points="177.55 72.63 178.8 71.25 182.67 74.22 180.24 78.06 176.92 77.69 177.8 75 177.55 72.63"/><polygon class="cls-57" points="176.17 79.25 176.8 75.75 176.55 73.13 177.61 70.5 178.8 71.25 178.05 73.63 179.05 75.38 176.8 79.56 176.17 79.25"/><polygon class="cls-20" points="157.64 110.46 154.74 114.88 151.08 114 148.99 112.13 151.31 101.7 158.45 107.75 157.64 110.46"/><polygon class="cls-21" points="154.74 114.88 152.49 119.07 147.81 118.2 148.21 117.27 148.99 112.13 154.74 114.88"/><polygon class="cls-21" points="164.38 101.84 151.31 101.7 156.36 109.04 160.03 106.96 164.38 101.84"/><polygon class="cls-22" points="156.36 109.04 158.02 114.03 160.62 115.4 164.53 114.17 166.01 103.42 165.68 102.28 164.38 101.84 156.36 109.04"/><polygon class="cls-20" points="158.02 114.03 159.31 118.64 160.35 119.7 164.03 119.52 164.53 114.17 158.02 114.03"/><polygon class="cls-31" points="159.31 118.64 157.82 122.13 160.91 122.46 164.11 122.13 164.03 119.52 159.31 118.64"/><polygon class="cls-31" points="148.21 117.27 143.95 121.28 148.9 121.61 152.41 121.28 152.49 119.07 148.21 117.27"/><rect class="cls-10" x="157.82" y="122.13" width="6.29" height="1.1" transform="translate(321.93 245.35) rotate(180)"/><rect class="cls-10" x="143.95" y="121.28" width="8.45" height="1.1" transform="translate(296.36 243.65) rotate(180)"/><polygon class="cls-24" points="165.5 83.53 163.49 102.33 153.58 102.05 155.71 83.17 160.77 82.38 165.5 83.53"/><polygon class="cls-57" points="158.1 59.29 154 60.82 152.03 61.72 149.72 78.19 154.44 79.46 161.06 80.13 163.97 68.77 164.6 63.53 160.15 62.99 158.1 59.29"/><polygon class="cls-56" points="157 80.63 156.11 80.33 160.85 80.24 163.25 68.27 164.6 63.53 167.23 66.74 166.48 69.24 166.1 70.71 166.22 71.71 165.94 73.41 166.91 72.71 167.7 71.01 168.57 72.35 168.55 73.33 168.06 74.23 167.34 75.81 167.72 75.78 167.27 77.89 165.92 82.13 158.14 85.96 157 80.63"/><polygon class="cls-25" points="151.16 66.47 150.39 60.78 153.31 61.25 151.16 66.47"/><polygon class="cls-26" points="150.49 84.88 146.56 91.4 145.52 94.06 148.37 98.05 152.41 94.39 152.61 89.25 150.49 84.88"/><polygon class="cls-56" points="161.85 67.56 158.26 69.43 156.63 72.72 156.43 69.68 157.16 67.89 157.75 67.06 159.5 66.81 161.85 67.56"/><polygon class="cls-56" points="155.36 66.64 155.35 67.67 155.38 68.96 154.71 70.59 152.22 66.28 153.58 65.78 155.36 66.64"/><polygon class="cls-58" points="155.35 67.67 153.88 72.41 155.1 73.13 156.64 72.75 157.16 67.89 155.35 67.67"/><polygon class="cls-57" points="166.45 72.86 166.06 73.83 168.27 75.39 169.91 72.28 167.63 70.32 166.45 72.86"/><polygon class="cls-28" points="155.63 62.88 150.39 60.78 160.24 56.94 161.56 61.54 155.63 62.88"/><polygon class="cls-29" points="155.63 62.88 160.24 56.94 171.44 62.83 168.16 63.83 164.6 63.53 155.63 62.88"/><polygon class="cls-28" points="171.44 62.83 171.95 69.81 169.37 69.47 167.23 66.74 164.6 63.53 171.44 62.83"/><polygon class="cls-25" points="166.05 65.29 165.09 72.88 166.06 73.83 167.63 70.74 169.91 72.28 171.95 69.81 166.05 65.29"/><polygon class="cls-55" points="168.86 72.39 168.16 71.69 167.28 73.15 168.86 72.39"/><polygon class="cls-55" points="168.27 75.39 166.04 73.85 167.27 77.89 168.27 75.39"/><polygon class="cls-55" points="153.88 72.41 155.16 73.45 156.61 72.76 153.88 72.41"/><polygon class="cls-31" points="165.92 82.13 159.83 92.97 161.63 97.29 168.42 93.38 173.8 87 169.17 82.63 165.92 82.13"/><polygon class="cls-31" points="156.71 83.05 150.49 84.88 151.51 92.92 155.03 93.01 156.26 92.2 156.71 83.05"/><polygon class="cls-32" points="168.42 93.38 168.02 105.53 160.36 105.43 159.83 92.97 168.42 93.38"/><polygon class="cls-32" points="156.26 92.2 151.51 92.92 149.36 102.8 153.33 104.69 156.26 92.2"/><path class="cls-33" d="M153.06,68.35a.71.71,0,1,0,.71-.71A.71.71,0,0,0,153.06,68.35Z"/><path class="cls-33" d="M158.72,69.64a.71.71,0,1,0,.71-.71A.71.71,0,0,0,158.72,69.64Z"/><polygon class="cls-55" points="162.8 82.13 160.85 80.24 149.72 78.19 155.71 81.01 158.14 85.96 162.8 82.13"/><polygon class="cls-26" points="169.17 82.63 174.3 80.75 177.55 81 175.36 88.88 168.42 93.38 169.17 82.63"/><polygon class="cls-25" points="157.75 67.06 160.71 66.03 161.85 67.56 157.75 67.06"/><polygon class="cls-25" points="155.36 66.64 153.9 65.1 152.22 66.28 155.36 66.64"/><polygon class="cls-43" points="158.64 74.94 152.04 74.02 153.58 76.8 156.07 77.33 158.64 74.94"/><polygon class="cls-35" points="157.32 75.37 153.04 74.7 153.72 76.12 155.89 76.66 157.32 75.37"/><polygon class="cls-56" points="142.09 90.83 146.56 91.4 148.37 98.05 141.38 94.51 142.09 90.83"/><polygon class="cls-56" points="180.24 78.06 176.8 75.75 172.92 81.19 175.36 88.88 180.24 78.06"/><polygon class="cls-45" points="133.01 80.33 133.99 77.5 134.67 75.42 136.89 73.47 137.36 74.56 136.01 75.79 136.17 77.88 133.01 80.33"/><polygon class="cls-42" points="124.61 86.13 128.55 83 133.99 77.5 135.24 80.84 129.92 88.75 124.61 86.13"/><polygon class="cls-43" points="128.55 83.19 129.92 88.75 125.05 90.81 125.3 84.19 128.55 83.19"/><polygon class="cls-44" points="121.3 85.27 123.13 83.7 128.55 83 128.17 91.44 122.51 93.85 121.3 85.27"/><polygon class="cls-46" points="119.96 57.55 121.83 54.8 117.95 54.8 119.96 57.55"/><polygon class="cls-44" points="105.47 81.54 100.88 80.21 100.8 90.38 105.97 92.54 108.58 87.98 105.47 81.54"/><polygon class="cls-11" points="114.39 108.91 112.89 112.75 108 112.85 105.8 112.08 106.02 101.91 112.57 105.72 114.39 108.91"/><polygon class="cls-11" points="122.49 111.19 122.15 101.76 114.51 104.35 114.39 108.91 115.94 112.81 121.76 113.14 122.49 111.19"/><polygon class="cls-46" points="115.94 112.81 117.83 117.86 122.32 119.56 122.6 116.94 122.49 111.19 115.94 112.81"/><polygon class="cls-46" points="110.61 118.72 112.89 112.75 105.8 112.08 105.67 118.44 108.02 120.07 110.61 118.72"/><polygon class="cls-10" points="122.15 101.76 114.39 108.91 106.02 101.91 122.15 101.76"/><polygon class="cls-16" points="116.29 89.91 114.84 95.08 110.54 95.73 105.97 92.54 105.47 81.54 109.05 82.46 115.19 85.5 116.29 89.91"/><polygon class="cls-45" points="111.15 81.76 115.14 83.74 117.69 82.55 118.95 81.7 124.3 81.88 126.25 67.28 125.62 63.57 121.58 64.38 113.75 64.76 111.65 67.84 111.91 71.85 109.16 72.7 111.15 81.76"/><polygon class="cls-42" points="114.98 81.49 115.5 67.6 115.1 64.97 112.27 67.13 110.88 70.71 107.91 71.88 109.01 75.22 109.62 75.78 109.66 77.21 111.12 81.68 112.58 83.9 115.19 85.5 114.65 82.35 114.98 81.49"/><polygon class="cls-43" points="109.02 75.22 110.83 74.64 109.66 77.21 109.02 75.22"/><polygon class="cls-11" points="121.83 54.8 118.05 58.24 117.65 61.38 121.95 65.99 123.43 60.35 121.83 54.8"/><polygon class="cls-43" points="108.89 72.45 110.06 72.03 110.57 73.95 108.89 72.45"/><polygon class="cls-47" points="121.76 75.21 120.19 75.11 120.44 70.11 122.01 70.21 121.76 75.21"/><polygon class="cls-43" points="121.76 75.21 120.84 75.86 120.19 75.11 121.76 75.21"/><polygon class="cls-48" points="120.67 83.28 115.19 85.5 115.1 87.93 115.1 87.93 114.84 95.08 119.36 95.54 122.51 93.85 123.13 83.7 120.67 83.28"/><polygon class="cls-49" points="113.47 86.88 115.1 87.93 116.61 86.86 115.19 85.5 113.47 86.88"/><polygon class="cls-44" points="112.53 94.41 105.97 92.54 106.02 101.91 114.64 104.45 116.61 97.04 112.53 94.41"/><polygon class="cls-9" points="122.51 93.85 114.84 95.08 114.72 97.2 114.64 104.45 122.15 101.76 122.51 93.85"/><polygon class="cls-13" points="126.57 62.91 125.28 58.82 121.83 54.8 121.95 65.99 126.57 62.91"/><polygon class="cls-10" points="106.61 68.48 107.91 71.88 110.75 71.46 111.51 73.86 113.69 73.24 112.81 68.15 110.24 67.03 106.61 68.48"/><polygon class="cls-50" points="115.45 68.9 107.55 70.86 107.91 71.88 115.38 70.77 115.45 68.9"/><polygon class="cls-10" points="112.51 59.73 113.08 63.55 115.09 65.11 115.09 65.11 115.13 65.05 121.95 65.99 118.05 58.24 112.51 59.73"/><polygon class="cls-46" points="106.61 68.48 112.81 68.15 115.09 65.11 112.51 59.73 106.61 68.48"/><polygon class="cls-42" points="116.12 72.04 116.86 70.41 119.63 70.5 119.97 69.95 116.1 69.45 116.12 72.04"/><polygon class="cls-42" points="124.41 70.4 123.23 70.81 122.72 72.54 122.49 69.85 124.41 70.4"/><polygon class="cls-43" points="121.95 65.99 125.8 64.62 125.62 63.56 121.95 65.99"/><polygon class="cls-42" points="122.65 68.85 122.12 69.41 125.14 69.67 125.74 68.25 123.89 67.88 123.77 68.86 122.65 68.85"/><polygon class="cls-42" points="119.53 68.54 120.29 69.32 116.85 69.02 116.61 67.56 118.79 67.53 119.53 68.54"/><polygon class="cls-42" points="116.03 72.73 120.26 73.73 120.29 73 116.03 72.73"/><polygon class="cls-42" points="121.83 73.88 125.42 73.18 121.86 73.28 121.83 73.88"/><polygon class="cls-43" points="118.95 81.7 114.01 81.43 115.19 85.5 117.24 84.88 118.83 82.53 118.95 81.7"/><path class="cls-9" d="M122.4,69.43h-.09l-.26,0h0l-1.56-.08-5-.43-.14,3.89,5,.21.16-2.89,1.56.08-.15,3.09,5,.21.26-3.64Zm-2.89,2.74L116.12,72l.09-2.28,3.45.3Zm6.6.5-3.39-.13.09-2.29,3.45.31Z"/><path class="cls-33" d="M125.22,71.17a.58.58,0,0,1-.34.73.59.59,0,0,1-.74-.35.58.58,0,0,1,.35-.73A.56.56,0,0,1,125.22,71.17Z"/><path class="cls-33" d="M119.38,70.75a.57.57,0,1,1-.73-.34A.56.56,0,0,1,119.38,70.75Z"/><polygon class="cls-51" points="112.53 94.41 112.53 94.41 114.78 96.1 117.33 94.69 115.1 87.93 112.53 94.41"/><polygon class="cls-49" points="117.33 94.69 112.53 94.41 114.72 97.2 117.33 94.69"/><polygon class="cls-50" points="111.12 81.68 109.05 82.46 112.94 88.03 115.19 85.5 111.12 81.68"/><polygon class="cls-50" points="115.19 85.5 116.98 87.87 120.67 83.28 118.88 82.22 115.19 85.5"/><polygon class="cls-16" points="122.6 116.94 126.04 120.45 121.41 121.22 117.77 120.37 117.83 117.86 122.6 116.94"/><rect class="cls-15" x="117.77" y="120.41" width="8.27" height="1.08" transform="translate(1.17 -1.17) rotate(0.55)"/><polygon class="cls-16" points="110.61 118.72 111.83 121.96 109.44 122.53 104.9 121.87 105.67 118.44 110.61 118.72"/><polygon class="cls-15" points="111.79 123.24 104.85 123.11 104.9 121.87 111.83 121.96 111.79 123.24"/><polygon class="cls-43" points="118.17 76.81 119.2 79.06 121.45 79.13 122.89 77.06 118.17 76.81"/><polygon class="cls-35" points="118.95 77.27 119.49 78.67 121.27 78.67 122.13 77.41 118.95 77.27"/><polygon class="cls-46" points="116.61 67.56 118.8 67.63 119.56 68.55 120.47 68.56 119.42 67.03 116.61 67.56"/><polygon class="cls-46" points="122.65 68.85 123.77 68.86 124.3 68.03 125.74 68.25 124.08 67.44 122.65 68.85"/><polygon class="cls-42" points="135.92 75.84 138.47 74.54 138.99 79.03 136.17 80.28 135.92 75.84"/><polygon class="cls-3" points="223.42 62.63 202.77 64.13 192.8 61.63 175.17 60.5 195.65 58.58 218.55 58.5 223.42 62.63"/><polygon class="cls-5" points="132.61 49.63 114.3 38.63 97.13 41.46 76.97 38.46 80.3 46.29 97.3 48.46 112.3 44.31 132.61 49.63"/></g><polygon class="cls-1" points="240.67 131.5 236.3 136.75 239.55 143.38 248.05 142.38 248.8 133.5 240.67 131.5"/><polygon class="cls-1" points="259.55 140.88 255.92 144.13 257.8 147.88 262.42 148 263.8 143.38 259.55 140.88"/></g></svg>