<svg xmlns="http://www.w3.org/2000/svg" viewBox="0 0 900 350"><defs><style>.cls-1{fill:#54b08b;}.cls-1,.cls-10,.cls-11,.cls-12,.cls-13,.cls-14,.cls-15,.cls-16,.cls-17,.cls-18,.cls-19,.cls-2,.cls-20,.cls-21,.cls-22,.cls-23,.cls-24,.cls-25,.cls-26,.cls-27,.cls-28,.cls-29,.cls-3,.cls-30,.cls-31,.cls-32,.cls-33,.cls-34,.cls-35,.cls-36,.cls-37,.cls-38,.cls-5,.cls-6,.cls-7,.cls-8,.cls-9{fill-rule:evenodd;}.cls-2{fill:#74c7a5;}.cls-3{fill:#3f8f6f;}.cls-14,.cls-4{fill:#b8c744;}.cls-5{fill:#dddddc;}.cls-6{fill:#ececeb;}.cls-7{fill:#c4c4c4;}.cls-8{fill:#a3a3a3;}.cls-9{fill:#8f8f8f;}.cls-10{fill:#99c26c;}.cls-11{fill:#a0cf7f;}.cls-12{fill:#6f9d52;}.cls-13{fill:#d9e256;}.cls-15{fill:#cfcfcd;}.cls-16,.cls-33{fill:#2b2b2b;}.cls-16{opacity:0.1;}.cls-17{fill:#e6e97b;}.cls-18{fill:#35785e;}.cls-19{fill:#5a753d;}.cls-20{fill:#738d57;}.cls-21{fill:#9ca0a1;}.cls-22{fill:#737474;}.cls-23{fill:#858686;}.cls-24{fill:#dfbda5;}.cls-25{fill:#c2987a;}.cls-26{fill:#4f5353;}.cls-27{fill:#010101;opacity:0.2;}.cls-28{fill:#474748;}.cls-29{fill:#8b6651;}.cls-30{fill:#e9cbb7;}.cls-31{fill:#fff;}.cls-32{fill:#44622d;}.cls-34{fill:#835941;}.cls-35{fill:#a77e62;}.cls-36{fill:#bf9c83;}.cls-37{fill:#6f7273;}.cls-38{fill:#c9ad9c;}</style></defs><title>diplomats_Campaigner_ENFP_romantic_relationships</title><g id="Layer_6" data-name="Layer 6"><polygon class="cls-1" points="33.25 240.75 29.81 246.06 15 254 1 282 15 283.67 106.25 264.75 33.25 240.75"/><polygon class="cls-2" points="51.5 216.25 36.25 216.25 29.81 246.06 43.5 253.25 63.5 227.75 51.5 216.25"/><polygon class="cls-3" points="126.25 238 123 212.83 88.25 195.75 56 213 36.25 216.25 48.5 224 126.25 238"/><polygon class="cls-1" points="119.25 218.25 123 212.83 146.75 209.5 167.17 221.17 195.75 216.59 208.25 230.5 157 238 119.25 218.25"/><polygon class="cls-3" points="70.75 233 48.5 224 43.5 253.25 9.5 283.25 74 277.25 70.75 233"/><polygon class="cls-1" points="101 213 85.83 209.5 48.5 224 55.5 243.17 92.25 256 101 213"/><polygon class="cls-3" points="191.5 230.5 155 228.5 122.67 212.67 96 217 82.83 228.83 106 234.13 159.17 259.17 191.5 230.5"/><polygon class="cls-2" points="136 252 131.5 225.5 123 212.83 85.83 209.5 82.83 228.83 106 234.13 136 252"/><polygon class="cls-3" points="121.17 233.83 91.5 259.17 129.83 280.17 169.17 259.5 121.17 233.83"/><polyline class="cls-1" points="180.83 256.5 158.6 236.83 144.17 238.83 131.5 225.5 82.83 228.83 95.67 239 127.5 244.17 148.5 266.5 180.83 256.5"/></g><g id="Layer_8" data-name="Layer 8"><circle class="cls-4" cx="736.71" cy="32.13" r="32.12"/><polygon class="cls-5" points="745.17 37.34 726.67 65.83 785.17 84.33 884.67 46.84 745.17 37.34"/><path class="cls-6" d="M640.67,32.34s71,3.5,74.5,3.5,76-14,76-14l93.5,25-102,3-56,16Z"/></g><g id="Layer_5" data-name="Layer 5"><polygon class="cls-5" points="602.83 130.17 628.16 118.17 657.5 137.5 603.16 160.5 602.83 130.17"/><polygon class="cls-7" points="543.16 175.5 537.16 159.17 606.83 118.83 628.16 118.17 623.5 143.5 543.16 175.5"/><polygon class="cls-8" points="542.16 172.83 623.5 143.5 657.5 137.5 698.5 195.5 534.16 222.17 542.16 172.83"/><polygon class="cls-9" points="477.17 224.17 504.5 187.5 537.16 159.17 623.5 143.5 602 187 524.5 224.17 477.17 224.17"/><polygon class="cls-7" points="477.17 224.17 475.5 196.17 504.5 187.5 602 187 524.5 224.17 477.17 224.17"/><polygon class="cls-7" points="724.5 257.5 769.5 234.5 698.5 195.5 602 187 553.5 214.17 663 232 724.5 257.5"/><polygon class="cls-1" points="558.83 242.17 562.16 218.83 609.5 208.17 760.75 232.25 756 246.5 726.16 288.17 564.83 270.17 558.83 242.17"/><polygon class="cls-2" points="537.5 238.83 467.5 249.5 464.83 228.83 477.5 212.17 553.5 214.17 609.5 208.17 587.5 222.83 537.5 238.83"/><polygon class="cls-3" points="292.83 214.83 444.17 277.5 501.17 246.5 587.5 222.83 722.83 250.17 732.83 281.5 338.83 293.5 292.83 214.83"/><polygon class="cls-1" points="292.83 214.83 444.17 277.5 489.5 235.5 587.5 222.83 641.83 271.83 732.83 281.5 338.83 293.5 292.83 214.83"/></g><g id="Layer_12" data-name="Layer 12"><polygon class="cls-10" points="592.83 190.67 565.5 193.75 606.67 177 640.33 192.67 592.83 190.67"/><polygon class="cls-11" points="592.83 190.67 559.5 188.17 606.67 177 592.75 209.25 592.83 190.67"/><polygon class="cls-12" points="666.83 198.83 664.5 192.33 601 186.83 522.17 187.5 509.5 194 666.83 198.83"/><polygon class="cls-10" points="505.17 203.83 509.5 194 538.67 191.5 602 195.67 664.5 192.33 682.83 202.83 699.63 204.13 709.13 212.38 638.99 211.15 610.33 203.83 552.83 214.5 505.17 203.83"/><polygon class="cls-12" points="552.83 214.5 602 195.67 665.17 208.5 709.13 212.38 722.83 226.17 608.88 208.5 552.83 214.5"/><polygon class="cls-12" points="472.17 205.83 497.55 197.79 509.5 194 552.83 214.5 478.17 213 472.17 205.83"/></g><g id="Layer_4" data-name="Layer 4"><polygon class="cls-13" points="483.5 262.5 496.5 259.83 740 260.5 781.5 273.5 848.5 334.17 662 339.5 436.17 350.83 496.83 309.5 483.5 262.5"/><polygon class="cls-14" points="776.5 280.5 664.83 291.5 687.17 339.17 848.5 334.17 776.5 280.5"/><polygon class="cls-14" points="530.83 346.17 488.33 348.5 436.17 350.83 511 292.5 548.16 294.83 530.83 346.17"/><polygon class="cls-8" points="496.83 309.5 548.16 294.83 486.83 252.83 496.83 309.5"/><polygon class="cls-15" points="326.17 319.5 322.83 349.5 436.17 350.83 548.16 294.83 518.5 292.88 461.5 272.83 326.17 319.5"/><polygon class="cls-6" points="178.83 256.17 463.55 305.91 322.83 349.5 114 338.5 1 282 178.83 256.17"/><polygon class="cls-16" points="162.5 273 88.83 269.25 1 282 72.75 318 111.38 307.47 194.16 326.83 304.5 318.17 360.5 326.5 463.55 305.91 162.5 273"/><polygon class="cls-17" points="521.12 324.75 560.12 295.81 536.62 281.19 540.56 281 567 295.38 526.87 326.38 521.12 324.75"/><polygon class="cls-17" points="696 308.33 719.16 325 713.5 325.17 690.83 308.67 696 308.33"/><polygon class="cls-17" points="552.25 314.63 521 339.38 527.25 339.25 556 315.13 552.25 314.63"/><polyline class="cls-17" points="691.33 313.5 719.83 335 715 335.67 686.66 313.67"/><polygon class="cls-16" points="107.92 324.21 116.33 328.88 127.75 326 117.5 322.38 107.92 324.21"/><polygon class="cls-16" points="137.67 317.93 146.65 320.63 158.83 318.97 147.89 316.88 137.67 317.93"/><polygon class="cls-16" points="181 336.77 189.98 340.96 202.17 338.38 191.23 335.13 181 336.77"/><polygon class="cls-16" points="285.5 337.27 294.48 341.46 306.67 338.88 295.73 335.63 285.5 337.27"/></g><g id="Layer_10" data-name="Layer 10"><polygon class="cls-18" points="839.35 170.08 831.79 208.51 839.13 220.16 843.45 170.73 839.35 170.08"/><polygon class="cls-12" points="853.45 202.8 843.06 195.12 836.54 211.31 836.72 227.94 857.8 205.65 853.45 202.8"/><polygon class="cls-12" points="817.88 182.5 829.38 180.13 836.97 221.68 824.66 209.69 812.25 189.38 817.88 182.5"/><polygon class="cls-18" points="735.74 221.69 738.93 227.62 737.17 248.26 733.88 251.01 735.74 221.69"/><polygon class="cls-3" points="732.38 210.09 725.34 214.74 738.93 227.62 742.5 215.96 732.38 210.09"/><polygon class="cls-12" points="718.27 235.58 734.78 236.62 737.2 259.38 723.7 249.71 718.27 235.58"/><polygon class="cls-10" points="710.5 252.85 712.9 233.16 734.78 236.62 710.5 252.85"/><polygon class="cls-1" points="736.16 201.58 725.34 214.74 742.5 215.96 736.16 201.58"/><polygon class="cls-3" points="844.94 161.75 852.95 162.31 837.73 178.61 829.52 161.77 844.94 161.75"/><polygon class="cls-1" points="844.53 144.6 852.95 162.31 829.52 161.77 844.53 144.6"/><polygon class="cls-10" points="801.75 175.38 796.5 199.5 829.38 180.13 801.75 175.38"/><polygon class="cls-10" points="843.06 195.12 864.55 194.42 870.43 222.81 843.06 195.12"/><polygon class="cls-12" points="798.76 171.05 803.68 165.74 797.35 161.49 796.56 167.54 798.76 171.05"/><polygon class="cls-19" points="775.49 169.64 797.64 146.25 795 168.13 775.49 169.64"/><polygon class="cls-10" points="797.35 161.49 798.76 171.05 774.38 176.88 788.43 165.96 797.35 161.49"/><polygon class="cls-12" points="766.93 173.67 781.83 149.33 791.96 168.67 766.93 173.67"/><polygon class="cls-10" points="59.69 192.01 63.25 188.38 53.34 185.69 56.3 189.64 59.69 192.01"/><polygon class="cls-12" points="36.88 195.5 49.5 174.38 55.09 190.78 36.88 195.5"/><polygon class="cls-20" points="53.34 185.69 59.69 192.01 45.33 208.17 45.58 195.42 53.34 185.69"/><polygon class="cls-10" points="26.5 194.75 38.13 175.69 52.5 192.47 45.42 199.5 26.5 194.75"/></g><g id="Layer_9" data-name="Layer 9"><polygon class="cls-5" points="71.08 70.09 24.17 81.21 69.5 90.83 118.29 104.67 162.5 75.8 117.39 85.72 71.08 70.09"/><polygon class="cls-6" points="24.17 81.21 78 61.67 125.21 77 162.5 75.8 118.89 91.06 80.4 75.8 24.17 81.21"/><polygon class="cls-5" points="484.33 112.35 534.58 136 485.83 137.5 437.71 145.56 396.63 114.52 439.37 126.38 484.33 112.35"/><polygon class="cls-6" points="533.83 135.75 478.07 103.54 432.25 117.22 396.63 114.52 446.5 131.67 481.17 124 533.83 135.75"/></g><g id="Layer_3" data-name="Layer 3"><polygon class="cls-8" points="103.83 230.83 116.33 232.5 122.5 290.5 105.17 294.5 83.83 254 94.67 231.5 103.83 230.83"/><polygon class="cls-7" points="105.17 232.83 82.83 228.83 80.17 246.5 91.5 284.83 96.17 257.5 99.67 233.5 105.17 232.83"/><polygon class="cls-21" points="801 205 838.16 207.5 862.5 294.5 815.5 318.17 761.5 222.83 801 205"/><polygon class="cls-21" points="330.04 278.9 360.25 311.25 463.55 305.91 473.91 273.88 463.67 264.78 337.58 256.3 330.04 278.9"/><polygon class="cls-22" points="343.23 274.51 357.05 265.09 463.67 264.78 436.17 207.31 314.97 213.59 314.34 259.44 343.23 274.51"/><polyline class="cls-23" points="284.51 275.14 292.05 286.44 293.84 302.06 360.25 311.25 357.05 265.09 326.75 257.25 296.45 237.46 276.35 258.18 284.51 275.14"/><polygon class="cls-22" points="176.5 267.92 193.83 309.99 290.29 304.17 269.29 237.3 210.88 238.71 176.5 267.92"/><polygon class="cls-21" points="193.46 235.42 158.6 236.83 128.83 291.78 193.83 309.99 210.76 252.48 193.46 235.42"/><polygon class="cls-22" points="215.59 228.35 195.95 224.46 195.81 217.99 158.6 236.83 210.76 252.48 215.59 228.35"/><polygon class="cls-15" points="452.38 206.51 434.23 185.75 453.18 181.52 480.2 185.75 460.44 210.55 452.38 206.51"/><polygon class="cls-23" points="457.82 206.51 466.29 189.98 480.2 185.75 483.22 224.66 456.81 219.62 457.82 206.51"/><polygon class="cls-21" points="466.29 189.98 463.67 217 452.58 243.21 420.73 242.8 434.23 185.75 466.29 189.98"/><polygon class="cls-15" points="477.98 239.78 483.22 224.66 463.67 217 443.3 220.43 451.37 228.03 474.15 247.03 477.98 239.78"/><polygon class="cls-23" points="459.23 233.53 464.67 227.08 483.22 224.66 518.5 292.88 463.55 305.91 463.67 264.78 459.23 233.53"/><polygon class="cls-7" points="443.05 220.37 437.96 229.09 452.78 260.34 463.67 264.78 464.67 227.08 443.05 220.37"/><polyline class="cls-1" points="777.5 234.83 760.16 205.5 802.5 200 838.16 207.5 798.16 211.5 776.16 237.5"/><polygon class="cls-15" points="760.16 205.5 755.16 245.17 768.83 289.5 791.83 308.42 815.5 318.17 798.16 211.5 760.16 205.5"/><polygon class="cls-23" points="757.5 258.5 780.16 256.17 791.83 308.42 745.83 316.5 736.83 263.5 757.5 258.5"/><polygon class="cls-1" points="729.5 262.83 723.5 249.5 755.16 245.17 780.16 256.17 754.5 260.83 729.5 262.83"/><polygon class="cls-7" points="723.5 249.5 711.5 304.83 745.83 316.5 754.5 260.83 723.5 249.5"/><polygon class="cls-21" points="857.17 258.17 885.33 257.83 900.17 317.17 848.5 334.17 839.83 267.5 857.17 258.17"/><polygon class="cls-7" points="847.83 263.5 816.5 266.17 805.25 314 848.5 334.17 851.17 272.83 848.5 266.17 847.83 263.5"/><polygon class="cls-1" points="850.83 252.5 816.5 266.17 851.17 272.83 885.33 257.83 850.83 252.5"/><polygon class="cls-6" points="61.83 262.83 55.5 243.17 80.17 246.5 96.17 257.5 60.5 277.83 61.83 262.83"/><polygon class="cls-9" points="57.5 262.17 73.5 259.5 96.17 257.5 112.5 299.17 69.83 304.83 57.5 262.17"/><polygon class="cls-7" points="55.5 243.17 40.5 293.5 69.83 304.83 73.5 259.5 55.5 243.17"/><polygon class="cls-6" points="82.83 228.83 99.67 233.5 116.33 232.5 107.83 228.17 82.83 228.83"/></g><g id="Layer_2" data-name="Layer 2"><polygon class="cls-19" points="442.04 202.23 453.49 189.68 459.03 192.81 437.96 229.09 431.41 225.87 428.79 221.43 442.04 202.23"/><polygon class="cls-12" points="417.3 200.67 429.65 196.94 453.49 189.68 431.41 225.87 416.19 218.71 417.3 200.67"/><polygon class="cls-18" points="383.38 200.42 398.8 179.55 429.65 196.94 416.19 218.71 398.8 212.36 383.38 200.42"/><polygon class="cls-19" points="437.66 238.57 451.04 222.84 457.3 224.77 452.78 260.34 445.52 259.33 437.66 238.57"/><polygon class="cls-12" points="419.31 245.42 429.6 234.44 451.04 222.84 445.52 259.33 425.56 256.51 419.31 245.42"/><polygon class="cls-18" points="385.45 231.92 404.8 224.25 429.6 234.44 425.56 256.51 395.32 252.88 385.45 231.92"/><polygon class="cls-1" points="358.74 221.03 353.09 200.06 357.58 197.77 370.88 189.23 398.8 179.55 398.8 212.36 370.55 229.29 358.74 221.03"/><polygon class="cls-1" points="365.19 222.24 349.87 253.99 395.32 252.88 404.8 224.25 376.91 217.99 365.19 222.24"/><polygon class="cls-18" points="345.23 212.56 354.75 200.5 376.91 217.99 349.87 253.99 345.23 212.56"/><polygon class="cls-24" points="338.37 136.06 344 135.5 353.33 130.33 359.5 143.33 348.83 157.17 338.37 136.06"/><polygon class="cls-25" points="342.83 136 347.33 157.83 337.32 161.91 324.92 151.63 342.83 136"/><polygon class="cls-12" points="329.4 106.93 346.24 167.19 346.24 167.19 351.8 166.63 351.8 166.63 340.06 115.97 329.4 106.93"/><polygon class="cls-24" points="325.22 157.07 329 148.05 332.63 136.96 341.5 129.38 344.13 133 340.94 140.29 340.94 148.91 324.62 159.64 325.22 157.07"/><polygon class="cls-19" points="294.12 176.28 299.67 159.19 329 148.05 337.32 161.91 308.44 182.53 294.12 176.28"/><polygon class="cls-18" points="266.16 213.97 291.43 253.08 260.43 258.9 249.97 254.7 230.72 257.01 210.76 252.48 197.93 240.95 195.95 224.46 202.56 197.14 266.16 213.97"/><polygon class="cls-3" points="246.55 228.69 281.83 256.11 270.54 257.32 243.12 237.96 232.44 226.88 241.91 218.21 246.55 228.69"/><polygon class="cls-3" points="258.57 214.48 293.85 241.9 282.56 243.1 255.14 223.75 244.46 212.66 253.93 204 258.57 214.48"/><polygon class="cls-18" points="266.16 213.97 251.55 226.66 237.68 245.07 229.21 241.29 222.25 229.8 216.96 225.11 195.95 224.46 202.56 197.14 266.16 213.97"/><polygon class="cls-3" points="222.71 262.31 210.76 252.48 195.95 224.46 195.75 216.59 232.99 213.32 249.97 254.7 222.71 262.31"/><polygon class="cls-18" points="225.38 267.4 222.76 258.53 203.51 216.44 211.67 213.47 230.62 257.22 225.38 267.4"/><polygon class="cls-18" points="241 268.2 236.32 253.91 219.13 217.25 227.29 214.28 246.25 258.02 241 268.2"/><polygon class="cls-10" points="282.83 153.9 299.67 159.19 308.44 182.53 269.28 189.13 266.71 159.34 282.83 153.9"/><polygon class="cls-26" points="235.65 301.82 217.28 309.02 214.08 301.92 216.67 290.07 222.34 287.95 230.8 290.62 235.65 301.82"/><polygon class="cls-27" points="216.67 290.07 224.1 287.95 230.8 290.62 215.13 297.1 216.67 290.07"/><polygon class="cls-23" points="242.91 312.95 242.7 301.49 225.77 299.71 218.46 307.16 214.08 301.92 213.59 312.95 242.91 312.95"/><polygon class="cls-18" points="240.1 281.51 237.87 280.83 212.79 279.86 212.97 289.87 236.92 290.88 240.1 281.51"/><polygon class="cls-20" points="257.38 147.72 267.36 178.98 266.16 213.97 247.86 218.21 240.1 224.96 231.03 213.47 213.34 217.4 195.75 216.59 195.75 180.85 217.26 135.92 257.38 147.72"/><polygon class="cls-26" points="241.84 177.91 229.55 211.38 239.79 219.23 250.72 211.72 241.84 177.91"/><polygon class="cls-28" points="250.72 211.72 229.55 211.38 239.64 223.9 250.72 211.72"/><polygon class="cls-28" points="252.62 166.03 241.84 177.91 231.63 164.52 242.87 162.55 252.62 166.03"/><polygon class="cls-19" points="201.89 175.09 201.89 153.74 193.58 142.66 163 173.25 180.93 199.71 195.44 188.22 201.89 175.09"/><polygon class="cls-3" points="264.72 146.16 282.83 153.9 267.36 178.98 258.04 161.96 264.72 146.16"/><polygon class="cls-10" points="242.87 162.55 232.34 143.99 217.26 135.92 214.42 176.52 242.87 162.55"/><polygon class="cls-10" points="264.72 146.16 247.16 149.88 242.87 162.55 267.36 178.98 264.72 146.16"/><polygon class="cls-3" points="217.26 135.92 193.58 142.66 201.89 175.09 217.26 135.92"/><polygon class="cls-19" points="261.64 131.14 250.38 140.2 250.38 157.09 264.72 146.16 261.64 131.14"/><polygon class="cls-19" points="221.71 114.78 217.26 135.92 230.47 149.65 229.55 132.5 221.71 114.78"/><polygon class="cls-18" points="195.75 119.87 221.71 114.78 223.11 107.3 218.62 99.03 208.25 105.62 195.75 119.87"/><polygon class="cls-3" points="306.09 69.96 295.25 92.91 291.78 121.68 298.95 116.53 305.48 114.96 312.18 111.67 311.15 75.48 310.39 70.91 306.09 69.96"/><polygon class="cls-10" points="299.04 92.2 305.48 114.96 291.78 121.68 293.72 112.82 298.48 110.39 296.72 103.85 299.04 92.2"/><polygon class="cls-24" points="306.09 69.96 287.94 135.58 261.64 131.14 248.21 152.01 242.87 162.55 237.31 144.11 218.62 99.03 252.75 67.93 288.62 50.9 306.09 69.96"/><polygon class="cls-29" points="281.72 54.17 306.25 70.13 297.6 56.74 288.62 48.08 282.69 49.76 281.72 54.17"/><polygon class="cls-25" points="275.24 99.67 270.71 79.25 265.4 69 279.06 68.65 279.41 74.81 275.24 99.67"/><polygon class="cls-25" points="285.23 75.88 288.62 70.7 300.23 76.51 282.24 92.44 285.23 75.88"/><polygon class="cls-29" points="280.75 100.72 277.17 104.04 275.24 99.67 280.75 100.72"/><polygon class="cls-25" points="252.75 67.93 240.22 126.62 250.89 135.58 256.01 144.11 250.38 157.09 242.87 162.55 230.47 149.65 221.71 114.78 223.11 107.3 218.62 99.03 252.75 67.93"/><polygon class="cls-30" points="285.23 75.88 280.75 100.72 275.24 99.67 279.41 74.81 285.23 75.88"/><polygon class="cls-29" points="252.75 67.93 240.26 88.44 227.89 96.35 240.82 101.43 221.71 114.78 218.62 99.03 231.06 85.48 252.75 67.93"/><polygon class="cls-18" points="288.62 70.7 296.47 69.34 300.23 76.51 288.62 70.7"/><polygon class="cls-18" points="279.06 68.65 273.25 64.9 265.4 69 279.06 68.65"/><polygon class="cls-20" points="290.25 114.06 273.09 124.62 257.05 108.21 290.25 114.06"/><polygon class="cls-31" points="285.97 114.36 275.24 114.73 261.22 109.82 270.39 118.3 276.94 119.4 285.97 114.36"/><polygon class="cls-32" points="290.25 114.06 276.19 109.45 257.05 108.21 275.24 115.24 290.25 114.06"/><polygon class="cls-10" points="239.89 79.65 240.82 101.43 213.27 103.91 220.07 96.36 235.01 95.63 234.02 83.65 239.89 79.65"/><polygon class="cls-29" points="261.64 131.14 230.74 124.62 256.01 144.11 261.64 131.14"/><polygon class="cls-3" points="252.75 67.93 213.27 81.57 186.53 99.38 195.75 119.87 252.75 67.93"/><polygon class="cls-3" points="250.38 60.71 226.14 31.09 184.14 69 250.38 60.71"/><polygon class="cls-3" points="184.14 69 166.73 85.38 186.53 99.38 188.17 81.57 184.14 69"/><polygon class="cls-2" points="288.62 50.9 288.62 44.9 280.77 31.44 226.14 31.09 243.54 58.71 288.62 50.9"/><polygon class="cls-1" points="288.62 50.9 311.15 75.48 323.45 60.46 280.77 31.44 288.62 50.9"/><polygon class="cls-1" points="288.62 50.9 186.53 99.38 184.14 69 288.62 50.9"/><path class="cls-33" d="M295.74,86.07a3.54,3.54,0,1,1-3.54-3.53A3.54,3.54,0,0,1,295.74,86.07Z"/><path class="cls-33" d="M272.86,81a3.53,3.53,0,1,1-3.53-3.54A3.53,3.53,0,0,1,272.86,81Z"/><polygon class="cls-1" points="249.97 254.7 240.1 281.51 212.79 279.86 210.76 252.48 220.23 253.02 223.47 255 229.01 253.49 236.32 253.91 238.13 255.2 244.63 254.39 249.97 254.7"/><polygon class="cls-3" points="229.01 253.49 223.06 280.6 217.22 280.1 220.25 253.02 229.01 253.49"/><polygon class="cls-3" points="244.69 254.39 236.42 281.31 230.57 280.95 236.32 253.91 244.69 254.39"/><polygon class="cls-26" points="301.65 296.24 288.64 307.13 280.61 301 278.93 289.27 285.65 285.57 294.31 285.79 301.65 296.24"/><polygon class="cls-27" points="278.93 289.5 287.37 285.19 294.43 285.75 279.99 296.6 278.93 289.5"/><polygon class="cls-23" points="313.26 304.77 310.5 294.55 295.53 296.25 290.29 304.17 280.61 301 282.52 311.88 313.26 304.77"/><polygon class="cls-18" points="297.08 274.28 296.6 274.08 273.22 283.2 277.39 292.31 298.46 284.25 297.08 274.28"/><polygon class="cls-1" points="294.44 245.86 297.08 274.28 273.22 283.2 260.43 258.9 294.44 245.86"/><polygon class="cls-3" points="268.39 255.83 278.9 281.11 273.22 283.2 260.43 258.9 268.39 255.83"/><polygon class="cls-3" points="287.87 248.25 292.91 276.06 285.96 278.58 277.21 252.44 287.87 248.25"/><polygon class="cls-34" points="281.38 187.66 286.71 181.52 284.39 198.32 305.52 210.57 306.45 223.11 285.62 218.63 279.68 222.25 275.63 221.97 263.25 221.17 279.58 195.56 281.38 187.66"/><polygon class="cls-35" points="263.75 209.67 272.36 217.93 271.1 221.14 285.19 220.98 279.89 223.29 276.26 225.38 272.02 226.97 246.31 224.98 230.49 215.5 219.78 198.08 225.55 198.02 263.75 209.67"/><polygon class="cls-34" points="240.72 213.59 246.31 224.98 236.21 224.47 235.74 218.59 240.72 213.59"/><polygon class="cls-26" points="219.58 196.43 219.91 197.91 234.49 212.65 220.34 223.99 193.77 214.69 195.83 207.57 206.54 198.26 213.3 197.99 219.58 196.43"/><polygon class="cls-36" points="223.73 210.09 240.72 213.59 236.27 224.39 220.34 223.99 223.73 210.09"/><polygon class="cls-34" points="226.31 215.4 233.45 216.89 225.01 220.3 226.31 215.4"/><polygon class="cls-23" points="193.03 173.6 208.07 171.64 220.31 185.23 219.91 197.91 193.77 214.69 186.66 196.3 193.03 173.6"/><polygon class="cls-26" points="237.52 141.09 218.97 141.95 207.25 151.17 202.23 162.62 208.07 171.64 213.52 171.16 238.12 145.3 237.52 141.09"/><polygon class="cls-23" points="221.7 133.17 233.72 136.2 237.52 141.09 207.25 151.17 200.21 155.27 194.74 151.8 221.7 133.17"/><polygon class="cls-37" points="186.66 196.3 194.74 151.8 207.25 151.17 208.07 171.64 186.66 196.3"/><polygon class="cls-37" points="240.97 134.04 244.57 140.95 237.52 141.09 221.7 133.17 240.97 134.04"/><polygon class="cls-26" points="255.83 153.06 240.97 134.04 237.52 141.09 238.12 145.3 251.75 152.58 255.83 153.06"/><polygon class="cls-36" points="291.84 168.29 272.36 217.93 219.91 197.91 208.07 171.64 237.52 141.09 291.84 168.29"/><polygon class="cls-35" points="247.82 151.84 243.74 159.25 242.77 166.39 245.69 169.93 252.02 173.6 261.04 174.56 250.65 162.77 247.82 151.84"/><polygon class="cls-35" points="243.38 174.74 250.2 176.57 257.05 183.1 241.12 183.73 230.26 189.52 234.32 179.91 239.04 175.56 243.38 174.74"/><path class="cls-33" d="M243.58,184.94a2.57,2.57,0,1,1-1.3-3.44A2.61,2.61,0,0,1,243.58,184.94Z"/><polygon class="cls-37" points="247.82 151.84 242.96 157.53 240.49 164.81 242.77 166.39 247.82 151.84"/><polygon class="cls-37" points="236.22 174.9 239.04 175.56 230.26 189.52 232.02 181.88 236.22 174.9"/><polygon class="cls-34" points="261.04 174.56 257.85 177.95 257.05 183.1 262.59 180.8 261.04 174.56"/><polygon class="cls-38" points="245.69 169.93 243.38 174.74 257.05 183.1 261.04 174.56 245.69 169.93"/><path class="cls-33" d="M253,163.87a2.57,2.57,0,1,1-1.29-3.45A2.61,2.61,0,0,1,253,163.87Z"/><polygon class="cls-34" points="260.37 196 271.28 170.84 278.59 180.77 273.29 194.02 260.37 196"/><polygon class="cls-31" points="264.26 192.56 271.61 175.69 273.62 178.22 267.57 192.06 264.26 192.56"/><polygon class="cls-11" points="290.42 211.19 271.79 234.02 280.14 249.55 350.57 234.26 353.48 195.33 292.09 192.91 287.73 195.81 290.42 211.19"/><polygon class="cls-12" points="290.42 211.19 271.79 234.02 277.13 252.42 349.27 254.78 350.57 234.26 343.46 217.94 290.42 211.19"/><polygon class="cls-12" points="290.42 211.19 290.42 211.19 284.39 198.32 287.73 195.81 310.77 201.28 290.42 211.19"/><polygon class="cls-11" points="290.42 211.19 301.3 225.94 271.79 234.02 268.51 226.72 290.42 211.19 290.42 211.19"/><polygon class="cls-35" points="318.21 244.63 325.04 221.93 343.83 189.58 348.31 190.95 356.75 198.08 350.57 234.26 318.21 244.63"/><polygon class="cls-19" points="325.04 221.93 277.21 252.44 326.75 257.25 350.57 234.26 325.04 221.93"/><polygon class="cls-25" points="200.38 206.38 209 197.5 221.63 204.75 217.63 222.88 206.63 223 200.38 206.38"/><polygon class="cls-25" points="193.63 198.13 205.38 188.5 209.25 191.5 203.63 204.25 202.85 217.85 193.63 198.13"/><polygon class="cls-24" points="182.88 208 193.63 198.13 209 197.5 206.63 223 188.75 215.13 182.88 208"/><polygon class="cls-10" points="193.63 198.13 163 173.25 152.38 204.5 188.75 215.13 193.63 198.13"/><polygon class="cls-35" points="348.25 193.81 343.75 189.75 342.99 174.31 348.09 173.41 350.62 183.38 352.03 173.87 359.69 162.31 372.19 171.19 368.87 187.25 348.25 193.81"/><polygon class="cls-36" points="343.75 189.75 352.03 173.87 368.87 187.25 356.75 198.08 343.75 189.75"/><polygon class="cls-3" points="334.79 94.01 347.33 93.32 340.06 115.97 316.2 103.7 334.79 94.01"/><polygon class="cls-1" points="330.01 65.7 316.2 103.7 347.33 93.32 330.01 65.7"/><polygon class="cls-11" points="368.75 111.63 348.05 108.54 344.13 133 368.75 111.63"/><polygon class="cls-16" points="334.37 124.42 340.06 115.97 330.59 111.15 334.37 124.42"/><polygon class="cls-16" points="340.94 144.3 346.24 143.5 344 133.38 340.94 140.29 340.94 144.3"/><polygon class="cls-36" points="329.53 197.35 337.71 194.71 320.09 187.88 306.63 193.5 329.53 197.35"/><polygon class="cls-35" points="306.63 193.5 317.48 202.25 330.02 203.81 337.71 194.71 306.63 193.5"/></g><g id="Layer_7" data-name="Layer 7"><polygon class="cls-20" points="119.72 323.02 117.34 326.78 113.92 325.71 118.84 314.66 119.58 315.37 119.72 323.02"/><polygon class="cls-12" points="119.91 311.29 119.73 316.79 122.04 325.5 117.34 326.78 119.91 311.29"/><polygon class="cls-12" points="118.19 304.88 110.79 307.49 119.73 316.79 126.59 309.93 118.19 304.88"/><polygon class="cls-11" points="119.73 300 110.79 307.49 126.59 309.93 119.73 300"/><polygon class="cls-20" points="149.67 316.95 148.23 319.7 145.75 318.42 149.16 309.24 149.6 309.76 149.67 316.95"/><polygon class="cls-12" points="149.8 306.77 149.69 310.8 151.13 318.25 148.23 319.7 149.8 306.77"/><polygon class="cls-12" points="148.77 302.07 144.29 303.99 149.69 310.8 153.84 305.77 148.77 302.07"/><polygon class="cls-11" points="149.69 298.5 144.29 303.99 153.84 305.77 149.69 298.5"/><polygon class="cls-20" points="191.9 335.51 191.07 338.45 189.25 337.33 191.41 330.19 191.93 330.62 191.9 335.51"/><polygon class="cls-12" points="191.55 327.66 192.2 331.62 194.21 337.58 191.07 338.45 191.55 327.66"/><polygon class="cls-12" points="189.7 323.27 185.88 325.94 192.2 331.62 195.13 325.97 189.7 323.27"/><polygon class="cls-11" points="189.89 319.62 185.88 325.94 195.13 325.97 189.89 319.62"/><polygon class="cls-20" points="296.74 335.92 295.12 339.17 293.06 337.67 295.83 327.97 296.34 328.59 296.74 335.92"/><polygon class="cls-12" points="296.56 325.06 296.44 329.81 298.19 338.08 295.12 339.17 296.56 325.06"/><polygon class="cls-12" points="295.39 319.54 290.36 321.79 296.44 329.81 301.11 323.9 295.39 319.54"/><polygon class="cls-11" points="296.44 315.33 290.36 321.79 301.11 323.9 296.44 315.33"/></g><g id="Layer_11" data-name="Layer 11"><polygon class="cls-12" points="749.5 234.3 738.52 231.98 736.56 247.69 744.02 246.73 749.5 234.3"/><polygon class="cls-10" points="756.88 230.75 738.52 231.98 755.83 245.17 756.88 230.75"/></g></svg>