<svg xmlns="http://www.w3.org/2000/svg" viewBox="0 0 900 350"><defs><style>.cls-1{fill:#c0db8f;}.cls-1,.cls-13,.cls-14,.cls-15,.cls-16,.cls-17,.cls-18,.cls-19,.cls-2,.cls-20,.cls-21,.cls-22,.cls-23,.cls-24,.cls-25,.cls-26,.cls-27,.cls-28,.cls-29,.cls-3,.cls-30,.cls-31,.cls-32,.cls-4,.cls-5,.cls-6,.cls-7,.cls-8,.cls-9{fill-rule:evenodd;}.cls-2{fill:#ececeb;}.cls-11,.cls-3{fill:#54b08b;}.cls-10,.cls-4{fill:#35785e;}.cls-12,.cls-5{fill:#3f8f6f;}.cls-6{fill:#6f9d52;}.cls-7{fill:#738d57;}.cls-8{fill:#99c26c;}.cls-9{fill:#cfcfcd;}.cls-13{fill:#a3a3a3;}.cls-14{fill:#8f8f8f;}.cls-15{fill:#c4c4c4;}.cls-16{fill:#dddddc;}.cls-17{fill:#74c7a5;}.cls-18,.cls-27{fill:#2b2b2b;}.cls-18{opacity:0.1;}.cls-19{fill:#5a753d;}.cls-20{fill:#a0cf7f;}.cls-21{fill:#858686;}.cls-22{fill:#4f5353;}.cls-23{fill:#737474;}.cls-24{fill:#c2987a;}.cls-25{fill:#dfbda5;}.cls-26{fill:#8b6651;}.cls-28{fill:#e9cbb7;}.cls-29{fill:#010101;opacity:0.2;}.cls-30{fill:#474748;}.cls-31{fill:#fff;}.cls-32{fill:#44622d;}</style></defs><title>diplomats_Campaigner_ENFP_parenthood</title><g id="Layer_10" data-name="Layer 10"><polygon class="cls-1" points="875.5 78.5 755.5 18.5 561.5 30.5 355.5 7.5 165.5 34.5 86.5 22.5 13.5 98.5 38.5 216.17 276.07 305.94 698.5 281.5 883.5 237 862.5 154.5 875.5 78.5"/></g><g id="Layer_11" data-name="Layer 11"><polygon class="cls-2" points="416.03 96.52 435.93 62.99 396.86 24.5 346.88 25.07 307.25 50.35 299.2 95.73 344.01 132.5 404.9 115.27 436.5 125.61 416.03 96.52"/><polygon class="cls-3" points="380.88 41.32 369.12 52.5 366.23 67.53 378.18 83.72 403.23 85.84 416.33 73.12 415.95 51.54 399.38 40.74 380.88 41.32"/><polygon class="cls-4" points="390.76 47.29 396.61 46.68 399.76 48.98 400.99 53.52 396.45 57.05 390.69 55.75 388.69 51.06 390.76 47.29"/><polygon class="cls-5" points="391.86 48.94 395.41 48.58 398.52 49.97 399.31 54.8 400.99 53.52 400.03 48.76 396.45 46.03 390.8 46.91 388.69 51.06 389.65 53.41 391.86 48.94"/><polygon class="cls-4" points="397.89 65.89 402.8 62.67 406.66 63.28 409.83 66.75 407.41 71.97 401.69 73.44 397.76 70.19 397.89 65.89"/><polygon class="cls-5" points="399.61 66.86 402.61 64.91 406.01 64.72 408.92 68.65 409.83 66.75 406.79 62.95 402.37 62.16 397.75 65.53 397.76 70.19 399.7 71.83 399.61 66.86"/><polygon class="cls-4" points="376.94 62.75 381.88 60.81 387.62 62.02 389.72 69.22 384.95 72.78 378.24 73.1 374.84 68.65 376.94 62.75"/><polygon class="cls-5" points="376.74 62.44 374.56 68.5 375.41 69.53 378.41 64.07 381.47 62.71 386.63 64.71 388.5 70.2 389.87 69.26 387.78 61.89 381.65 60.38 376.74 62.44"/><polygon class="cls-6" points="326.52 62.99 315.1 70.04 312.91 83.17 321.66 93.62 332.6 93.38 343.3 82.44 341.11 68.1 326.52 62.99"/><polygon class="cls-7" points="315.1 70.04 324.82 79.64 333.94 79.04 338.92 81.47 343.3 82.44 340.26 89.86 332.24 95.08 318.99 94.11 311.45 83.9 315.1 70.04"/><polygon class="cls-8" points="361.72 105.98 350.62 109.33 343.72 121.11 344.01 132.5 384.22 121.2 378.96 110.77 371.58 107.22 361.72 105.98"/><polygon class="cls-6" points="368.35 109.67 365.98 113.4 366.13 117.35 369.36 119.22 371.23 117.78 377.4 119.72 381.28 115.55 379.34 110.38 371.58 107.22 368.35 109.67"/><polygon class="cls-6" points="354.16 119.1 347.27 120.15 345.64 125.7 348.7 127.62 354.45 126.66 356.36 128.1 358.56 127.04 357.99 123.12 354.16 119.1"/><polygon class="cls-2" points="775.27 138.33 774.21 141.18 771.11 142.25 773.85 143.68 771.83 148.08 776.58 144.75 781.22 147.13 778.84 142.01 780.86 140.35 777.3 140.83 775.27 138.33"/><polygon class="cls-2" points="541.03 43.83 539.96 46.69 536.87 47.76 539.61 49.18 537.58 53.58 542.34 50.25 546.98 52.63 544.6 47.52 546.62 45.85 543.05 46.33 541.03 43.83"/><polygon class="cls-2" points="712.71 93.95 712.06 95.68 710.2 96.33 711.85 97.19 710.63 99.84 713.5 97.83 716.3 99.27 714.87 96.18 716.09 95.17 713.93 95.46 712.71 93.95"/><polygon class="cls-2" points="792.18 86.94 791.53 88.66 789.66 89.31 791.32 90.17 790.09 92.83 792.97 90.82 795.77 92.26 794.33 89.17 795.55 88.16 793.4 88.45 792.18 86.94"/><polygon class="cls-2" points="647.11 69.19 646.96 72.23 644.34 74.19 647.38 74.72 646.79 79.53 650.31 74.91 655.45 75.77 651.63 71.62 653.05 69.42 649.8 70.95 647.11 69.19"/><polygon class="cls-2" points="733.64 43.31 733.9 44.99 732.69 46.35 734.41 46.3 734.63 48.99 736.03 46.07 738.94 45.96 736.38 44.12 736.91 42.76 735.3 43.97 733.64 43.31"/><polygon class="cls-2" points="64.91 95.82 65.17 97.5 63.96 98.87 65.68 98.81 65.9 101.5 67.3 98.58 70.21 98.47 67.65 96.64 68.18 95.27 66.57 96.48 64.91 95.82"/><polygon class="cls-2" points="366.06 180.97 366.23 182.06 365.44 182.94 366.56 182.91 366.7 184.65 367.61 182.76 369.49 182.69 367.83 181.5 368.17 180.62 367.14 181.4 366.06 180.97"/><polygon class="cls-2" points="560.1 162.98 560.34 164.59 559.19 165.89 560.83 165.84 561.04 168.41 562.38 165.62 565.16 165.51 562.72 163.76 563.22 162.46 561.69 163.61 560.1 162.98"/><polygon class="cls-2" points="323.72 129.32 322.19 131.96 318.97 132.5 321.43 134.36 318.71 138.37 323.95 135.87 328.13 138.98 326.63 133.54 328.9 132.23 325.3 132.11 323.72 129.32"/><polygon class="cls-2" points="414.57 153.43 412.85 154.95 410.41 154.57 411.73 156.49 408.82 158.7 413.17 158.17 415.41 161.39 415.64 157.15 417.58 156.75 415.03 155.81 414.57 153.43"/><polygon class="cls-2" points="290.32 45.62 288.04 45.91 286.24 44.22 286.25 46.55 282.6 46.74 286.5 48.75 286.54 52.68 289.12 49.29 290.94 50.06 289.37 47.84 290.32 45.62"/><polygon class="cls-2" points="110.92 47.37 109.39 50.01 106.17 50.56 108.63 52.41 105.91 56.42 111.15 53.92 115.33 57.03 113.83 51.59 116.1 50.28 112.5 50.17 110.92 47.37"/><polygon class="cls-9" points="344.65 48.33 343.59 49.24 342.18 48.93 342.86 50.29 341.67 51.87 343.69 51.19 344.49 52.58 344.77 50.98 346.22 50.28 344.84 49.76 344.65 48.33"/><polygon class="cls-9" points="401.46 103.56 401.82 105.89 400.06 107.36 402.69 107.94 403.9 111.14 404.78 107.82 407.56 108.27 405.46 106.21 405.78 103.6 403.73 104.82 401.46 103.56"/><polygon class="cls-9" points="350.02 83.07 350.64 86.15 348.33 88 351.93 88.91 353.75 93.19 354.76 88.86 358.55 89.61 355.6 86.78 355.88 83.36 353.18 84.86 350.02 83.07"/><polygon class="cls-9" points="333.74 107.56 333.86 108.94 332.78 109.9 334.29 110.15 334.87 112.04 335.5 110 337.09 110.17 335.95 109 336.24 107.42 335.01 108.23 333.74 107.56"/><polygon class="cls-9" points="375.99 33.06 376.11 34.44 375.03 35.4 376.54 35.65 377.11 37.54 377.75 35.5 379.34 35.67 378.2 34.5 378.49 32.91 377.26 33.73 375.99 33.06"/></g><g id="Layer_18" data-name="Layer 18"><polygon class="cls-10" points="721.5 157 751.5 150 781 173 712.5 177.5 721.5 157"/><polygon class="cls-11" points="656 173.5 659 147.5 686 132 718 145.5 751.5 150 734 164.5 674 179.5 656 173.5"/><polygon class="cls-12" points="656 173.5 659 147.5 686 132 718 145.5 680.5 161.5 674 179.5 656 173.5"/><polygon class="cls-10" points="583.5 183.5 522.5 197 507.5 228.5 642 228 583.5 183.5"/><polygon class="cls-10" points="615.5 168 618.13 158.25 650.33 152.33 659 147.5 680.5 161.5 609 183 615.5 168"/><polygon class="cls-10" points="652 175.5 680.5 161.5 697 169.25 734 164.5 725.5 204.5 657.5 206 652 175.5"/><polygon class="cls-11" points="602.5 173 630.5 160 654.5 168 680.5 161.5 665.5 179.5 600 201.5 602.5 173"/><polygon class="cls-10" points="557.5 192.5 560 185.5 608.5 160.5 609.5 193 575.5 209 557.5 192.5"/><polygon class="cls-10" points="619.5 194 594.5 207 668 238 671.5 213 636 183.5 619.5 194"/><polygon class="cls-11" points="578 202.5 579.5 199.5 560 185.5 522.5 197 578 202.5"/><polygon class="cls-11" points="631.5 187.5 665.5 179.5 671.5 191 656.5 215.5 644.36 201.91 631.5 187.5"/><polygon class="cls-12" points="526 197.5 561.83 195.83 579.5 199.5 620.5 180 665.5 179.5 579 224 526 197.5"/></g><g id="Layer_9" data-name="Layer 9"><polygon class="cls-13" points="837.5 230 883.5 237 899.83 274.17 824.5 268.5 837.5 230"/><polygon class="cls-14" points="791 257.5 805 224 842.17 246.5 845 265 791 257.5"/><polygon class="cls-15" points="809.5 227.17 846 208.5 883.5 237 842.17 246.5 817.69 238.19 809.5 227.17"/><polygon class="cls-14" points="802.5 170.5 828.83 182.17 846 208.5 817.69 238.19 778.5 192.5 802.5 170.5"/><polygon class="cls-15" points="762.83 191.83 734.83 164.83 802.17 164.5 828.83 182.17 799.17 191.83 762.83 191.83"/><polygon class="cls-14" points="757.17 189.5 799.17 191.83 825.83 222.17 817.88 238.13 764.83 243.17 757.17 189.5"/><polygon class="cls-16" points="728.17 186.5 734.83 164.83 799.17 191.83 782.83 226.5 735.5 212.5 728.17 186.5"/><polygon class="cls-15" points="782.83 226.5 734.17 198.74 757.83 251.5 792.5 246.83 782.83 226.5"/><polygon class="cls-13" points="711 197.5 711.67 185.55 734.83 164.83 734.17 198.74 711 197.5"/><polygon class="cls-15" points="714.17 196.83 734.17 198.74 771.25 234.5 724.5 259.17 693.17 220.17 714.17 196.83"/><polygon class="cls-16" points="696.92 251.5 671.32 191.76 711.67 185.55 734.17 198.74 729.75 214.75 696.92 251.5"/><polygon class="cls-4" points="101.83 135.67 72.67 131.83 74.67 177.33 82.25 191.5 101.83 135.67"/><polygon class="cls-5" points="47.61 169 73.79 161.68 82.25 191.5 75.5 199.17 44.19 176.51 47.61 169"/><polygon class="cls-3" points="29.25 199.25 41.18 153.82 73.79 161.68 29.25 199.25"/><polygon class="cls-17" points="106.92 120.58 124.42 156.58 72.67 131.83 106.92 120.58"/><polygon class="cls-13" points="668.99 235.21 644.17 218.14 671.32 191.76 729.75 214.75 744.5 240 668.99 235.21"/></g><g id="Layer_8" data-name="Layer 8"><polygon class="cls-13" points="265.83 195.83 276.5 183.83 309 206 316.5 223.5 273.5 230 265.83 195.83"/><polygon class="cls-9" points="266.83 214.67 275.83 200.83 276.5 183.83 224.5 183 243 208.67 266.83 214.67"/><polygon class="cls-15" points="97.83 183.5 96.5 164.17 133.17 158.17 159.84 162.68 114.5 199.5 97.83 183.5"/><polygon class="cls-13" points="105.83 182.83 125.83 179.5 159.84 162.68 172.5 235.5 95.17 238.83 105.83 182.83"/><polygon class="cls-14" points="83.83 210.83 82.5 190.83 96.5 164.17 125.83 179.5 123.83 217.5 83.83 210.83"/><polygon class="cls-14" points="97.83 236.83 123.83 217.5 146.4 214.65 191.83 232.83 125.83 258.83 97.83 236.83"/><polygon class="cls-13" points="65.83 211.5 82.5 190.83 123.83 217.5 139.21 244.96 57.17 275.5 46.5 237.5 65.83 211.5"/><polygon class="cls-15" points="43.17 238.17 38.5 216.17 82.5 190.83 123.83 217.5 66.5 234.83 43.17 238.17"/><polygon class="cls-14" points="38.5 216.17 0.5 264.75 73.17 290.83 66.5 234.83 38.5 216.17"/><polygon class="cls-14" points="239.83 208.83 275.83 200.83 293.17 238.17 235.83 246.83 239.83 208.83"/></g><g id="Layer_7" data-name="Layer 7"><polygon class="cls-15" points="658.5 308.5 790.33 342 831.5 330.5 899.83 274.17 702.97 230.62 607.5 209.5 658.5 308.5"/><polygon class="cls-9" points="412.5 289.5 511.25 220.5 607.5 209.5 723 283.5 791 342 580.83 338.67 412.5 289.5"/><polygon class="cls-16" points="306.5 243.5 353.5 213.5 459.83 227 580.83 338.67 248.5 349.5 306.5 243.5"/><polygon class="cls-2" points="0.5 264.75 353.5 213.5 248.5 349.5 96 337.5 0.5 264.75"/></g><g id="Layer_12" data-name="Layer 12"><polygon class="cls-18" points="51.17 303.5 207.5 266 276.83 306.5 217.83 321.5 82.5 327.5 51.17 303.5"/><polygon class="cls-18" points="651 302.5 521.54 284 434 304.5 381.75 296 329.75 307.75 381 322.5 430.75 314 530.5 330 651 302.5"/><polygon class="cls-18" points="745.5 320.5 698.5 330.5 666.5 319.5 753.5 291 794.5 283 824.5 314 800.5 335 745 333 745.5 320.5"/></g><g id="Layer_16" data-name="Layer 16"><polygon class="cls-19" points="345.67 291.5 350.81 299.74 365.29 305.25 356.81 312.81 336.33 306.5 345.67 291.5"/><polygon class="cls-7" points="357.83 273.83 351.17 259.5 336.33 306.5 350.81 299.74 357.83 273.83"/><polygon class="cls-8" points="410.27 257.17 416.79 263.04 425 307 381.15 315.42 362.46 268.26 410.27 257.17"/><polygon class="cls-18" points="410.27 257.17 416.79 263.04 403.5 275.67 378.56 286.56 362.46 268.26 410.27 257.17"/><polygon class="cls-6" points="383.76 254.13 367.68 248.26 351.17 259.5 355.72 284.99 356.81 312.81 381.15 315.42 377.24 274.56 383.76 254.13"/><polygon class="cls-20" points="367.68 248.26 414.62 243.05 422.01 265.21 403.5 275.67 377.24 274.56 367.68 248.26"/><polygon class="cls-8" points="363.22 295.73 359.13 293.66 359.39 307.32 374.63 308.95 375.37 293.92 363.22 295.73"/><polygon class="cls-20" points="359.13 293.66 375.37 293.92 367.1 299.87 359.13 293.66"/><polygon class="cls-8" points="396.83 254 395.58 261.58 401.67 265.08 402.67 258.08 396.83 254"/></g><g id="Layer_2" data-name="Layer 2"><polygon class="cls-21" points="202 308.5 218 304 236.75 295.75 240.5 271.25 221.38 261.63 200.88 267.88 202 308.5"/><polygon class="cls-14" points="147.5 255.83 145.83 250.5 139 244.65 124.5 294.5 155.33 308.17 165.5 283.5 147.5 255.83"/><polygon class="cls-13" points="154.17 258.17 143.83 263.17 155.33 308.17 188.83 308.67 203.83 270.5 154.17 258.17"/><polygon class="cls-9" points="167.5 253 158.84 241.88 139 244.65 143.83 263.17 183.85 269.12 209 258.25 167.5 253"/></g><g id="Layer_3" data-name="Layer 3"><polygon class="cls-21" points="566.83 283.67 587.83 311.17 617.83 303.17 603.75 292.5 566.83 283.67"/><polygon class="cls-22" points="567.33 289.17 561.75 293 550.67 302.5 587.83 311.17 587.25 299.5 567.33 289.17"/><polygon class="cls-14" points="593.17 218.83 592.83 246.83 603.75 292.5 587.25 299.5 566.17 248.83 579.17 222.83 593.17 218.83"/><polygon class="cls-13" points="616.83 149.83 630.5 160.17 592.83 246.83 576 247.5 577.17 235.17 614.83 163.5 616.83 149.83"/><polygon class="cls-15" points="577.17 102.5 630.5 160.17 620.5 160 592.83 133.83 567.83 106.17 577.17 102.5"/><polygon class="cls-23" points="571 234 561.5 246 561.75 293 587.25 299.5 576 247.5 571 234"/><polygon class="cls-21" points="608 151.5 608 161 561.5 246 576 247.5 620.5 160 608 151.5"/><polygon class="cls-14" points="574.25 106 620.5 160 608 161 567.33 110.67 574.25 106"/><polygon class="cls-13" points="565.79 102.33 568.79 112.5 585.79 107.17 584.46 86.5 565.79 102.33"/><polygon class="cls-8" points="508.75 300.58 526.5 304.79 526.58 308.96 492.25 308.58 492.33 304.23 508.75 300.58"/><polygon class="cls-7" points="502.75 285.75 511.33 292.42 526.5 304.79 492.33 304.23 492.25 292.67 502.75 285.75"/><polygon class="cls-8" points="469.46 303.67 458.58 310.58 458.75 314.58 488.96 315.04 489.21 311.04 469.46 303.67"/><polygon class="cls-7" points="468.17 286 461.5 296.33 458.58 310.58 489.17 310.83 480.38 296.63 468.17 286"/><polygon class="cls-22" points="503.92 258 511.69 266.44 511.33 292.42 492.25 292.67 488.17 272.5 486.5 265.33 503.92 258"/><polyline class="cls-23" points="494.75 203.75 511.25 220.5 511.69 266.44 487.75 271.25 481.25 222 493.75 203.5"/><polygon class="cls-23" points="468.5 255.5 460.5 268 461.5 296.33 480.38 296.63 488.42 271.17 468.5 255.5"/><polygon class="cls-21" points="474.5 209.83 459.83 227 460.5 268 488.42 271.33 495.83 249.5 474.5 209.83"/><polygon class="cls-22" points="463.17 213.83 459.83 227 495.83 249.5 511.25 220.5 463.17 213.83"/><polygon class="cls-24" points="532.5 109.03 532.74 103.8 552.42 103 545.57 114.55 534.85 119.49 532.5 109.03"/><polygon class="cls-24" points="420.79 226.69 428.32 225.1 432.2 238.1 428.09 240.61 421.02 229.89 420.79 226.69"/><polygon class="cls-24" points="416.45 226.92 405.73 235.36 405.5 249.51 417.59 251.79 423.3 239.47 416.45 226.92"/><polygon class="cls-25" points="422.84 213.46 415.31 221.67 405.73 235.36 423.3 239.47 428.32 225.1 422.84 213.46"/><polygon class="cls-24" points="439.5 184.25 420.88 195 415.31 221.67 428.32 225.1 439.17 209.5 439.5 184.25"/><polygon class="cls-25" points="432.5 189.25 423.5 191.25 420.88 195 439.17 209.5 432.5 189.25"/><polygon class="cls-24" points="518 161.44 522.13 144.75 526.17 143.54 535.88 148.96 541.33 162.83 523.21 171.79 518 161.44"/><polygon class="cls-5" points="501.13 161.38 504.88 149.63 522.13 144.75 530 176.5 511.63 187.13 501.13 161.38"/><polygon class="cls-5" points="457.17 180.17 439.83 166.83 423.5 191.25 441.83 212.17 454 201.17 457.17 180.17"/><polygon class="cls-3" points="469 183.5 493 224 511.25 220.5 511.63 187.13 469 183.5"/><polygon class="cls-5" points="459.5 182 491.17 192 493 224 459.83 227 454 201.17 459.5 182"/><polygon class="cls-3" points="496.17 175.17 491.17 192 454 201.17 439.83 166.83 449.25 163.5 483.83 156.17 496.17 175.17"/><polygon class="cls-17" points="473.5 153.17 489.25 153 504.88 149.63 511.63 187.13 491.17 192 483.74 164.04 473.5 153.17"/><polygon class="cls-2" points="481.88 153.25 483.74 164.04 500.25 170.25 488 148.88 481.88 153.25"/><polygon class="cls-2" points="482.38 154.88 483.74 164.04 474.25 180.63 449.25 163.5 451.75 155.5 482.38 154.88"/><polygon class="cls-24" points="445.87 101.91 447.02 138.6 451.75 155.5 483.74 164.04 470.14 81.53 445.87 101.91"/><polygon class="cls-23" points="467.56 72.06 442.69 71.56 430.61 100.91 439.06 111.97 450.58 113.45 451.83 120.49 461.23 118.36 456.77 103.72 461.53 97.31 467.56 72.06"/><polygon class="cls-21" points="501.32 68.44 501.55 56.75 466.58 56.81 442.69 71.56 461.53 97.31 500.85 80.16 501.32 68.44"/><polygon class="cls-21" points="508.2 71.77 521.01 73.29 519.92 91.25 509.42 106.09 508.2 71.77"/><polygon class="cls-13" points="494.07 85.25 512.37 83.05 521.01 73.29 501.55 56.75 492.84 74.6 494.07 85.25"/><polygon class="cls-26" points="498.54 139 483.74 164.04 462.37 150.88 473.06 147.41 498.54 139"/><polygon class="cls-25" points="461.53 97.31 473.06 147.41 521.25 139.75 512.37 83.05 492.84 74.6 461.53 97.31"/><polygon class="cls-26" points="456.48 124.47 444.07 128.31 447.02 138.6 456.48 124.47"/><polygon class="cls-26" points="444.36 114.26 448.19 113.14 449.87 121.36 444.36 114.26"/><polygon class="cls-25" points="439.06 111.97 451.44 108.55 456.48 124.47 444.07 128.31 439.06 111.97"/><polygon class="cls-26" points="443.15 114.97 449.2 113.26 451.09 121.64 443.15 114.97"/><polygon class="cls-24" points="474.35 100.22 487.5 103.03 488.87 105.55 492.23 108.69 496.55 104.66 498.87 99.67 503.26 92.43 507.29 94.71 507.62 97.32 499.6 118.85 492.64 115.95 491.36 120.92 471.17 100.58 474.35 100.22"/><path class="cls-27" d="M506.78,104.78a3,3,0,1,1-3.37-2.6A3,3,0,0,1,506.78,104.78Z"/><polygon class="cls-26" points="496.03 114.75 499.6 118.85 495.07 122.98 491.36 120.92 496.03 114.75"/><polygon class="cls-28" points="488.87 105.55 491.36 120.92 499.6 118.85 496.55 104.66 488.87 105.55"/><polygon class="cls-22" points="496.36 97.43 502.78 90.72 509.26 94.41 507.62 97.32 503.42 94.08 498.87 99.67 496.36 97.43"/><polygon class="cls-22" points="487.69 100.37 471.89 97.89 471.17 100.58 488.87 105.55 487.69 100.37"/><polygon class="cls-26" points="484.55 125.89 497.07 128.52 506.63 127.29 495.99 130.62 483.78 128.08 482.33 130.43 480.69 124.5 486.56 123.47 484.55 125.89"/><polygon class="cls-27" points="477.53 109.09 486.52 107.78 486.77 109.72 478.07 110.95 477.53 109.09"/><polygon class="cls-25" points="531.8 119.58 524.17 144.33 541.33 162.83 545.41 119.85 542.5 116.28 531.8 119.58"/><polygon class="cls-21" points="572.54 88.83 512.04 111.08 517.13 113.63 615.58 92.38 609.54 80.58 572.54 88.83"/><polygon class="cls-14" points="555.54 83.08 510.54 105.33 512.04 111.08 604.57 86.57 601.54 64.83 555.54 83.08"/><polygon class="cls-13" points="615.54 61.33 600.21 54.59 512.46 99.75 510.54 105.33 598.81 72.08 615.54 61.33"/><polygon class="cls-13" points="614.34 49.19 600.21 54.59 598.81 72.08 604.57 86.57 615.58 92.38 628.83 87.74 631.57 72.48 626.42 56.27 614.34 49.19"/><polygon class="cls-23" points="615.73 57.59 607.36 60.79 606.52 71.15 609.94 79.75 616.47 83.19 624.32 80.44 625.94 71.39 622.89 61.78 615.73 57.59"/><polygon class="cls-5" points="587.96 68.33 589.83 79.21 589.54 90.83 600.04 95.83 615.58 92.38 604.54 86.54 595.33 80.58 595.83 62.21 587.96 68.33"/><polygon class="cls-3" points="587.96 68.33 582.54 78.08 589.54 90.83 604.54 86.54 598.81 72.08 595.83 62.21 587.96 68.33"/><polygon class="cls-17" points="583.57 63.18 582.54 78.08 598.81 72.08 600.07 54.65 583.57 63.18"/><polygon class="cls-13" points="568.79 112.5 561.96 113 548.96 95.21 551.83 89.96 557.33 92.71 568.79 112.5"/><polygon class="cls-15" points="551.83 89.96 558.71 87.08 569.08 102.33 568.79 112.5 551.83 89.96"/><polygon class="cls-25" points="534.88 129.16 532.61 115.64 527.51 108.51 527.06 100.41 530.94 99.72 533.62 107.28 539.14 109.12 540.16 126.05 534.88 129.16"/><polygon class="cls-7" points="532.61 115.64 545.57 114.55 545.41 119.85 531.49 120.17 532.61 115.64"/></g><g id="Layer_5" data-name="Layer 5"><polygon class="cls-14" points="108.75 294.75 83.5 277 81 310.5 100.75 321 108.75 294.75"/><polygon class="cls-13" points="95.5 280.75 89.5 287.5 100.75 321 132 320 144 281.5 95.5 280.75"/><polygon class="cls-9" points="83.5 277 116 273.5 144 281.5 89.5 288.5 83.5 277"/><polygon class="cls-13" points="781.99 255.92 817.7 238.17 824.33 313.46 801.17 322.83 781.99 255.92"/><polygon class="cls-14" points="800.73 241.92 809.21 249.67 801.17 322.83 735.58 319.96 744.5 239.88 800.73 241.92"/><polygon class="cls-16" points="817.7 238.17 782.83 226.5 744.5 239.88 809.21 249.67 817.7 238.17"/><polygon class="cls-13" points="730.25 304.75 755.5 287 765 321.25 745.08 333.79 730.25 304.75"/><polygon class="cls-14" points="743.5 290.75 749.5 298.5 745.08 333.79 698.71 330.92 703.83 291.79 743.5 290.75"/><polygon class="cls-16" points="755.5 287 723 283.5 703.83 291.79 749.5 298.5 755.5 287"/></g><g id="Layer_15" data-name="Layer 15"><polygon class="cls-6" points="703.33 260 733.67 250.83 739.4 285.27 731.29 284.5 723.08 283.38 703.33 260"/><polygon class="cls-8" points="693 288 699.5 245 733.67 250.83 693 288"/><polygon class="cls-6" points="756.83 271.83 745.5 262.83 739.48 285.31 747.17 286.17 766.83 270.5 756.83 271.83"/><polygon class="cls-8" points="762.5 291.13 745.5 262.83 771.63 265.13 762.5 291.13"/></g><g id="Layer_1" data-name="Layer 1"><polygon class="cls-5" points="219.4 231.28 250.24 242.09 256.45 268.8 247.31 279.02 230.32 279.11 222.06 265.72 199.25 259.28 219.4 231.28"/><polygon class="cls-4" points="209.6 250.83 226.96 256.43 239.47 279.58 230.32 279.11 222.06 265.72 209.98 262.78 209.6 250.83"/><polygon class="cls-4" points="220.15 243.84 234.43 248.88 245.63 275.75 251.78 273.79 241.99 241.32 224.63 233.48 220.15 243.84"/><polygon class="cls-22" points="257.93 289.72 250.56 303.1 236.02 295.55 234.81 287.23 247.93 281.13 257.93 289.72"/><polygon class="cls-29" points="248.46 281.58 236.02 295.55 234.81 287.23 239.09 282.6 248.46 281.58"/><polygon class="cls-21" points="248.41 300.95 236.02 295.55 236.94 305.61 276.07 305.94 275.86 295.11 257.93 289.72 248.41 300.95"/><polygon class="cls-4" points="256.45 268.8 230.32 279.11 234.81 287.23 259.09 278.55 256.45 268.8"/><polygon class="cls-26" points="287.13 136.96 293.14 120.89 302.61 124.21 311.08 131.95 294.18 146.97 287.13 136.96"/><polygon class="cls-25" points="296.96 131.66 291.14 115.65 286.08 115.75 287.13 136.96 290.37 141.61 296.96 131.66"/><polygon class="cls-24" points="293.14 120.89 311.93 111.05 314.31 114.41 299.75 127.19 293.14 120.89"/><polygon class="cls-25" points="295.97 126.63 307.96 120.01 314.44 131.95 302.83 139.3 295.97 126.63"/><polygon class="cls-8" points="247.31 156.21 269.33 154.72 267.27 175.25 237.04 189.81 247.31 156.21"/><polygon class="cls-7" points="259.9 155.47 286.87 133.26 303.39 152.01 267.27 175.25 259.9 155.47"/><polygon class="cls-7" points="224.67 167.82 234.81 199.59 233.59 235.14 219.12 250.46 206.8 248.47 195.35 262.34 174.6 233.21 159.59 230.31 162.04 201.49 178.58 157.47 224.67 167.82"/><polygon class="cls-22" points="208.88 198.5 196.39 232.5 206.8 240.49 217.9 232.85 208.88 198.5"/><polygon class="cls-30" points="217.9 232.85 196.39 232.5 206.8 248.47 217.9 232.85"/><polygon class="cls-30" points="219.83 186.43 208.88 198.5 198.51 184.89 209.92 182.89 219.83 186.43"/><polygon class="cls-19" points="168.28 195.63 168.28 173.94 159.84 162.68 146.4 214.65 167.61 215.56 166.85 202.67 168.28 195.63"/><polygon class="cls-5" points="231.07 156.77 247.31 156.21 237.04 189.81 226.59 201.42 231.07 156.77"/><polygon class="cls-8" points="209.92 182.89 199.23 164.03 178.58 157.47 181.02 197.09 209.92 182.89"/><polygon class="cls-8" points="231.07 156.77 214.28 170.02 209.92 182.89 234.81 199.59 231.07 156.77"/><polygon class="cls-5" points="178.58 157.47 159.84 162.68 168.28 195.63 178.58 157.47"/><polygon class="cls-19" points="223.95 146.85 215.66 158.98 218.56 175.81 231.07 156.77 223.95 146.85"/><polygon class="cls-19" points="180.3 142.68 178.58 157.47 199.07 174.03 193.13 157.62 180.3 142.68"/><polygon class="cls-4" points="156.54 155.26 180.3 142.68 179.47 134.99 172.66 128.27 164.51 137.73 156.54 155.26"/><polygon class="cls-5" points="249.21 74.29 245.4 99.79 250.49 128.8 255.95 121.68 261.84 118.24 267.39 113.07 255.75 78.17 253.66 73.95 249.21 74.29"/><polygon class="cls-8" points="248.88 97.99 261.84 118.24 250.49 128.8 249.77 119.61 253.69 115.85 250.05 110 248.88 97.99"/><polygon class="cls-25" points="249.21 74.29 250.83 143.45 223.95 146.85 217.02 171.1 206.81 177.02 204.1 166.63 172.66 128.27 196.73 87.99 226.61 60.88 249.21 74.29"/><polygon class="cls-26" points="220.87 66.09 249.41 74.41 237.06 63.92 225.78 58.13 220.51 61.52 220.87 66.09"/><polygon class="cls-24" points="227.93 112.25 217.52 93.72 209.34 85.3 222.53 80.96 224.68 86.84 227.93 112.25"/><polygon class="cls-24" points="230.65 86.17 232.43 80.14 245.43 82.38 232.62 103.16 230.65 86.17"/><polygon class="cls-26" points="233.6 111.65 231.09 115.93 227.93 112.25 233.6 111.65"/><polygon class="cls-24" points="196.73 87.99 201.79 148.76 214.8 154.33 222.29 161.13 218.56 175.81 209.92 182.89 199.07 174.03 180.3 142.68 179.47 134.99 172.66 128.27 196.73 87.99"/><polygon class="cls-28" points="230.65 86.17 233.6 111.65 227.93 112.25 224.68 86.84 230.65 86.17"/><polygon class="cls-26" points="196.73 87.99 190.61 111.6 180.9 122.93 194.96 124.08 180.3 142.68 172.66 128.27 180.79 111.43 196.73 87.99"/><polygon class="cls-5" points="232.43 80.14 239.67 76.51 245.43 82.38 232.43 80.14"/><polygon class="cls-5" points="222.53 80.96 215.78 79.01 209.34 85.3 222.53 80.96"/><polygon class="cls-7" points="246.75 121.84 233.17 137.15 212.75 125.9 246.75 121.84"/><polygon class="cls-31" points="242.68 123.38 232.36 126.9 217.27 126.25 228.69 131.8 235.38 130.94 242.68 123.38"/><polygon class="cls-32" points="246.75 121.84 231.72 121.49 212.75 125.9 232.51 127.4 246.75 121.84"/><polygon class="cls-8" points="187.66 103.17 194.96 124.08 168.89 134.58 173.29 125.25 187.61 120.14 183.13 108.78 187.66 103.17"/><polygon class="cls-26" points="223.95 146.85 191.98 149.6 222.29 161.13 223.95 146.85"/><polygon class="cls-5" points="196.73 87.99 162.33 112.86 141.56 138.04 156.54 155.26 196.73 87.99"/><polygon class="cls-5" points="192.3 81.66 160.01 59.98 130.3 109.19 192.3 81.66"/><polygon class="cls-5" points="130.3 109.19 118.18 130.25 141.56 138.04 137.92 120.23 130.3 109.19"/><polygon class="cls-17" points="226.61 60.88 224.85 55.04 213.25 44.26 160.01 59.98 185.06 81.72 226.61 60.88"/><polygon class="cls-3" points="226.61 60.88 255.75 78.17 263.3 59.94 213.25 44.26 226.61 60.88"/><polygon class="cls-3" points="226.61 60.88 141.56 138.04 130.3 109.19 226.61 60.88"/><path class="cls-27" d="M243.87,93a3.59,3.59,0,1,1-4.47-2.4A3.59,3.59,0,0,1,243.87,93Z"/><path class="cls-27" d="M220.11,94.74a3.59,3.59,0,1,1-4.47-2.4A3.59,3.59,0,0,1,220.11,94.74Z"/><polygon class="cls-24" points="205.22 216.21 205.03 208.75 217.91 204.64 216.98 211.83 205.22 216.21"/><polygon class="cls-3" points="159.59 230.31 157.91 255.13 183.85 269.12 187.33 282.21 205.69 290.03 215.95 282.94 218.94 250.46 196.39 232.5 180.68 231.52 176.34 234.04 164.37 230.61 159.59 230.31"/><polygon class="cls-16" points="218 188.41 213.01 239.85 250.24 242.09 256.08 191.58 218 188.41"/><polygon class="cls-24" points="209.93 215.14 220.62 209.22 230.88 222.47 224.53 234.6 213.71 232.8 209.93 215.14"/><polygon class="cls-25" points="194.12 214.02 205.03 208.75 220.62 209.22 213.71 232.8 195.93 226.76 194.12 214.02"/><polygon class="cls-8" points="146.4 214.65 196.39 232.5 205.03 208.75 166.85 202.67 146.4 214.65"/><polygon class="cls-5" points="158.84 241.88 191.69 260.54 195.42 284.99 187.33 282.21 183.85 269.12 157.91 255.13 158.84 241.88"/><polygon class="cls-5" points="164.37 230.61 200.83 255.5 203.45 285.17 209.6 284.99 211.47 251.95 180.68 231.52 164.37 230.61"/><polygon class="cls-22" points="211.05 304.04 192.38 311.35 189.14 304.13 191.76 292.1 197.53 289.94 206.12 292.65 211.05 304.04"/><polygon class="cls-29" points="191.76 292.1 199.31 289.94 206.12 292.65 190.2 299.24 191.76 292.1"/><polygon class="cls-21" points="218.43 315.35 218.22 303.69 201.01 301.88 193.58 309.46 189.14 304.13 188.63 315.35 218.43 315.35"/><polygon class="cls-4" points="215.95 282.94 187.33 282.21 188.7 291.94 214.97 292.78 215.95 282.94"/></g></svg>