<svg xmlns="http://www.w3.org/2000/svg" viewBox="0 0 900 350"><defs><style>.cls-1{fill:#c4c4c4;}.cls-2{fill:#cfcfcd;}.cls-3{fill:#ececeb;}.cls-4{fill:#dddddc;}.cls-5{fill:#a3a3a3;}.cls-6{fill:#858686;}.cls-26,.cls-7{fill:#2b2b2b;}.cls-7{opacity:0.1;}.cls-8{fill:#738d57;}.cls-9{fill:#6f9d52;}.cls-10{fill:#99c26c;}.cls-11{fill:#3f8f6f;}.cls-12{fill:#35785e;}.cls-13{fill:#54b08b;}.cls-14{fill:#6f7273;}.cls-15{fill:#737474;}.cls-16{fill:#c2987a;}.cls-17{fill:#8b6651;}.cls-18{fill:#dfbda5;}.cls-19{fill:#5a753d;}.cls-20{fill:#e9cbb7;}.cls-21{fill:#fff;}.cls-22{fill:#c0db8f;}.cls-23{fill:#474748;}.cls-24{fill:#74c7a5;}.cls-25{fill:#44622d;}.cls-27{fill:#4f5353;}.cls-28{fill:#f5cbb3;}.cls-29{fill:#fde4d5;}.cls-30{fill:#c1907c;}.cls-31{fill:none;}.cls-32{fill:#fff0e9;}.cls-33{fill:#d1af96;}.cls-34{fill:#efd3c2;}.cls-35{fill:#a9846c;}.cls-36{fill:#f7e6dc;}.cls-37{fill:#a0cf7f;}.cls-38{fill:#185e60;}</style></defs><title>diplomats_Campaigner_ENFP_conclusion</title><g id="background"><polygon class="cls-1" points="612.8 226.21 623.05 210.83 632.3 222.08 630.55 240.08 612.8 226.21"/><polygon class="cls-1" points="533.67 220.46 553.38 198.58 562.72 203 569.97 227.5 533.67 220.46"/><polygon class="cls-1" points="476.88 207.17 501.36 197.71 507.3 201.96 507.42 219.9 476.88 207.17"/><polygon class="cls-2" points="435.38 204.67 446.55 191.96 455.17 196.33 454.63 214.42 435.38 204.67"/><polygon class="cls-2" points="387.97 203.08 397.92 188.71 406.42 192.65 406.49 211.33 387.97 203.08"/><polygon class="cls-1" points="341.72 197.33 352.63 187.67 365.13 193.5 366.63 209.83 346.8 206.5 341.72 197.33"/><polygon class="cls-1" points="299.22 205.75 305.13 193.5 317.63 196.83 318.8 210.17 299.22 205.75"/><polygon class="cls-1" points="258.3 204.17 263.3 198 272.8 200.17 272.13 212.5 260.8 210.33 258.3 204.17"/><polygon class="cls-1" points="207.3 211.92 215.55 203.02 230.8 205.02 233.3 225.21 209.3 222.5 207.3 211.92"/><polygon class="cls-2" points="169.13 212.58 170.8 209.67 183.05 212 183.55 226.67 166.13 219.83 169.13 212.58"/><polygon class="cls-2" points="132.3 183.17 137.63 180.33 145.47 183.83 145.22 194.08 135.05 191.42 132.3 183.17"/><polygon class="cls-2" points="519.8 223.33 522.17 199.46 553.38 198.5 553.67 221.96 586.05 213.83 587.3 207.46 623.3 210.33 620.47 239.33 644.47 238.33 650.3 223 684.22 232.33 672.13 253 519.8 223.33"/><polygon class="cls-3" points="139.13 235.83 121.3 193 121.88 185.5 138.47 187.33 137.97 198.08 153.13 229.58 151.3 213.58 170.8 209.67 170.88 225.92 196.38 221.33 197.24 205.27 215.55 203.02 215.67 211.46 196.63 241.33 139.13 235.83"/><polygon class="cls-2" points="477.13 228 501.17 208.83 527.13 203.83 587.38 207.42 585.88 213.92 495.8 293.33 477.13 228"/><polygon class="cls-4" points="292.13 214.33 352.3 198.33 500.92 208.83 492.05 242.65 312.47 252.33 292.13 214.33"/><polygon class="cls-2" points="210.8 217.67 215.67 211.46 352.3 198.33 351.22 226.37 198.13 258.67 210.8 217.67"/><polygon class="cls-3" points="221.47 246.67 150.13 238.33 119.13 210 141.97 222.33 215.67 211.46 216.47 239.33 221.47 246.67"/><polygon class="cls-2" points="241.47 314.67 218.05 239.08 119.13 210 79.13 216.33 66.13 228.67 94.8 299.33 241.47 314.67"/><polygon class="cls-2" points="533.47 306.67 584.8 221 672.63 240.67 666.13 290.67 533.47 306.67"/><polygon class="cls-3" points="474.05 261.33 492.05 242.65 586.55 207.58 609.8 281.33 482.8 276.83 474.05 261.33"/><polygon class="cls-2" points="332.55 248.08 351.22 226.38 492.05 242.65 475.47 307.33 332.8 304.67 332.55 248.08"/><polygon class="cls-4" points="331.05 291.58 337.3 262.33 351.22 226.37 218.05 239.08 202.8 251.33 331.05 291.58"/><polygon class="cls-2" points="598.8 278.67 656.97 262.17 698.42 221.58 838.3 244.33 828.13 296.67 875.47 309.17 768.13 350.67 600.13 334.67 598.8 278.67"/><polygon class="cls-5" points="653.13 250 698.42 221.58 806.55 247.33 828.55 270.58 786.3 275.08 742.3 290 653.13 250"/><polygon class="cls-6" points="742.3 290.17 758.8 246.67 790.13 221 887.72 224.83 895.09 257.83 776.97 288.08 742.3 290.17"/><polygon class="cls-4" points="698.42 221.58 780.8 206.83 887.71 224.83 806.86 247.33 758.63 246.5 698.42 221.58"/><polygon class="cls-4" points="339.47 320.67 337.33 262.37 653.63 250 600.13 334.67 396.13 349.33 339.47 320.67"/><polygon class="cls-3" points="72.13 288.67 159.8 330.33 396.13 349.33 337.3 262.33 200.8 251.33 72.13 288.67"/><polygon class="cls-4" points="72.13 288.67 88.47 322.67 159.8 330.33 202.8 251.33 74.13 238 72.13 288.67"/><polygon class="cls-4" points="655.4 6.65 572.49 14.1 688.95 42.12 795.11 6.47 696.57 17.53 655.4 6.65"/><polygon class="cls-3" points="572.3 14.1 662.64 0.5 707.62 7.12 795.3 6.41 696.95 26.04 572.3 14.1"/><polygon class="cls-4" points="436.98 57.65 500.4 62.47 411.32 80.62 330.11 57.53 405.49 64.69 436.98 57.65"/><polygon class="cls-3" points="500.54 62.47 431.44 53.67 397.03 57.95 329.97 57.49 405.19 70.2 500.54 62.47"/><polygon class="cls-4" points="122.65 29.85 173.43 33.72 102.1 48.25 37.08 29.76 97.43 35.49 122.65 29.85"/><polygon class="cls-3" points="173.54 33.72 118.21 26.67 90.66 30.1 36.97 29.73 97.2 39.91 173.54 33.72"/><polygon class="cls-2" points="239.8 214.5 240.8 201.5 263.3 198 264.13 209 280.3 212.5 282.63 207.67 281.97 196.67 305.13 193.5 305.05 207.25 323.47 204.67 328.47 204.5 327.8 190.5 352.63 187.67 352.3 198.33 283.3 230.67 239.8 214.5"/><polygon class="cls-4" points="375.8 210.17 373.8 203.33 374.3 187.67 397.92 188.71 397.49 207.83 422.17 208.46 423.13 191.17 446.55 191.96 445.97 209.17 471.55 210.33 472.42 195.21 501.24 197.71 501.05 208.83 407.13 219 375.8 210.17"/><polygon class="cls-1" points="289.67 202.9 289.74 209.08 296.55 209.15 296.61 202.65 289.67 202.9"/><polygon class="cls-1" points="248.67 209.4 248.74 215.58 256.55 214.83 256.05 208.21 248.67 209.4"/><polygon class="cls-2" points="202.42 214.4 202.49 220.58 210.3 219.83 209.8 213.21 202.42 214.4"/><polygon class="cls-1" points="337.01 200.56 337.07 206.75 343.88 206.81 343.94 200.31 337.01 200.56"/><polygon class="cls-2" points="381.92 202.4 381.38 208.75 388.88 209.42 389.38 203 381.92 202.4"/><polygon class="cls-2" points="429.92 204.56 429.38 210.92 436.88 211.58 437.38 205.17 429.92 204.56"/><polygon class="cls-2" points="481.92 208.73 481.38 215.08 488.88 215.75 489.38 209.33 481.92 208.73"/></g><g id="shadows"><polygon class="cls-7" points="176.55 310.83 238.55 302.58 308.55 312.83 235.05 328.08 176.55 310.83"/><polygon class="cls-7" points="140.3 319.08 162.3 324.58 188.8 319.83 162.05 316.08 140.3 319.08"/><polygon class="cls-7" points="384.55 308.83 432.97 304.17 480.05 312.08 431.05 321.08 384.55 308.83"/><polygon class="cls-7" points="496.3 309.83 549.55 302.83 586.05 311.58 548.05 318.83 496.3 309.83"/><polygon class="cls-7" points="589.05 307.83 640.8 301.58 682.8 313.08 631.3 317.83 589.05 307.83"/><polygon class="cls-7" points="690.81 330.33 742.56 324.08 784.56 335.58 733.06 340.33 690.81 330.33"/><polygon class="cls-7" points="713.47 228 744.13 221.67 774.8 224.67 794.8 220 863.8 226.5 833.97 239.83 782.47 235.5 742.3 239.67 713.47 228"/><polygon class="cls-7" points="85.55 279.33 132.3 265.33 190.3 273.83 147.05 293.83 85.55 279.33"/></g><g id="flowers"><polygon class="cls-8" points="744.65 289.67 742 295.77 737.55 311.33 743.53 323.52 744.65 289.67"/><polygon class="cls-9" points="750.36 278.56 760.3 289.08 742.21 295.31 736.93 280.98 750.36 278.56"/><polygon class="cls-10" points="751.05 267 760.3 289.08 736.93 280.98 751.05 267"/><polygon class="cls-8" points="725.05 296.67 726.97 301.08 731.36 315.33 725.86 321.15 725.05 296.67"/><polygon class="cls-9" points="720.92 288.64 714.05 294.64 726.81 300.75 730.63 290.38 720.92 288.64"/><polygon class="cls-11" points="757.73 314.55 737.55 311.33 732.92 331.33 737.06 334.83 757.6 317.06 757.73 314.55"/><polygon class="cls-12" points="712.14 315.32 731.36 315.33 737.06 334.83 730.67 333.9 712.14 315.32"/><polygon class="cls-11" points="700.55 332.32 712.53 309.33 731.34 315.29 700.55 332.32"/><polygon class="cls-13" points="758.05 309.85 761.4 330.78 737.55 311.32 758.05 309.85"/><polygon class="cls-10" points="718.2 282.97 714.05 294.64 730.63 290.38 718.2 282.97"/><polygon class="cls-8" points="156.91 295.55 158.43 299.05 160.98 307.98 157.55 314.97 156.91 295.55"/><polygon class="cls-9" points="153.63 289.18 148.18 293.94 158.31 298.79 161.34 290.56 153.63 289.18"/><polygon class="cls-10" points="151.47 284.68 148.18 293.94 161.34 290.56 151.47 284.68"/><polygon class="cls-8" points="168.15 299.56 167.06 302.1 164.53 310.27 167.69 313.61 168.15 299.56"/><polygon class="cls-9" points="170.52 294.96 174.47 298.4 167.14 301.9 164.95 295.96 170.52 294.96"/><polygon class="cls-11" points="149.41 309.82 160.99 307.98 163.64 319.45 161.26 321.46 149.48 311.26 149.41 309.82"/><polygon class="cls-12" points="175.56 310.26 164.53 310.27 161.26 321.46 164.93 320.92 175.56 310.26"/><polygon class="cls-11" points="182.21 320.02 175.34 306.83 164.54 310.25 182.21 320.02"/><polygon class="cls-13" points="149.22 307.13 147.3 319.13 160.98 307.97 149.22 307.13"/><polygon class="cls-10" points="172.09 291.7 174.47 298.4 164.95 295.96 172.09 291.7"/></g><g id="white_board" data-name="white board"><polygon class="cls-11" points="135.05 277.33 125.55 281.83 104.3 277.58 129.3 259.58 135.05 277.33"/><polygon class="cls-12" points="117.55 211.83 125.55 281.83 142.55 284.83 144.8 201.58 117.55 211.83"/><polygon class="cls-11" points="151.05 199.5 169.3 274.83 142.55 284.83 128.3 204.33 151.05 199.5"/><polygon class="cls-11" points="69.55 77.33 62.05 69.33 51.72 78.5 80.8 225.58 93.55 225.33 69.55 77.33"/><polygon class="cls-13" points="62.05 69.33 93.55 225.33 183.88 201.83 160.55 71.33 62.05 69.33"/><polygon class="cls-3" points="82.3 85.33 149.05 85.33 170.05 187.33 104.72 204.33 82.3 85.33"/><polygon class="cls-10" points="135.85 98.08 129.48 96.85 123.79 104.27 140.17 106.05 147.81 101.48 139.05 99.25 135.85 98.08"/><polygon class="cls-9" points="133.67 92.02 135.61 99.98 136.63 99.98 136.49 91.83 133.67 92.02"/><polygon class="cls-10" points="123.79 104.27 136.31 108.48 144.81 108.94 147.81 101.48 138.09 100.81 123.79 104.27"/><polygon class="cls-10" points="123.79 104.27 144.81 108.94 140.6 112.67 131.84 115.38 123.79 104.27"/><polygon class="cls-10" points="144.81 108.94 131.84 115.38 142.97 113.92 144.81 108.94"/><polygon class="cls-10" points="141.71 95.06 123.79 104.27 147.81 101.48 141.71 95.06"/><polygon class="cls-12" points="148.8 250.08 155.08 280.08 160.14 278.18 153.55 248.83 148.8 250.08"/><polygon class="cls-2" points="93.92 101.21 117.26 100.88 118.05 104.96 94.67 106.38 93.92 101.21"/><polygon class="cls-2" points="96.13 112.33 119.47 110.58 120.26 114.67 96.88 117.92 96.13 112.33"/><polygon class="cls-2" points="101.47 138.54 123.3 135.04 124.55 140.08 102.55 143.63 101.47 138.54"/><polygon class="cls-2" points="104.01 149.21 125.59 145.38 126.84 150.13 105.09 154.29 104.01 149.21"/><polygon class="cls-2" points="106.97 169.92 129.55 164.71 131.05 169.71 108.05 175 106.97 169.92"/><polygon class="cls-2" points="109.51 180.58 132.67 176.08 133.55 180.33 110.59 185.67 109.51 180.58"/><polygon class="cls-10" points="140.59 124.5 137.92 132.83 128.17 134.92 135.92 140.08 134.67 149.58 143.42 143.67 153.67 146.5 149.17 138.17 152.59 131.25 145.42 131.67 140.59 124.5"/><polygon class="cls-10" points="141.67 165.58 149.67 169.58 154.8 153.21 160.92 156.08 153.42 178.96 139.05 172.21 141.67 165.58"/></g><g id="left_rock" data-name="left rock"><polygon class="cls-5" points="66.13 218.83 79.13 216.33 87.13 255.33 43.47 280.46 45.59 217.83 66.13 218.83"/><polyline class="cls-4" points="31.59 254.46 14.47 219.5 44.3 208 79.13 216.33 54.84 231.46 31.84 253.96"/><polygon class="cls-14" points="14.97 219.67 0.47 295.33 54.13 305 54.84 231.46 14.97 219.67"/><polygon class="cls-5" points="91.97 264.08 114.47 258.67 123.97 302.33 88.47 322.67 68.97 282.33 91.97 264.08"/><polygon class="cls-2" points="78.47 294.67 54.59 266.71 87.13 255.33 114.47 258.67 86.47 274.67 78.47 294.67"/><polygon class="cls-6" points="54.59 266.71 86.47 274.67 88.47 322.67 51.13 317.33 54.59 266.71"/></g><g id="right_rock" data-name="right rock"><polygon class="cls-15" points="814.63 251.5 835.63 248.33 840.47 265.67 852.97 282.67 808.97 291.67 814.63 251.5"/><polygon class="cls-5" points="806.97 251.83 788.47 255 776.97 288.17 785.8 289.43 825.13 287.33 819.13 256.17 806.97 251.83"/><polygon class="cls-15" points="872.63 261.33 895.13 257.83 900.13 291.33 875.47 309.17 872.63 261.33"/><polygon class="cls-5" points="859.13 262.5 840.47 265.67 838.3 280.61 838.3 302.5 844.03 306.75 875.47 309.17 877.63 267.5 859.13 262.5"/><polygon class="cls-15" points="824.51 285.74 838.3 280.61 844.03 306.75 817.8 319 810.45 297.15 824.51 285.74"/><polygon class="cls-5" points="811.39 285.68 810.46 285.82 785.8 289.43 776.13 314.67 817.8 319 821.04 291.19 811.39 285.68"/><polygon class="cls-4" points="804.99 280.17 838.3 280.61 821.04 291.19 785.8 289.43 804.99 280.17"/><polygon class="cls-4" points="862.63 256.33 840.47 265.67 877.63 267.5 895.13 257.83 862.63 256.33"/><polygon class="cls-4" points="806.97 247.33 835.63 248.33 819.13 256.17 788.47 255 806.97 247.33"/></g><g id="main_character" data-name="main character"><polygon class="cls-16" points="317.42 124.75 315.71 119.17 325.55 108.25 331.05 124 319.05 130.38 317.42 124.75"/><polygon class="cls-17" points="312.55 137.58 321.21 137.25 331.71 133.17 324.3 118.08 317.71 122.75 312.55 137.58"/><polygon class="cls-3" points="320.88 95.17 323.55 155.83 369.21 153.83 367.05 94 320.88 95.17"/><polygon class="cls-7" points="313.05 139.33 313.88 126.83 315.71 119.17 327.13 115.83 328.3 119.08 322.67 136.56 313.05 139.33"/><polygon class="cls-18" points="313.05 139.33 313.88 126.83 315.71 119.17 327.13 115.83 328.3 119.08 322.49 122.88 322.42 130.97 313.05 139.33"/><polygon class="cls-16" points="284.13 153.08 296.55 146.71 313.88 126.83 321.21 137.25 306.67 169.33 278.38 174.58 284.13 153.08"/><polygon class="cls-17" points="306.67 169.33 285.55 179.33 296.55 146.71 306.67 169.33"/><polygon class="cls-19" points="268.55 155.17 276.38 148.5 296.55 146.71 300.05 180.17 273.71 191.83 268.55 155.17"/><polygon class="cls-16" points="198.61 230.5 189.9 236.91 185.42 229.46 198.61 230.5"/><polygon class="cls-18" points="212.36 217.67 205.36 239.36 189.9 236.91 193.63 220.38 212.36 217.67"/><polygon class="cls-16" points="194.54 177.21 176.44 186.31 193.63 220.38 206.32 220.46 205.46 213.01 198.71 188.78 194.54 177.21"/><polygon class="cls-17" points="194.54 177.21 176.44 186.31 182.51 198.42 200.51 195.2 198.71 188.78 194.54 177.21"/><polygon class="cls-12" points="262.84 36.74 270.82 25.01 254.24 25 262.84 36.74"/><polygon class="cls-19" points="202.17 150.38 170.55 184.17 200.51 195.2 204.17 191.21 214.19 166.77 202.17 150.38"/><polygon class="cls-13" points="239.02 256.22 232.61 272.62 211.71 273.04 202.32 269.74 203.26 226.29 231.26 242.57 239.02 256.22"/><polygon class="cls-13" points="273.64 265.96 272.21 225.66 239.55 236.74 239.02 256.22 245.63 272.85 270.52 274.27 273.64 265.96"/><polygon class="cls-12" points="245.63 272.85 253.73 294.47 272.93 301.69 274.13 290.52 273.64 265.96 245.63 272.85"/><polygon class="cls-12" points="222.87 298.12 232.61 272.62 202.32 269.74 201.75 296.92 211.8 303.89 222.87 298.12"/><polygon class="cls-11" points="272.21 225.66 239.02 256.22 203.26 226.29 272.21 225.66"/><polygon class="cls-10" points="247.17 175 240.96 197.09 222.58 199.9 204.17 191.21 202.17 150.38 217.41 147.12 242.45 156.18 247.17 175"/><polygon class="cls-18" points="225.17 140.19 242.26 148.65 253.12 143.56 258.53 139.94 281.36 140.69 289.74 78.31 287.03 62.46 269.75 65.9 236.29 67.56 227.33 80.7 228.44 97.86 216.67 101.47 225.17 140.19"/><polygon class="cls-16" points="241.57 139.02 243.78 79.69 242.07 68.44 229.99 77.69 224.02 92.97 211.36 97.96 216.03 112.27 218.64 114.66 218.81 120.75 225.05 139.84 231.29 149.33 242.45 156.18 240.13 142.7 241.57 139.02"/><polygon class="cls-17" points="216.07 112.26 223.84 109.75 218.81 120.75 216.07 112.26"/><polygon class="cls-13" points="270.82 25.01 254.69 39.68 252.96 53.11 271.34 72.82 277.66 48.7 270.82 25.01"/><polygon class="cls-17" points="215.52 100.42 220.53 98.63 222.72 106.83 215.52 100.42"/><polygon class="cls-20" points="270.53 112.2 263.81 111.77 264.89 90.4 271.61 90.83 270.53 112.2"/><polygon class="cls-17" points="270.53 112.2 266.58 114.99 263.81 111.77 270.53 112.2"/><polygon class="cls-21" points="258.35 127.2 252.46 117.53 278.76 119.58 271.4 127.63 258.35 127.2"/><path class="cls-17" d="M254,118.49l23,1.79-5.94,6.5-12.21-.4-4.8-7.89m-3.14-1.92,1.7,2.79,4.8,7.89.48.77.9,0,12.22.4.77,0,.52-.57,5.94-6.5,2.32-2.54-3.43-.26-23-1.79-3.27-.25Z"/><polygon class="cls-22" points="265.88 146.67 242.45 156.18 242.07 166.57 242.07 166.57 240.96 197.09 260.29 199.08 273.71 191.83 276.38 148.5 265.88 146.67"/><polygon class="cls-12" points="247.84 84.58 249.64 85.73 259.42 81.63 263.48 84.05 264.36 83 261.51 77.02 247.84 84.58"/><polygon class="cls-12" points="274.33 85.04 279.13 85.08 282.75 81 288.63 79.38 282.2 78.41 274.33 85.04"/><polygon class="cls-23" points="235.11 162.09 242.07 166.57 248.51 162 242.45 156.18 235.11 162.09"/><polygon class="cls-19" points="231.08 194.26 204.17 191.21 203.26 226.29 240.09 237.15 248.52 205.48 231.08 194.26"/><polygon class="cls-9" points="273.71 191.83 240.96 197.09 240.45 206.18 240.09 237.15 272.21 225.66 273.71 191.83"/><polygon class="cls-24" points="291.07 59.63 285.56 42.15 270.82 25.01 271.34 72.82 291.07 59.63"/><polygon class="cls-11" points="205.77 83.45 211.36 97.96 223.49 96.16 226.73 106.41 236.03 103.79 232.28 82.03 221.31 77.26 205.77 83.45"/><polygon class="cls-25" points="243.57 85.24 209.8 93.61 211.36 97.96 243.27 93.23 243.57 85.24"/><polygon class="cls-11" points="231 46.07 233.45 62.37 242.02 69.03 242.02 69.03 242.19 68.79 271.34 72.82 254.69 39.68 231 46.07"/><polygon class="cls-12" points="205.77 83.45 232.28 82.03 242.02 69.03 231 46.07 205.77 83.45"/><polygon class="cls-16" points="246.43 98.65 249.59 91.7 261.42 92.1 262.86 89.74 246.32 87.58 246.43 98.65"/><polygon class="cls-16" points="281.87 91.64 276.83 93.42 274.64 100.78 273.64 89.3 281.87 91.64"/><polygon class="cls-17" points="271.34 72.82 287.8 66.93 287.02 62.41 271.34 72.82"/><polygon class="cls-16" points="274.33 85.04 272.08 87.43 284.97 88.55 288.63 79.38 282.75 81 279.13 85.08 274.33 85.04"/><polygon class="cls-16" points="263.48 84.05 264.26 87.02 249.54 85.77 259.42 81.63 263.48 84.05"/><polygon class="cls-16" points="246.03 101.61 264.11 105.87 264.26 102.75 246.03 101.61"/><polygon class="cls-16" points="270.82 106.5 286.16 103.53 270.94 103.94 270.82 106.5"/><polygon class="cls-17" points="258.53 139.94 237.41 138.8 242.45 156.18 251.22 153.53 258.02 143.49 258.53 139.94"/><path class="cls-9" d="M273.26,87.51v0l-.38,0-1.1-.1v0l-6.68-.34-21.53-1.83L243,101.87l21.31.88.67-12.33,6.68.34L271,103.94l21.28.89,1.12-15.54ZM260.9,99.22l-14.47-.57.36-9.76,14.76,1.32Zm28.21,2.13-14.47-.57L275,91l14.76,1.31Z"/><path class="cls-26" d="M285.32,94.92a2.45,2.45,0,1,1-3.13-1.48A2.46,2.46,0,0,1,285.32,94.92Z"/><path class="cls-26" d="M260.36,93.15a2.45,2.45,0,1,1-3.13-1.48A2.45,2.45,0,0,1,260.36,93.15Z"/><polygon class="cls-14" points="231.08 194.26 231.08 194.26 240.72 201.45 251.61 195.46 242.07 166.57 231.08 194.26"/><polygon class="cls-23" points="251.61 195.46 231.08 194.26 240.45 206.18 251.61 195.46"/><polygon class="cls-25" points="225.05 139.84 217.41 147.12 232.82 166.99 242.45 156.18 225.05 139.84"/><polygon class="cls-25" points="242.45 156.18 250.1 166.31 265.88 146.67 258.21 142.17 242.45 156.18"/><polygon class="cls-10" points="274.13 290.52 288.82 305.52 269.02 308.8 253.49 305.18 253.73 294.47 274.13 290.52"/><rect class="cls-8" x="253.47" y="305.35" width="35.33" height="4.61" transform="translate(2.98 -2.6) rotate(0.55)"/><polygon class="cls-10" points="222.87 298.12 228.08 311.96 217.86 314.4 198.5 311.57 201.75 296.92 222.87 298.12"/><polygon class="cls-8" points="227.91 317.45 198.29 316.9 198.5 311.57 228.08 311.96 227.91 317.45"/><polygon class="cls-9" points="345.49 118.88 338.63 116.75 331.46 124.21 349.26 128.17 358.21 124.08 348.86 120.56 345.49 118.88"/><polygon class="cls-19" points="344.61 112.13 344.99 120.94 346.11 121.06 346.92 112.56 344.61 112.13"/><polygon class="cls-9" points="331.46 124.21 344.71 130.38 354.01 131.92 358.21 124.08 347.61 122.16 331.46 124.21"/><polygon class="cls-8" points="331.46 124.21 354.01 131.92 348.92 135.5 338.96 137.42 331.46 124.21"/><polygon class="cls-19" points="354.01 131.92 338.96 137.42 351.38 137.17 354.01 131.92"/><polygon class="cls-10" points="352.3 116.28 331.46 124.21 358.21 124.08 352.3 116.28"/></g><g id="right_character_1" data-name="right character 1"><polygon class="cls-19" points="572.08 298.48 566.78 306.61 568.76 309.36 586.47 296.94 584.7 294.05 572.08 298.48"/><polygon class="cls-9" points="565.82 291.08 565.51 295.82 566.78 306.61 584.7 294.05 577.77 286.83 565.82 291.08"/><polygon class="cls-23" points="552.71 269.54 546.28 281.52 564.94 296.08 577.77 286.83 564.94 272.43 552.71 269.54"/><polygon class="cls-19" points="525.61 301.39 510.41 305.49 510.35 309.78 538.56 309.92 538.64 306.14 525.61 301.39"/><polygon class="cls-9" points="532.36 284.66 524.64 296.73 510.41 305.49 538.64 306.14 538.56 297.37 532.36 284.66"/><polygon class="cls-23" points="532.12 241.95 521.26 274.53 524.64 296.73 538.56 297.37 541.17 279.95 532.12 241.95"/><polygon class="cls-27" points="532.12 241.95 524.64 245.09 521.26 274.53 541.17 279.95 551.67 254.5 532.12 241.95"/><polygon class="cls-15" points="539.36 239.54 539.85 258.84 546.44 281.6 565.18 272.84 563.98 244.6 539.36 239.54"/><polygon class="cls-23" points="528.26 227.87 525.25 232.9 524.64 245.09 539.85 258.84 563.98 244.6 563.25 234.11 528.26 227.87"/><polygon class="cls-28" points="593.41 233.99 601.3 237.69 602.58 248.47 593.74 252.49 587.78 243.32 593.41 233.99"/><polygon class="cls-28" points="588.91 234.95 581.67 232.86 578.29 241.87 580.71 243.64 588.91 234.95"/><polygon class="cls-29" points="583.6 218.38 593.25 227.87 601.3 237.69 587.78 243.32 581.67 232.86 583.6 218.38"/><polygon class="cls-28" points="571.86 201.97 573.14 216.61 581.67 232.86 593.25 227.87 587.14 204.23 571.86 201.97"/><polygon class="cls-30" points="571.86 201.97 573.14 216.61 588.8 210.83 587.14 204.23 571.86 201.97"/><polygon class="cls-27" points="581.83 178.25 573.21 199.84 567.59 195.68 563.36 176.96 581.83 178.25"/><polygon class="cls-19" points="560.76 181.87 569.61 183.47 587.14 204.23 573.14 216.61 555.29 204.55 560.76 181.87"/><polygon class="cls-29" points="482.25 185.89 468.74 188.14 457.88 181.79 464 170.77 474.85 174.31 482.25 185.89"/><polygon class="cls-28" points="481.13 182.03 477.75 175.43 474.85 174.31 468.74 188.14 480.12 194.17 487.08 191.2 481.13 182.03"/><polygon class="cls-29" points="485.79 191.84 484.8 182.21 481.29 175.43 475.18 169.16 473.33 171.41 476.94 178.81 476.62 184.92 485.79 191.84"/><polygon class="cls-23" points="525.75 163.88 519.86 169.18 522.12 184.78 544.21 191.1 551.91 165.85 525.75 163.88"/><g id="Layer_1"><rect class="cls-31" x="517.93" y="181.92" width="50.71" height="50.71"/></g><polygon class="cls-22" points="561.49 182.01 556.25 172.21 533.81 181.5 523.58 198.6 533.57 218.54 558.72 222.77 561.49 182.01"/><polygon class="cls-14" points="535.7 97.24 512.62 106.52 504.7 124.16 515.55 129.26 528.92 116.09 535.46 107.92 535.7 97.24"/><polygon class="cls-27" points="512.62 106.52 504.7 124.16 513.46 128.14 521.99 127.65 512.62 106.52"/><polygon class="cls-9" points="562.23 178.41 557.94 180.63 539.6 192 528.58 226.1 537.43 232.86 566.63 212.03 569.78 181.37 562.23 178.41"/><polygon class="cls-19" points="538.64 209.98 528.58 226.1 537.67 233.75 563.25 234.11 566.63 212.03 538.64 209.98"/><polygon class="cls-9" points="522.12 184.78 500.75 189.23 498.02 199.08 500.92 208.73 519.25 208.41 526.56 206.53 522.12 184.78"/><polygon class="cls-10" points="522.12 184.78 519.25 208.41 530.37 225.3 538.64 209.98 539.6 192 533.81 181.5 522.12 184.78"/><polygon class="cls-9" points="519.25 208.41 525.25 232.9 537.67 233.75 538.64 209.98 519.25 208.41"/><polygon class="cls-28" points="532.37 144.94 536.11 172.23 540.93 175.95 540.45 185.97 554.08 178.37 559.45 167.76 554.77 133.27 542.42 127.74 532.37 144.94"/><polygon class="cls-23" points="514.3 145.32 504.7 124.16 512.5 124.6 516.41 130.23 514.3 145.32"/><polygon class="cls-27" points="535.7 97.24 560.26 103.7 561.61 115.38 542.71 116.03 533.06 116.05 528.92 116.09 535.7 97.24"/><polygon class="cls-29" points="512.5 124.6 509.48 167.56 545.6 173.06 551.92 131.72 542.71 116.03 529.42 115.81 512.5 124.6"/><polygon id="XMLID_31_1" data-name="XMLID 31  1" class="cls-28" points="515.42 133.59 520.91 139.51 524.63 150.43 527.39 151.49 529.99 150.84 538.09 141.37 544.88 136.81 541.16 132.83 534.1 135.82 530.82 138.73 528.93 140.4 526.79 138.32 525.66 134.9 519.25 130.95 515.42 133.59"/><polygon class="cls-23" points="515.42 133.59 518.8 131.69 525.35 134.95 525.52 132.55 518.97 129.54 515.42 133.59"/><polygon class="cls-23" points="533.98 133.33 533.79 135.87 541.23 134.07 544.88 136.81 541.59 131.32 533.98 133.33"/><polygon class="cls-32" points="526.79 138.32 524.32 150.49 529.68 150.89 530.82 138.73 526.79 138.32"/><polygon class="cls-30" points="524.32 150.49 526.99 152.67 529.68 150.89 524.32 150.49"/><polygon id="XMLID_33_2" data-name="XMLID 33  2" class="cls-14" points="560.26 103.7 578.91 128.11 567.79 131.87 551.92 131.72 542.71 116.03 560.26 103.7"/><polygon class="cls-23" points="551.92 131.72 562.66 152.71 573.52 152.34 578.91 128.11 551.92 131.72"/><polygon class="cls-27" points="551.92 131.72 556.15 166.17 566.44 173.48 581.83 178.25 573.52 152.34 551.92 131.72"/><polygon class="cls-30" points="530.53 170.78 540.45 185.97 552.42 173.83 530.53 170.78"/><path class="cls-26" d="M520.89,136.06a2.15,2.15,0,1,1-2.28,2A2.13,2.13,0,0,1,520.89,136.06Z"/><path class="cls-26" d="M537.92,138.24a2.14,2.14,0,0,1-.32,4.27,2.14,2.14,0,0,1,.32-4.27Z"/><polygon class="cls-21" points="524.32 155.99 518.61 155.74 526.82 160.93 535.34 157.56 524.32 155.99"/><polygon class="cls-9" points="518.61 155.74 517.91 154.88 520.6 155.28 526.61 155.06 532.52 156.61 536.44 157.12 535.34 157.56 526.23 157.38 518.61 155.74"/><polygon class="cls-10" points="518.61 155.74 525.89 162.79 535.34 157.56 533.7 157.51 526.13 159.57 520.41 156.1 518.61 155.74"/><polygon class="cls-28" points="488.8 184.08 500.75 189.23 499.42 203.58 495.42 204.96 484.8 197.21 486.02 187.31 488.8 184.08"/><polygon class="cls-30" points="500.75 189.23 500.92 208.73 495.42 204.96 500.75 189.23"/><polygon class="cls-10" points="484.8 182.21 488.8 184.08 484.8 197.21 480.12 194.17 484.8 182.21"/><polygon class="cls-23" points="556.15 166.17 552.39 193.57 581.83 178.25 556.15 166.17"/><polygon class="cls-22" points="533.09 206.72 546.72 207.56 546.36 210.55 532.73 209.5 533.09 206.72"/><polygon class="cls-22" points="534.78 193.69 547.57 194.41 547.25 196.99 534.54 196.34 534.78 193.69"/><polygon class="cls-22" points="532.52 221.2 545.8 221.44 545.72 224.34 532.69 224.09 532.52 221.2"/></g><g id="right_character_2" data-name="right character 2"><polygon class="cls-19" points="449.47 304 438.22 309.33 438.13 313.08 462.97 313.5 463.05 309.83 449.47 304"/><polygon class="cls-9" points="447.47 293.25 443.38 299.17 438.22 309.33 463.05 309.83 461.42 300.08 447.47 293.25"/><polygon class="cls-19" points="411.24 302.9 399.11 305.83 399.02 309.65 432.67 309.96 432.86 306.02 411.24 302.9"/><polygon class="cls-9" points="427.72 288.5 416.05 294.5 399.11 305.83 432.86 306.02 433.05 297.33 427.72 288.5"/><polygon class="cls-23" points="426.3 268.08 415.72 268.83 416.05 294.5 433.05 297.33 441.05 275.33 426.3 268.08"/><polygon class="cls-27" points="450.55 266.33 436.63 274 443.61 298.77 461.42 300.08 463.34 276.33 450.55 266.33"/><polygon class="cls-27" points="430.3 242.58 415.3 235.33 415.72 268.83 436.63 274 443.8 247.33 430.3 242.58"/><polygon class="cls-15" points="437.3 247.83 431.55 258.58 436.63 274 463.34 276.33 466.38 244.33 437.3 247.83"/><polygon class="cls-23" points="425.55 218.33 415.67 229.71 415.3 235.33 431.55 258.58 466.38 244.33 467.42 237.08 425.55 218.33"/><polygon class="cls-33" points="488.21 248.3 498.38 253.67 495.8 264.08 486.22 265.58 483.88 255.25 488.21 248.3"/><polygon class="cls-33" points="489.83 247.12 481.8 244.5 476.63 252.92 479.05 255.17 489.83 247.12"/><polygon class="cls-34" points="486.07 240.58 492.05 242.65 498.38 253.67 483.88 255.25 481.8 244.5 486.07 240.58"/><polygon class="cls-33" points="478.38 222.17 476.3 227.21 481.8 244.5 492.05 242.65 493.13 221.33 478.38 222.17"/><polygon class="cls-35" points="493.13 221.33 476.3 227.21 477.38 208.67 493.05 210.83 493.13 221.33"/><polygon class="cls-10" points="464.3 192.33 477.3 188.08 490.63 207.3 485.5 213 472.92 223.58 468.8 219.33 464.3 192.33"/><polygon class="cls-34" points="391.88 124.5 387.05 120.5 383.84 106.29 398.63 102.08 403.22 114.85 399.97 125 391.88 124.5"/><polygon class="cls-33" points="398.8 143.67 390.94 133.01 387.05 120.5 403.22 114.85 403.78 117.48 398.8 143.67"/><polygon class="cls-34" points="402.13 133.75 404.22 129.5 408.3 122.83 409.09 111.73 404.84 112.23 403.78 117.48 396.47 124.5 397.97 134.58 402.13 133.75"/><polygon class="cls-34" points="405.67 135.25 412.55 154.08 412.84 173.67 405.84 179.67 396.3 169.21 391.8 138.5 397.06 135.66 405.67 135.25"/><polygon class="cls-35" points="416.05 164.58 412.55 154.08 396.3 169.21 405.84 179.67 416.05 164.58"/><polygon class="cls-19" points="426.05 211.33 436.3 237.33 467.42 237.08 468.8 219.33 430.8 193.58 426.05 211.33"/><polygon class="cls-9" points="432.05 192.58 418.8 198.83 415.67 229.71 436.3 237.33 440.55 203.33 432.05 192.58"/><polygon class="cls-9" points="428.05 164.08 416.88 156.98 408.44 171.22 404.92 185.88 418.8 198.83 439.3 166.58 428.05 164.08"/><polygon class="cls-22" points="416.92 157 412.55 154.08 401.05 182.33 404.92 185.88 416.92 157"/><polygon class="cls-9" points="430.8 167.58 437.99 204.08 446.17 208.92 468.8 219.71 477.3 188.08 469.72 180.83 430.8 167.58"/><polygon class="cls-10" points="430.8 167.58 418.8 198.83 434.26 205 440.3 206.08 441.88 200 457.05 168.83 430.8 167.58"/><polygon class="cls-22" points="436.88 166.17 430.05 168.83 441.88 200 469.72 180.83 465.55 177 436.88 166.17"/><polygon class="cls-35" points="429.65 160.42 443.74 193.4 452.02 185.56 464.55 173.08 454.58 172.68 444.49 162.11 435.51 161.72 429.65 160.42"/><polygon class="cls-33" points="465.84 177.34 443.74 193.4 460.86 175.33 455.03 173.7 443.92 163.59 452.48 117.18 471.14 125.47 472.34 147.45 473 158.42 465.84 177.34"/><polygon class="cls-35" points="473 158.42 468.08 150.28 471.62 150.05 475.9 152.26 473 158.42"/><polygon class="cls-23" points="465.84 126.19 468.08 150.28 473.62 142 477.5 142.71 481.33 140.5 488.17 130.46 481.82 125.08 471.16 123.13 465.84 126.19"/><polygon class="cls-34" points="471.63 138.03 468.08 150.28 475.9 152.26 481.33 140.5 471.63 138.03"/><polygon class="cls-35" points="473.62 142 472.05 146.85 476.98 142.61 473.62 142"/><polygon class="cls-23" points="411.82 115.12 421.88 134.17 423.13 127.72 424.24 116 421.15 114.65 411.82 115.12"/><polygon class="cls-23" points="428.5 95.35 411.82 115.12 420.28 118.64 423.42 115.68 432.1 107.21 430.97 97.88 428.5 95.35"/><polygon class="cls-27" points="452.56 113.56 432.05 109.72 429.13 108.74 428.5 95.35 462.36 95.11 462.14 99.22 452.56 113.56"/><polygon class="cls-23" points="449.7 116.29 451.78 110.57 462.36 95.11 482.58 110.18 475.82 117.64 459.5 127.18 454.84 114.18 449.7 116.29"/><polygon class="cls-27" points="453.77 124.58 453.25 121.8 482.58 110.18 488.17 130.46 465.84 126.19 463.34 124.18 453.77 124.58"/><polygon class="cls-34" points="416.55 167.45 455.03 173.7 465.84 126.19 451.78 110.57 429.13 108.74 420.28 118.64 416.55 167.45"/><polygon class="cls-33" points="439.54 133.76 436.52 129.41 429.63 125.61 426.38 127.53 434.31 146.51 439.54 133.76"/><polygon class="cls-33" points="440.77 133.79 440.96 147.28 455.94 130.93 453.15 128.67 444.89 130.28 440.77 133.79"/><polygon class="cls-35" points="437.92 150.53 434.31 146.51 437.37 145.35 440.96 147.28 437.92 150.53"/><polygon class="cls-36" points="438.01 131.58 442.51 132.32 440.96 147.28 434.31 146.51 438.01 131.58"/><polygon class="cls-23" points="429.23 124.37 436.83 127.32 436.52 129.41 429.32 126.22 426.38 127.53 429.23 124.37"/><polygon class="cls-23" points="445.09 128.12 444.89 130.28 453.12 129.38 455.94 130.93 453.56 127.49 445.09 128.12"/><polygon class="cls-35" points="429.5 152.94 431.28 160.43 440.19 161.87 445.33 155.67 429.5 152.94"/><polygon class="cls-21" points="431.37 154.36 432.35 159.12 439.38 160.28 442.51 156.39 431.37 154.36"/><path class="cls-26" d="M450.46,138.88a2.6,2.6,0,1,1-1.95-3.1A2.61,2.61,0,0,1,450.46,138.88Z"/><path class="cls-26" d="M432.4,136.77a2.6,2.6,0,1,1-2-3.1A2.62,2.62,0,0,1,432.4,136.77Z"/><polygon class="cls-22" points="434.26 205 446.17 208.92 447.05 205.58 435.72 202.13 434.26 205"/><polygon class="cls-22" points="433.38 214.67 444.8 217.21 444.36 219.96 433.13 217.58 433.38 214.67"/><polygon class="cls-22" points="431.92 228.08 443.8 229.33 443.47 232.46 431.55 230.96 431.92 228.08"/><polygon class="cls-9" points="391.8 138.5 405.67 135.25 404.22 129.5 390.94 133.01 391.8 138.5"/><polygon class="cls-22" points="490.63 207.3 472.92 223.58 476.3 227.21 493.05 210.83 490.63 207.3"/></g><g id="right_character_3" data-name="right character 3"><polygon class="cls-37" points="663.04 98.4 672.65 96.28 683.96 104.24 663.78 103.87 663.04 98.4"/><polygon class="cls-22" points="645.04 105.64 635.6 96.48 653.82 93.53 672.65 96.28 670.76 101.76 645.04 105.64"/><polygon class="cls-16" points="694.33 247.32 687.13 242.9 680.14 249.88 681.96 252.63 694.33 247.32"/><polygon class="cls-3" points="674.05 253.71 670.13 245.67 700.8 248.46 706.38 251.83 680.55 258.96 674.05 253.71"/><polygon class="cls-4" points="679.05 252.33 675.97 249 670.13 245.67 668.13 266.33 673.8 270.08 679.05 252.33"/><polygon class="cls-11" points="675.97 249 706.38 251.83 704.55 273.05 673.8 270.08 675.97 249"/><polygon class="cls-19" points="634.8 183.42 629.13 174.5 617.55 186.42 615.8 214.5 639.63 203 634.8 183.42"/><polygon class="cls-19" points="654.72 304 645.13 309.33 645.05 313.08 668.22 313.5 668.3 309.83 654.72 304"/><polygon class="cls-9" points="652.72 293.25 650.8 299.33 645.13 309.33 668.3 309.83 666.67 300.08 652.72 293.25"/><polygon class="cls-19" points="614.61 302.9 602.49 305.83 602.39 309.65 634.17 309.58 634.3 306.21 614.61 302.9"/><polygon class="cls-9" points="631.09 288.5 619.42 294.5 602.49 305.83 634.3 306.21 634.67 296.83 631.09 288.5"/><polygon class="cls-23" points="631.55 268.08 615.97 268.33 620.42 293.83 634.67 296.83 638.63 277 631.55 268.08"/><polygon class="cls-27" points="655.8 266.33 640.17 278.21 650.8 299.33 666.67 300.08 664.92 276.46 655.8 266.33"/><polygon class="cls-27" points="635.55 242.58 620.55 235.33 615.97 268.33 638.63 277 649.05 247.33 635.55 242.58"/><polygon class="cls-15" points="642.55 247.83 636.8 258.58 640.17 278.21 664.92 276.46 670.13 245.67 642.55 247.83"/><polygon class="cls-23" points="630.8 218.33 620.92 229.71 620.55 235.33 636.8 258.58 670.13 245.67 670.63 237 630.8 218.33"/><polygon class="cls-16" points="692.48 248.1 701.11 255.69 696.16 265.22 686.5 264.44 686.64 253.84 692.48 248.1"/><polygon class="cls-18" points="692.2 240.09 697.53 243.5 701.11 255.69 686.64 253.84 687.13 242.9 692.2 240.09"/><polygon class="cls-16" points="683.63 222.17 682.92 224.08 687.05 243.08 697.55 243.67 698.38 221.33 683.63 222.17"/><polygon class="cls-17" points="698.38 221.33 682.92 224.46 682.63 208.67 698.3 210.83 698.38 221.33"/><polygon class="cls-10" points="669.55 192.33 682.72 184.33 696.17 206.58 690.75 213 680.42 220.96 674.17 214.83 669.55 192.33"/><polygon class="cls-19" points="631.3 211.33 641.55 237.33 670.63 237 674.17 214.83 636.05 193.58 631.3 211.33"/><polygon class="cls-9" points="637.3 192.58 623.05 203 620.92 229.71 641.55 237.33 645.8 203.33 637.3 192.58"/><polygon class="cls-9" points="636.92 177.21 643.24 204.08 651.42 208.92 674.17 214.83 682.72 184.33 673.8 178.83 636.92 177.21"/><polygon class="cls-10" points="629.13 174.5 623.05 203 639.88 206.67 645.55 206.08 647.13 200 662.3 168.83 644.41 171.89 643.8 179.96 634.17 173.83 629.13 174.5"/><polygon class="cls-22" points="644.67 171.58 634.17 173.83 647.13 200 673.8 178.83 669.22 176 644.67 171.58"/><polygon class="cls-17" points="633.39 159.2 649.38 189.75 655.72 184.38 668.27 171.93 658.3 171.5 648.23 160.92 639.25 160.51 633.39 159.2"/><polygon class="cls-16" points="669.22 176 649.38 189.75 662.3 175.33 658.75 172.52 647.65 162.4 656.29 116 674.94 124.33 676.11 146.31 676.74 157.28 669.22 176"/><polygon class="cls-17" points="676.74 157.28 671.84 149.13 675.38 148.9 679.66 151.12 676.74 157.28"/><polygon class="cls-23" points="672.06 124.85 671.84 149.13 677.38 140.85 681.27 141.57 685.1 139.38 689.35 129.98 685.62 123.96 674.97 121.98 672.06 124.85"/><polygon class="cls-18" points="675.41 136.89 671.84 149.13 679.66 151.12 685.1 139.38 675.41 136.89"/><polygon class="cls-17" points="677.38 140.85 675.81 145.71 680.75 141.48 677.38 140.85"/><polygon class="cls-18" points="620.28 166.21 658.75 172.52 669.57 126.63 655.6 109.39 632.96 107.53 623.91 119.39 620.28 166.21"/><polygon class="cls-16" points="643.17 134.3 640.26 131.12 640.15 129.95 633.26 126.14 627.52 126.43 637.9 147.04 643.17 134.3"/><polygon class="cls-16" points="644.14 134.33 644.31 147.83 662.01 130.91 656.54 129.24 648.52 130.83 648.01 132.55 644.14 134.33"/><polygon class="cls-17" points="641.51 151.07 637.9 147.04 640.98 145.89 644.56 147.83 641.51 151.07"/><polygon class="cls-20" points="640.26 131.12 648.01 132.55 644.56 147.83 637.9 147.04 640.26 131.12"/><polygon class="cls-23" points="628.52 123.93 640.52 126.79 640.15 129.95 627.52 126.43 628.52 123.93"/><polygon class="cls-23" points="648.68 127.72 648.52 130.83 662.26 130.91 662.85 128.08 648.68 127.72"/><polygon class="cls-17" points="632.71 151.48 639.11 163.04 650.12 155.14 632.71 151.48"/><polygon class="cls-21" points="635.49 153.69 639.4 160.54 646.62 155.73 635.49 153.69"/><path class="cls-26" d="M654.22,139.11a2.61,2.61,0,1,1-2-2.92A2.51,2.51,0,0,1,654.22,139.11Z"/><path class="cls-26" d="M636.19,135.83a2.61,2.61,0,1,1-2-2.92A2.52,2.52,0,0,1,636.19,135.83Z"/><polygon class="cls-22" points="639.72 206.67 651.42 208.92 652.3 205.58 640.13 203.5 639.72 206.67"/><polygon class="cls-22" points="638.63 215.92 650.05 218.46 649.61 221.21 638.38 218.83 638.63 215.92"/><polygon class="cls-22" points="637.17 228.08 649.05 229.33 648.72 232.46 636.8 230.96 637.17 228.08"/><polygon class="cls-22" points="696.17 206.58 680.42 220.96 682.92 224.46 698.3 210.83 696.17 206.58"/><polygon class="cls-16" points="615.17 178.83 609.8 184 600.63 208.33 615.8 214.5 622.13 186.67 615.17 178.83"/><polygon class="cls-18" points="619.8 167.83 612.3 168.17 609.8 184 622.13 186.67 629.13 174.5 619.8 167.83"/><polygon class="cls-16" points="612.3 168.17 620.72 162.08 634.13 166.5 629.13 174.5 612.3 168.17"/><polygon class="cls-24" points="679.63 253.92 678.47 265.75 683.63 266.08 684.47 254.5 679.63 253.92"/><polygon class="cls-9" points="657.58 111.2 670.76 101.76 683.96 104.24 691.78 122.75 665.86 123.4 657.58 111.2"/><polygon class="cls-10" points="627.92 115.6 624.5 111.89 635.6 96.48 670.76 101.76 671.72 119.8 627.92 115.6"/><polygon class="cls-19" points="669.36 126.61 689.35 129.98 691.78 122.75 671.72 119.8 653.01 119.64 669.36 126.61"/><polygon class="cls-8" points="623.91 119.39 669.57 126.63 671.72 119.8 624.5 111.89 623.91 119.39"/></g><g id="Barongsai"><polygon class="cls-13" points="869.78 103.18 859.55 65.87 892.96 89.94 869.78 103.18"/><polygon class="cls-12" points="834.27 117.33 852.93 103.48 892.96 89.94 854.74 142 834.27 117.33"/><polygon class="cls-38" points="778 178.72 782.82 194.67 860.46 197.38 799.07 142.31 778 178.72"/><polygon class="cls-12" points="719.62 112.51 710.97 166.31 782.82 194.67 795.75 173.6 789.13 100.48 719.62 112.51"/><polygon class="cls-16" points="850.49 162.05 859.8 153.19 868.66 144.45 872.49 154.04 862.79 165.33 850.49 162.05"/><polygon class="cls-17" points="850.49 162.05 859.8 153.19 862.79 165.33 858.55 169.78 850.49 162.05"/><polygon class="cls-28" points="812.46 168.03 797.64 158.33 788.31 142.98 795.98 138.92 805.84 148.39 812.46 168.03"/><polygon class="cls-30" points="812.46 168.03 800.41 162.82 797.64 158.33 805.84 148.39 812.46 168.03"/><polygon class="cls-37" points="833.38 110.88 838.8 109.15 845.74 113.12 834.1 113.99 833.38 110.88"/><polygon class="cls-22" points="823.4 116.02 817.48 111.25 827.81 108.57 838.8 109.15 838 112.4 823.4 116.02"/><polygon class="cls-9" points="821.16 160.23 816.9 152.43 809.67 149.88 807.9 152.45 803.82 164.77 814.4 170.57 821.16 160.23"/><polygon class="cls-22" points="809.67 149.88 805.84 148.39 800.41 162.82 803.82 164.77 809.67 149.88"/><polygon class="cls-19" points="832.68 229.95 825.22 233.03 825.17 235.2 840.48 235.44 840.53 233.32 832.68 229.95"/><polygon class="cls-9" points="831.52 223.73 830.41 227.25 825.22 233.03 840.53 233.32 839.59 227.69 831.52 223.73"/><polygon class="cls-19" points="787.02 214.26 780.14 212.07 778.95 213.92 794.68 223.44 795.75 221.81 787.02 214.26"/><polygon class="cls-9" points="799.48 212.09 791.92 211.55 780.14 212.07 795.75 221.81 798.75 217.29 799.48 212.09"/><polygon class="cls-23" points="805.84 202.14 798.07 197.59 792.61 211.52 798.75 217.29 807.8 209.21 805.84 202.14"/><polygon class="cls-27" points="833.3 208.17 824.27 215.04 830.41 227.25 839.59 227.69 838.58 214.03 833.3 208.17"/><polygon class="cls-27" points="821.6 194.44 812.92 190.25 798.07 197.59 807.8 209.21 829.35 204.66 821.6 194.44"/><polygon class="cls-15" points="825.64 197.47 822.32 203.69 824.27 215.04 838.58 214.03 841.59 196.22 825.64 197.47"/><polygon class="cls-23" points="818.85 180.41 813.14 186.99 812.92 190.25 822.32 203.69 841.59 196.22 841.88 191.21 818.85 180.41"/><polygon class="cls-10" points="841.25 165.38 846.99 155 855.73 153.76 857.77 169.62 854.61 170.86 844.39 174.3 841.25 165.38"/><polygon class="cls-19" points="819.14 176.37 825.07 191.4 841.88 191.21 844.39 174.3 821.88 166.1 819.14 176.37"/><polygon class="cls-9" points="822.61 165.53 814.4 170.57 813.14 186.99 825.07 191.4 827.52 171.74 822.61 165.53"/><polygon class="cls-9" points="822.05 160.87 826.04 172.18 830.77 174.97 844.39 174.3 846.99 155 844.84 155.34 822.05 160.87"/><polygon class="cls-10" points="817.11 151.26 814.4 170.57 824.1 173.67 827.38 173.33 828.29 169.81 837.06 151.79 826.72 153.56 826.37 158.23 821.69 151.79 817.11 151.26"/><polygon class="cls-22" points="826.87 153.38 819.24 151.48 828.29 169.81 844.84 155.34 841.46 154.75 826.87 153.38"/><polygon class="cls-17" points="819.57 147.48 829.41 165.72 833.77 160.78 840.33 152.93 834.57 153.22 828.2 147.67 823.01 147.92 819.57 147.48"/><polygon class="cls-16" points="841.46 154.75 829.41 165.72 838.32 154.42 834.88 153.79 827.95 148.56 830.43 121.38 841.62 125.17 843.47 137.76 844.42 144.05 841.46 154.75"/><polygon class="cls-17" points="844.42 144.05 841.16 139.62 843.19 139.3 845.77 140.35 844.42 144.05"/><polygon class="cls-23" points="839.99 125.63 841.16 139.62 843.91 134.56 846.19 134.76 848.27 133.29 850.22 127.65 847.75 124.39 841.51 123.82 839.99 125.63"/><polygon class="cls-18" points="842.56 132.38 841.16 139.62 845.77 140.35 848.27 133.29 842.56 132.38"/><polygon class="cls-17" points="843.91 134.56 843.26 137.44 845.88 134.74 843.91 134.56"/><polygon class="cls-18" points="812.39 152.21 834.88 153.79 838.65 126.78 829.69 117.61 816.55 117.75 811.97 125.07 812.39 152.21"/><polygon class="cls-16" points="823.57 133.67 822.27 132.26 821.89 130.27 817.72 128.45 814.43 128.93 821.51 140.24 823.57 133.67"/><polygon class="cls-16" points="824.08 133.5 825.24 140.34 834.53 129.65 831.29 128.98 826.75 130.33 825.94 132.54 824.08 133.5"/><polygon class="cls-17" points="823.81 142.36 821.51 140.24 823.22 139.41 825.39 140.33 823.81 142.36"/><polygon class="cls-20" points="822.27 132.26 825.94 132.54 825.39 140.33 821.51 140.24 822.27 132.26"/><polygon class="cls-23" points="814.87 127.43 821.93 128.43 821.89 130.27 814.43 128.93 814.87 127.43"/><polygon class="cls-23" points="826.68 128.53 826.75 130.33 834.67 129.64 834.86 127.98 826.68 128.53"/><polygon class="cls-17" points="818.66 143.41 820.84 148.51 825.83 148.85 828.98 144.24 818.66 143.41"/><polygon class="cls-21" points="820.6 144.53 821.51 147.55 825.19 147.82 826.9 145.1 820.6 144.53"/><path class="cls-26" d="M830.55,135c-.06.46-.79.76-1.6.65s-1.44-.59-1.38-1.06.8-.77,1.61-.65S830.62,134.48,830.55,135Z"/><path class="cls-26" d="M820.11,134.19c-.07.47-.8.77-1.61.66s-1.44-.6-1.37-1.06.79-.77,1.6-.66S820.17,133.73,820.11,134.19Z"/><polygon class="cls-22" points="824 173.67 830.77 174.97 831.28 173.04 824.25 171.84 824 173.67"/><polygon class="cls-22" points="823.38 179.02 829.98 180.49 829.73 182.08 823.23 180.71 823.38 179.02"/><polygon class="cls-22" points="822.53 186.05 829.4 186.78 829.21 188.58 822.32 187.72 822.53 186.05"/><polygon class="cls-22" points="858.55 169.78 854.61 170.86 855.73 153.76 859.8 153.19 858.55 169.78"/><polygon class="cls-9" points="830.92 118.55 838 112.4 845.74 113.12 851.23 123.36 836.34 125.12 830.92 118.55"/><polygon class="cls-10" points="814.08 122.67 811.91 120.71 817.48 111.25 838 112.4 839.52 122.74 814.08 122.67"/><polygon class="cls-19" points="838.53 126.78 850.22 127.65 851.23 123.36 839.52 122.74 828.74 123.65 838.53 126.78"/><polygon class="cls-8" points="811.97 125.07 838.65 126.78 839.52 122.74 811.91 120.71 811.97 125.07"/><polygon class="cls-11" points="799.97 110.71 795.22 94.52 852.93 103.48 881.82 141.4 800.27 145.31 799.97 110.71"/><polygon class="cls-12" points="794.55 132.68 826.41 126.13 881.82 141.4 860.46 197.38 795.75 173.6 794.55 132.68"/><polygon class="cls-28" points="776.76 162.35 786.07 153.5 794.93 144.75 798.76 154.34 789.06 165.63 776.76 162.35"/><polygon class="cls-30" points="776.76 162.35 786.07 153.5 789.06 165.63 784.83 170.09 776.76 162.35"/><polygon class="cls-28" points="738.73 168.34 723.91 158.63 714.58 143.28 722.25 139.22 732.11 148.69 738.73 168.34"/><polygon class="cls-30" points="738.73 168.34 726.68 163.12 723.91 158.63 732.11 148.69 738.73 168.34"/><polygon class="cls-37" points="759.65 111.18 765.07 109.45 772.01 113.42 760.37 114.29 759.65 111.18"/><polygon class="cls-22" points="749.67 116.32 743.75 111.55 754.08 108.87 765.07 109.45 764.27 112.7 749.67 116.32"/><polygon class="cls-9" points="747.43 160.53 743.17 152.73 735.94 150.18 734.17 152.75 730.09 165.07 740.67 170.87 747.43 160.53"/><polygon class="cls-22" points="735.94 150.18 732.11 148.69 726.68 163.12 730.09 165.07 735.94 150.18"/><polygon class="cls-19" points="758.95 230.25 753.41 233.34 753.36 235.5 766.76 235.75 766.8 233.62 758.95 230.25"/><polygon class="cls-9" points="757.79 224.03 756.68 227.55 753.41 233.34 766.8 233.62 765.86 227.99 757.79 224.03"/><polygon class="cls-19" points="724.98 223.23 717.97 224.93 717.91 227.13 736.29 227.1 736.37 225.15 724.98 223.23"/><polygon class="cls-9" points="734.51 214.91 727.76 218.38 717.97 224.93 736.37 225.15 736.58 219.72 734.51 214.91"/><polygon class="cls-23" points="734.77 203.1 725.76 203.25 728.34 217.99 736.58 219.72 739.24 209.12 734.77 203.1"/><polygon class="cls-27" points="759.58 208.47 750.54 215.34 756.68 227.55 765.86 227.99 764.85 214.33 759.58 208.47"/><polygon class="cls-27" points="747.87 194.74 739.19 190.55 725.76 203.25 739.24 209.12 755.62 204.97 747.87 194.74"/><polygon class="cls-15" points="751.91 197.77 748.59 203.99 750.54 215.34 764.85 214.33 767.86 196.52 751.91 197.77"/><polygon class="cls-23" points="745.12 180.72 739.41 187.29 739.19 190.55 748.59 203.99 767.86 196.52 768.15 191.51 745.12 180.72"/><polygon class="cls-10" points="767.53 165.68 773.26 155.3 782.01 154.06 784.04 169.92 780.88 171.16 770.66 174.6 767.53 165.68"/><polygon class="cls-19" points="745.41 176.67 751.34 191.7 768.15 191.51 770.66 174.6 748.16 166.41 745.41 176.67"/><polygon class="cls-9" points="748.88 165.83 740.67 170.87 739.41 187.29 751.34 191.7 753.79 172.04 748.88 165.83"/><polygon class="cls-9" points="748.32 161.17 752.31 172.48 757.05 175.27 770.66 174.6 773.26 155.3 771.12 155.64 748.32 161.17"/><polygon class="cls-10" points="743.39 151.56 740.67 170.87 750.37 173.97 753.65 173.63 754.57 170.12 763.34 152.09 752.99 153.86 752.64 158.53 747.96 152.1 743.39 151.56"/><polygon class="cls-22" points="753.14 153.68 745.51 151.78 754.57 170.12 771.12 155.64 767.73 155.05 753.14 153.68"/><polygon class="cls-30" points="745.84 147.78 755.68 166.03 760.04 161.08 766.6 153.24 760.84 153.52 754.47 147.97 749.28 148.22 745.84 147.78"/><polygon class="cls-28" points="767.73 155.05 755.68 166.03 764.59 154.72 761.15 154.09 754.22 148.86 756.71 121.68 767.89 125.47 769.74 138.06 771.22 145.08 767.73 155.05"/><polygon class="cls-30" points="771.22 145.08 767.43 139.92 769.46 139.6 772.55 141.58 771.22 145.08"/><polygon class="cls-23" points="766.26 125.93 767.43 139.92 770.18 134.86 772.46 135.06 774.55 133.59 776.49 127.95 774.02 124.69 767.78 124.12 766.26 125.93"/><polygon class="cls-29" points="768.83 132.68 767.43 139.92 772.55 141.58 774.55 133.59 768.83 132.68"/><polygon class="cls-30" points="770.18 134.86 770.13 138.67 772.15 135.04 770.18 134.86"/><polygon class="cls-29" points="738.66 152.51 761.15 154.09 764.92 127.09 755.96 117.91 742.82 118.05 738.24 125.37 738.66 152.51"/><polygon class="cls-28" points="749.84 133.97 749.09 130.79 748.16 130.57 743.99 128.75 740.7 129.23 747.79 140.54 749.84 133.97"/><polygon class="cls-28" points="750.35 133.8 751.51 140.65 760.8 129.96 757.56 129.28 753.03 130.63 751.63 130.92 750.35 133.8"/><polygon class="cls-30" points="750.08 142.66 747.79 140.54 749.49 139.71 751.66 140.63 750.08 142.66"/><polygon class="cls-32" points="749.09 130.79 751.63 130.92 751.66 140.63 747.79 140.54 749.09 130.79"/><polygon class="cls-23" points="745.33 128.05 748.16 130.57 740.7 129.23 745.33 128.05"/><polygon class="cls-23" points="753.03 130.63 760.94 129.94 756.96 128.74 753.03 130.63"/><polygon class="cls-30" points="744.93 143.71 747.11 148.81 752.1 149.15 755.25 144.54 744.93 143.71"/><polygon class="cls-21" points="746.87 144.83 747.11 146.15 752.55 146.83 753.17 145.4 746.87 144.83"/><path class="cls-26" d="M756.75,134.83a1.5,1.5,0,0,1-3-.41,1.48,1.48,0,0,1,1.68-1.23A1.5,1.5,0,0,1,756.75,134.83Z"/><path class="cls-26" d="M746.24,134.53a1.5,1.5,0,0,1-3-.4,1.5,1.5,0,0,1,3,.4Z"/><polygon class="cls-22" points="750.28 173.97 757.05 175.27 757.55 173.34 750.52 172.14 750.28 173.97"/><polygon class="cls-22" points="749.65 179.32 756.25 180.79 756 182.38 749.5 181 749.65 179.32"/><polygon class="cls-22" points="748.8 185.71 755.67 187.08 755.48 188.88 748.51 187.33 748.8 185.71"/><polygon class="cls-22" points="784.83 170.09 780.88 171.16 782.01 154.06 786.07 153.5 784.83 170.09"/><polygon class="cls-9" points="757.19 118.85 764.27 112.7 772.01 113.42 777.5 123.66 762.61 125.42 757.19 118.85"/><polygon class="cls-27" points="738.24 125.37 733.67 122.4 743.75 111.55 764.27 112.7 765.63 125.08 755.01 123.95 738.24 125.37"/><polygon class="cls-23" points="764.8 127.09 776.49 127.95 777.5 123.66 765.79 123.04 755.01 123.95 764.8 127.09"/><polygon class="cls-11" points="727.44 99.72 708.76 114.7 710.97 166.31 728.23 129.35 727.44 99.72"/><polygon class="cls-13" points="782.06 86.86 795.22 94.52 826.41 126.13 789.06 133.13 772.58 103.56 782.06 86.86"/><polygon class="cls-11" points="779.24 116.42 774.55 133.59 795.75 173.6 826.41 126.13 793.79 118.09 779.24 116.42"/><polygon class="cls-11" points="757.35 66.65 795.22 94.52 793.79 118.09 771.64 117.02 757.35 66.65"/><polygon class="cls-11" points="723.41 91.3 713.04 85.94 708.76 114.7 729.84 108.81 723.41 91.3"/><polygon class="cls-13" points="721.62 62.72 738.41 58.07 775.21 60.93 794.15 68.79 795.22 94.52 782 101.39 738.05 108.09 723.32 97.64 713.04 85.94 721.62 62.72"/><polygon class="cls-11" points="750.11 82.9 752.8 90.08 759.76 83.71 762.11 73.02 775.63 73.29 780.09 75.29 765.92 100.32 768.8 112.83 738.05 108.09 739.66 98.71 731.13 71.33 746.55 71.33 750.36 73.21 750.11 82.9"/><polygon class="cls-24" points="749.31 104.07 739.66 98.71 750.11 82.9 759.76 83.71 765.92 100.32 749.31 104.07"/><polygon class="cls-24" points="749.84 105.95 750.38 115.86 728.23 129.35 708.76 114.7 723.32 97.64 739.66 98.71 749.84 105.95"/><polygon class="cls-24" points="756.81 104.07 750.38 115.86 774.55 133.59 793.79 118.09 782 101.39 765.92 100.32 756.81 104.07"/><polygon class="cls-12" points="739.66 98.71 765.92 100.32 750.38 115.86 739.66 98.71"/><polygon class="cls-11" points="775.21 60.93 802.72 59.86 795.22 94.52 789.3 84.58 786.67 73.58 780.67 69.96 775.21 60.93"/><polygon class="cls-11" points="738.41 58.07 714.12 50.21 713.04 85.94 720.92 77.71 723.55 67.71 731.55 65.46 738.41 58.07"/><polygon class="cls-12" points="731.55 65.46 720.67 60.46 720.92 77.71 731.55 65.46"/><polygon class="cls-12" points="792.55 68.96 780.67 69.96 789.3 84.58 792.55 68.96"/><path class="cls-26" d="M776.3,85.17A5.34,5.34,0,1,1,771,79.83,5.33,5.33,0,0,1,776.3,85.17Z"/><path class="cls-26" d="M744.3,82.5A5.34,5.34,0,1,1,739,77.17,5.33,5.33,0,0,1,744.3,82.5Z"/><polygon class="cls-12" points="780.22 72.29 762.49 69.96 762.11 73.02 780.09 75.29 780.22 72.29"/><polygon class="cls-12" points="750.67 70.02 731.59 67.79 731.13 71.33 750.36 73.21 750.67 70.02"/></g></svg>