<svg id="ILLUSTRATION" xmlns="http://www.w3.org/2000/svg" viewBox="0 0 900 350"><defs><style>.cls-1,.cls-21{fill:#dcdcdb;}.cls-2,.cls-77{fill:#c3c3c3;}.cls-3,.cls-69{fill:#ebebea;}.cls-4{fill:#bfda8e;}.cls-34,.cls-46,.cls-5,.cls-9{fill:#2b2b2b;}.cls-5,.cls-9{opacity:0.1;}.cls-18,.cls-6{fill:#74c7a5;}.cls-17,.cls-7{fill:#54af8a;}.cls-8{fill:#9ecd7e;}.cls-14,.cls-15,.cls-16,.cls-17,.cls-18,.cls-21,.cls-22,.cls-23,.cls-24,.cls-25,.cls-29,.cls-30,.cls-31,.cls-32,.cls-33,.cls-34,.cls-35,.cls-36,.cls-37,.cls-38,.cls-39,.cls-40,.cls-41,.cls-42,.cls-43,.cls-44,.cls-45,.cls-47,.cls-62,.cls-63,.cls-64,.cls-65,.cls-67,.cls-68,.cls-69,.cls-76,.cls-77,.cls-78,.cls-9{fill-rule:evenodd;}.cls-10{fill:#848585;}.cls-11,.cls-15{fill:#a2a1a1;}.cls-12,.cls-14{fill:#8e8e8e;}.cls-13,.cls-76{fill:#cecdcc;}.cls-16,.cls-72{fill:#3f8e6f;}.cls-19,.cls-25{fill:#738c57;}.cls-20{fill:#98c16c;}.cls-22,.cls-26{fill:#50a8a9;}.cls-23,.cls-27{fill:#734d61;}.cls-24,.cls-28{fill:#e4c723;}.cls-29,.cls-75{fill:#95637c;}.cls-30,.cls-61{fill:#3a9fb9;}.cls-31,.cls-49{fill:#c2977a;}.cls-32{fill:#d0ab91;}.cls-33,.cls-52{fill:#debca4;}.cls-35,.cls-56{fill:#737474;}.cls-36{fill:#755924;}.cls-37{fill:#836528;}.cls-38,.cls-53{fill:#8a6651;}.cls-39{fill:#9c782c;}.cls-40{fill:#cbad2d;}.cls-41{fill:#4f5353;}.cls-42,.cls-48{fill:#474748;}.cls-43,.cls-54{fill:#e8c9b6;}.cls-44{fill:#674837;}.cls-45,.cls-59{fill:#fff;}.cls-47{fill:#f3d65c;}.cls-50{fill:#6f7273;}.cls-51{fill:#1d7678;}.cls-55{fill:#318ea5;}.cls-57{fill:#72cbcb;}.cls-58{fill:#369395;}.cls-60{fill:#28788b;}.cls-62{fill:#795d88;}.cls-63{fill:#594265;}.cls-64{fill:#8f759f;}.cls-65{fill:#a587b8;}.cls-66,.cls-68{fill:#543042;}.cls-67{fill:#b2879c;}.cls-70{fill:#5a753d;}.cls-71{fill:#35785e;}.cls-73{fill:#709c52;}.cls-74{fill:#44622d;}.cls-78,.cls-79{fill:none;stroke:#c3c3c3;stroke-miterlimit:10;}</style></defs><title>diplomats_Campaigner_ENFP_workplace_habits</title><g id="wall"><polygon class="cls-1" points="41 36 26.5 0.17 7.83 10.17 1.17 294.17 25.83 303.5 41 36"/><polygon class="cls-2" points="851 44.5 879 0 896.5 17 899.5 291.5 879.5 299.5 851 44.5"/><polygon class="cls-1" points="879 0 417.83 26.17 383.59 108.59 416.5 236.17 879.5 299.5 879 0"/><polygon class="cls-3" points="26.5 0.17 417.83 26.17 416.5 236.17 25.83 303.5 26.5 0.17"/><polygon class="cls-4" points="26.75 21.25 417.58 38.83 429.33 40.33 417.67 47.08 26.75 31.75 26.75 21.25"/><polygon class="cls-5" points="698.75 221.25 656.75 216.5 692.75 225.75 704.64 229.79 715.19 228.52 698.75 221.25"/><polygon class="cls-4" points="879.08 19.5 417.58 38.83 417.67 47.08 879.08 30.58 879.08 19.5"/></g><g id="paper_on_the_wall" data-name="paper on the wall"><polygon class="cls-5" points="842.8 117.01 861.59 96.23 863.1 158.01 862.07 176.67 800.56 177.08 800.15 138.13 842.8 117.01"/><polygon class="cls-6" points="815.73 141.3 793.52 160.47 788.6 172.78 852.58 173.32 858.13 155.19 815.73 141.3"/><polygon class="cls-6" points="797.71 96.23 861.59 96.23 858.13 155.19 793.52 160.47 797.71 96.23"/><polygon class="cls-7" points="803.81 108.6 839.31 109.76 839.17 112.91 803.6 112.19 803.81 108.6"/><polygon class="cls-7" points="828.38 120.29 851.78 121.19 851.82 123.93 828.38 122.85 828.38 120.29"/><polygon class="cls-7" points="828.58 128.9 851.93 130.08 851.98 132.82 828.38 131.97 828.58 128.9"/><polygon class="cls-7" points="827.65 138.41 852.11 139.38 852.15 142.12 827.58 140.97 827.65 138.41"/><polygon class="cls-7" points="800.57 146.83 852.26 148.13 852.3 150.87 800.49 149.4 800.57 146.83"/><polygon class="cls-7" points="803.5 119.33 823.46 119.88 822.09 140.11 802 139.01 803.5 119.33"/><polygon class="cls-7" points="827.73 160.88 849.77 160.68 848.44 163.04 826.7 162.63 827.73 160.88"/><polygon class="cls-8" points="805.34 92.74 805.55 99.92 810.26 99.92 810.06 92.85 805.34 92.74"/><polygon class="cls-8" points="841.16 92.81 841.05 100.09 844.85 99.89 845.57 93.22 841.16 92.81"/></g><g id="shadows"><polygon class="cls-9" points="122.83 287.17 123.5 159 91 158.5 50.5 202 57.5 235.5 40.5 271 41.5 301 126.83 326.5 201.83 306.17 122.83 287.17"/><polygon class="cls-9" points="223.17 289.83 295.17 272.33 387.5 283.5 307.5 307 223.17 289.83"/><polygon class="cls-9" points="533 197.5 583.75 224.5 673.75 223.5 691.83 192.83 697.83 173.5 681.5 149.83 642.83 145.83 633.5 171.17 611.83 174.5 591.5 186.5 612.17 164.83 581.83 163.17 574.33 146.83 550.25 145 535 139.25 517.25 142.5 517.75 162.75 533 197.5"/><polygon class="cls-9" points="798.5 189 782 186.5 774 154.5 738.5 152.5 731.5 171.49 696.5 246 358.17 313.17 636.5 349.5 803.5 289 798.5 189"/><polygon class="cls-9" points="298.5 162.5 316.83 200.5 317.17 216.5 136.83 241.17 166.17 195.17 298.5 162.5"/></g><g id="chair"><polygon class="cls-10" points="762.67 288.67 760.25 298.75 748.83 297.5 739.83 272.17 759.5 268.83 762.67 288.67"/><polygon class="cls-11" points="762.83 186.83 769.75 174.25 720.34 171.6 740.17 190.17 762.83 186.83"/><polygon class="cls-10" points="745.25 194.75 759.13 176.5 769.75 174.25 765.5 261.25 769.5 295.5 760.25 298.75 753.25 275.75 728 283.25 724.25 258.5 745.25 194.75"/><polygon class="cls-10" points="720.5 263.17 754.75 255.5 712.83 239.83 720.5 263.17"/><polygon class="cls-12" points="709.25 250.5 754.75 255.5 759.13 176.5 708.83 173.5 709.25 250.5"/><polygon class="cls-13" points="665.17 177.5 671.5 167.63 612.13 163.25 642.5 180.83 665.17 177.5"/><polygon class="cls-10" points="647.58 185.42 659.67 169.5 671.5 167.63 669.67 254.25 671.83 286.17 662.58 289.42 655.58 266.42 630.33 273.92 626.58 249.17 647.58 185.42"/><polygon class="cls-11" points="611.58 241.17 657.08 246.17 659.67 169.5 620.88 167 611.58 241.17"/><polygon class="cls-5" points="562.83 174.17 570.63 160.25 511.63 156.13 540.17 177.5 562.83 174.17"/><polygon class="cls-10" points="545.25 182.08 558.75 162.31 570.63 160.25 565.5 248.58 569.5 282.83 560.25 286.08 553.25 263.08 528 270.58 524.25 245.83 545.25 182.08"/><polygon class="cls-11" points="509.25 237.83 554.75 242.83 558.75 162.31 538.5 161.38 509.25 237.83"/></g><g id="table"><polygon class="cls-14" points="277.17 256.5 306.17 296.83 359.83 284.5 364.17 251.5 277.17 256.5"/><polygon class="cls-15" points="255.5 254.83 251.17 257.5 253.17 289.83 306.17 296.83 307.17 265.5 255.5 254.83"/><polygon class="cls-16" points="301.5 242.17 307.17 265.5 370.83 256.17 371.83 244.17 301.5 242.17"/><polygon class="cls-17" points="277.5 246.5 243.83 248.17 244.83 261.17 307.17 265.5 309.5 254.5 277.5 246.5"/><polygon class="cls-18" points="243.83 248.17 309.5 254.5 371.83 244.17 315.5 238.5 243.83 248.17"/><polygon class="cls-5" points="269.88 246.75 314.25 241 350.5 244.63 306.25 251.38 269.88 246.75"/><polygon class="cls-7" points="335.63 203.25 336.75 198.25 354.06 213.88 335.44 220.31 335.63 203.25"/><polygon class="cls-19" points="297.75 240.38 302.13 223.5 309.75 229.75 314.13 229.88 318.75 232.25 315.5 241.13 297.75 240.38"/><polygon class="cls-20" points="300 240.88 307 233.5 311.5 237.38 318.75 232.25 324.58 244.88 308 248.38 300 240.88"/><polygon class="cls-4" points="302.13 223.5 289 247.38 308 248.38 307 233.5 303 233.88 302.13 223.5"/><polygon class="cls-20" points="333.75 213.58 334.92 197.42 336.75 198.25 336.56 244.5 334.44 245.06 333.75 213.58"/><polygon class="cls-4" points="332.25 244.42 333 198 334.92 197.42 334.44 245.06 332.25 244.42"/></g><g id="whiteboard"><polygon class="cls-21" points="211.5 129.5 185.83 106.83 184.5 109.5 210.17 132.17 211.5 129.5"/><polygon class="cls-11" points="141 230 159.33 66.67 323.5 70.17 325.5 206 141 230"/><polygon class="cls-3" points="159.17 207.17 162.5 78.83 312.5 81.17 313 192.5 159.17 207.17"/><path class="cls-22" d="M257.87,132.82a3.56,3.56,0,1,0,3.33,3.55A3.44,3.44,0,0,0,257.87,132.82Z"/><path class="cls-23" d="M248.67,142.59A3.34,3.34,0,1,0,252,139,3.45,3.45,0,0,0,248.67,142.59Z"/><path class="cls-24" d="M267.05,142.59a3.34,3.34,0,1,1-3.33-3.55A3.45,3.45,0,0,1,267.05,142.59Z"/><path class="cls-25" d="M257.87,152.43a3.56,3.56,0,1,1,3.33-3.55A3.44,3.44,0,0,1,257.87,152.43Z"/><ellipse class="cls-26" cx="250.8" cy="131.53" rx="1.34" ry="1.43"/><path class="cls-22" d="M255.27,128.05a1.43,1.43,0,1,0,1.33,1.42A1.38,1.38,0,0,0,255.27,128.05Z"/><path class="cls-22" d="M260.46,128.05a1.43,1.43,0,1,0,1.34,1.42A1.38,1.38,0,0,0,260.46,128.05Z"/><ellipse class="cls-26" cx="264.92" cy="131.53" rx="1.34" ry="1.43"/><path class="cls-25" d="M250.8,152.29a1.43,1.43,0,1,0,1.33,1.43A1.39,1.39,0,0,0,250.8,152.29Z"/><path class="cls-25" d="M255.27,154.35a1.43,1.43,0,1,0,1.33,1.43A1.39,1.39,0,0,0,255.27,154.35Z"/><path class="cls-25" d="M260.46,154.35a1.43,1.43,0,1,0,1.34,1.43A1.39,1.39,0,0,0,260.46,154.35Z"/><path class="cls-25" d="M264.92,152.29a1.43,1.43,0,1,0,1.34,1.43A1.39,1.39,0,0,0,264.92,152.29Z"/><path class="cls-23" d="M247.47,148.74a1.43,1.43,0,1,0,1.34,1.42A1.38,1.38,0,0,0,247.47,148.74Z"/><ellipse class="cls-27" cx="245.54" cy="145.39" rx="1.34" ry="1.43"/><path class="cls-23" d="M245.54,141.28a1.43,1.43,0,1,0-1.34-1.43A1.39,1.39,0,0,0,245.54,141.28Z"/><path class="cls-23" d="M247.47,133.66a1.43,1.43,0,1,0,1.34,1.43A1.39,1.39,0,0,0,247.47,133.66Z"/><path class="cls-24" d="M268.25,148.74a1.43,1.43,0,1,0,1.34,1.42A1.38,1.38,0,0,0,268.25,148.74Z"/><ellipse class="cls-28" cx="270.18" cy="145.39" rx="1.34" ry="1.43"/><path class="cls-24" d="M268.85,139.85a1.34,1.34,0,1,0,1.33-1.43A1.39,1.39,0,0,0,268.85,139.85Z"/><path class="cls-24" d="M268.25,136.51a1.43,1.43,0,1,0-1.33-1.42A1.38,1.38,0,0,0,268.25,136.51Z"/><polygon class="cls-21" points="227 91.75 233.5 95.83 264 107.25 295.25 135.5 293 137.5 262.5 109.75 225.17 95.58 227 91.75"/><polygon class="cls-1" points="261.5 106.75 212.75 131 216 132.5 255.17 113.5 261.5 106.75"/><polygon class="cls-1" points="282.25 171 231.25 174.5 232.25 178.5 282 174.75 282.25 171"/><polygon class="cls-21" points="294.5 137.17 282.17 173.5 286.17 175.5 298.17 137.5 294.5 137.17"/><polygon class="cls-21" points="292.17 90.83 292.83 135.5 296.5 135.17 295.17 129.17 294.5 90.5 292.17 90.83"/><polygon class="cls-21" points="186.75 101 209 131 211.5 129.5 189.25 100 186.75 101"/><polygon class="cls-21" points="188.33 162.5 226.83 179.83 228.33 176 191.33 161.17 188.33 162.5"/><polygon class="cls-29" points="225.17 84.83 217.5 96.5 233.5 95.83 225.17 84.83"/><polygon class="cls-25" points="188.17 154.17 180.5 165.83 198.17 166.67 188.17 154.17"/><polygon class="cls-25" points="281.83 166.5 274.17 178.17 290.17 177.5 281.83 166.5"/><polygon class="cls-30" points="230.17 170.83 222.5 184.5 241.83 182.17 230.17 170.83"/><polygon class="cls-24" points="263.5 100.83 255.17 113.5 272.83 112.83 263.5 100.83"/><polygon class="cls-29" points="295.17 129.17 287.17 141.17 303.17 139.83 295.17 129.17"/><polygon class="cls-29" points="212.11 123.83 204.5 135.17 220.5 134.67 212.11 123.83"/><polygon class="cls-24" points="186.83 93.33 179.83 104.67 194.83 103.67 186.83 93.33"/><polygon class="cls-30" points="293.17 83.83 285.83 94.5 300.5 94.5 293.17 83.83"/></g><g id="Layer_6" data-name="Layer 6"><polygon class="cls-31" points="456.87 176.64 452.07 178.5 441.07 172.76 444.32 166.1 452.9 167.65 456.87 176.64"/><polygon class="cls-32" points="460.9 168.74 452.9 167.65 452.07 178.5 463.34 182.06 467.41 177.26 460.9 168.74"/><polygon class="cls-33" points="470.35 182.06 466.07 174.13 462.29 167.65 453.93 162.38 452.38 164.71 458.89 170.13 458.58 174 470.35 182.06"/><polygon class="cls-33" points="501.83 155.38 477.15 181.31 479.51 186.22 493.65 180.79 501.46 174.13 500.59 162.75 501.83 155.38"/><polygon class="cls-31" points="493.65 180.79 466.07 174.13 463.34 182.06 480.65 190.38 493.65 180.79"/><polygon class="cls-34" points="547.52 153.38 528.02 148.93 532.64 132.52 547.52 153.38"/><polygon class="cls-35" points="565.39 111.32 572.64 134.12 555.19 124.18 565.39 111.32"/><polygon class="cls-36" points="520.82 282.57 539.57 282.18 540.38 276.57 531.47 276.57 520.82 282.57"/><polygon class="cls-33" points="533.11 160.33 538.5 161.38 543 197 529.75 191.38 532.5 182.35 531.33 166.52 533.11 160.33"/><polygon class="cls-36" points="494.46 268.97 511.22 259.42 508.82 254.23 500.49 261.47 494.46 268.97"/><polygon class="cls-37" points="521.6 247.09 506.9 241.17 497.79 221.66 527.03 229.04 521.6 247.09"/><polygon class="cls-33" points="497.98 249.69 492.88 267.1 495.19 266.54 497.85 265.17 505.13 258.01 506.42 253.68 504.64 250.12 501.46 244.32 497.98 249.69"/><polygon class="cls-31" points="494.42 222.24 497.98 249.69 504.64 250.12 506.9 241.17 500.91 221.07 494.42 222.24"/><polygon class="cls-33" points="531.33 261.62 532.22 269.23 520.11 280.22 522.89 281.17 534.08 278.49 538.59 275.28 539.56 270.39 531.33 261.62"/><polygon class="cls-31" points="526.48 257.26 532.22 269.23 539.56 270.39 537.33 253.43 534.48 248.44 526.48 257.26"/><polygon class="cls-38" points="537.21 253.38 526.48 257.26 521.6 247.09 530.96 244.32 537.21 253.38"/><polygon class="cls-38" points="508.5 234.9 506.9 241.17 494.42 222.24 504.29 218.47 508.5 234.9"/><polygon class="cls-33" points="533.11 160.33 501.83 155.38 511.6 171.19 533.11 160.33"/><polygon class="cls-39" points="533.11 160.33 532.5 182.35 517.49 175.07 511.73 168.88 533.11 160.33"/><polygon class="cls-39" points="511.73 168.88 501.83 155.38 493.65 180.79 506.8 176.88 511.73 168.88"/><polygon class="cls-36" points="532.5 182.35 532.05 196.5 511.67 216.16 493.65 180.79 511.73 168.88 532.5 182.35"/><polygon class="cls-24" points="530.6 203.7 494.42 222.24 522.42 247.42 528.99 246.31 545.07 212.11 530.6 203.7"/><polygon class="cls-40" points="545.07 212.11 521.6 247.09 537.33 253.43 545.07 212.11"/><polygon class="cls-34" points="474.95 103.71 472.87 113.02 485.86 116.05 487.17 100.5 474.95 103.71"/><polygon class="cls-41" points="484.61 85.19 470.43 98.59 480.23 104.64 485.33 102.92 490.55 90.94 484.61 85.19"/><polygon class="cls-42" points="470.43 98.59 485.33 102.92 491.63 109.56 485.86 116.05 470.43 98.59"/><polygon class="cls-42" points="572.64 134.12 545.43 138.6 533.16 136.51 536.73 122.27 546.19 113.16 572.64 134.12"/><polygon class="cls-37" points="488.23 107.39 480.08 120.8 489.02 126.91 488.79 121.28 486.43 119.63 488.58 116.02 490.15 113.21 488.23 107.39"/><polygon class="cls-33" points="538.06 124.69 530.21 141.07 520.21 155.38 510 153.21 506.09 144.54 487.03 145.08 484.61 85.19 524.1 107.36 538.06 124.69"/><polygon class="cls-31" points="519.84 119.31 518.64 145.09 506.09 144.54 510.7 154.66 509.68 160.78 523.84 158.63 533.16 136.51 533.34 131.96 538.06 124.69 527.38 109.32 519.84 119.31"/><polygon class="cls-31" points="495.03 101.98 496.43 103.85 496.91 116.16 490.75 106.78 488.34 103.2 495.03 101.98"/><polygon class="cls-31" points="500.5 103.67 504.05 101.42 512.86 103.65 504.74 112.1 501.7 120.26 500.5 103.67"/><polygon class="cls-38" points="525.82 129.56 533.16 136.51 538.06 124.69 532.24 114.08 522.82 118.62 525.82 129.56"/><polygon class="cls-43" points="500.5 103.67 496.43 103.85 497.07 120.43 501.7 120.26 500.5 103.67"/><polygon class="cls-38" points="501.7 120.26 499.41 123.16 497.07 120.43 501.7 120.26"/><polygon class="cls-38" points="484.76 89.05 519.68 121.48 527.08 123.07 526.21 115.81 504.05 101.42 484.61 85.19 484.76 89.05"/><polygon class="cls-41" points="551.75 105.3 555.69 100.33 580.91 103.53 551.21 135.42 542.78 122.26 536.11 108.68 551.75 105.3"/><polygon class="cls-35" points="558.27 110.34 580.91 103.53 548.23 88.58 548.95 101.05 558.27 110.34"/><polygon class="cls-41" points="510.03 73.06 540.02 70.78 558.27 110.34 527.77 91.71 510.03 73.06"/><polygon class="cls-34" points="494.24 97.47 488.34 103.2 495.03 101.98 494.24 97.47"/><polygon class="cls-37" points="515.18 126.19 499.49 124.33 489.36 128 500.43 140.8 515.18 126.19"/><polygon class="cls-44" points="506.71 131.34 501.86 128.07 495.69 132.12 498.56 135.51 502.73 135.24 506.71 131.34"/><polygon class="cls-45" points="506.71 131.34 495.69 132.12 492.82 128.72 510.69 127.44 506.71 131.34"/><polygon class="cls-36" points="525.2 118.06 525.82 129.56 541.57 129.06 541.45 126.39 538.06 124.69 529.96 124.82 529.77 120.42 525.2 118.06"/><polygon class="cls-38" points="506.09 144.54 523.12 143.87 509.68 160.78 506.09 144.54"/><polygon class="cls-34" points="540.74 108.93 551.21 135.42 525.2 118.06 540.74 108.93"/><path class="cls-46" d="M489.31,108.9a2.42,2.42,0,1,0,3-1.67A2.4,2.4,0,0,0,489.31,108.9Z"/><path class="cls-46" d="M504.43,108.17a2.42,2.42,0,1,0,3-1.67A2.43,2.43,0,0,0,504.43,108.17Z"/><polygon class="cls-42" points="478.76 79.52 519.84 119.31 558.27 110.34 521.06 94.29 478.76 79.52"/><polygon class="cls-14" points="478.76 79.52 499.31 64.77 558.27 110.34 478.76 79.52"/><polygon class="cls-34" points="572.64 134.12 533.16 136.51 547.52 153.38 572.64 134.12"/><polygon class="cls-31" points="539.56 270.39 534.08 278.49 517.62 279.69 520.82 282.57 540.38 276.57 539.56 270.39"/><polygon class="cls-39" points="525.93 274.94 529 280.06 526.48 280.83 523.92 276.76 525.93 274.94"/><polygon class="cls-31" points="504.64 250.12 505.13 258.01 490.38 267.58 494.46 268.97 508.82 254.23 504.64 250.12"/><polygon class="cls-39" points="495.26 258.96 500.65 262.61 499.03 264.28 494.49 261.6 495.26 258.96"/><polygon class="cls-47" points="494.42 222.24 545.07 212.11 532.05 196.5 494.42 222.24"/></g><g id="Layer_5" data-name="Layer 5"><polygon class="cls-12" points="592.18 168.79 572.89 200.29 585.12 208.76 585.12 201.54 582.96 191.92 586.73 185.26 592.18 168.79"/><polygon class="cls-48" points="564.16 197.05 558.47 206.23 565.04 208.96 579.35 212.61 587.86 212.15 586.01 203.71 583.92 198.74 564.16 197.05"/><polygon class="cls-48" points="618.24 280.64 621.81 288.38 619.2 295.23 618.24 280.64"/><polygon class="cls-49" points="607.9 284.05 609.42 279.36 618.24 280.64 619.08 290.06 619.2 292.43 609.26 290.06 607.01 286.57 607.9 284.05"/><polygon class="cls-50" points="619.2 292.43 607.01 286.57 603.21 292.43 609.18 293.59 619.2 292.43"/><polygon class="cls-48" points="619.2 292.43 619.2 295.23 603.21 295.23 603.21 292.43 619.2 292.43"/><polygon class="cls-51" points="615.59 246.8 618.6 281.32 608.7 281.56 607.01 244.68 615.59 246.8"/><polygon class="cls-48" points="583.62 291.99 585.91 291.9 587.39 282.84 585.23 276.63 580.54 280.28 581.74 283.89 583.62 291.99"/><polygon class="cls-49" points="572.51 280.84 574.78 276.54 585.23 276.63 579.98 286.93 578.69 288.58 572.88 286.85 571.17 283.02 572.51 280.84"/><polygon class="cls-50" points="578.69 289.14 571.17 283.02 564.18 289.14 571.88 290.3 578.69 289.14"/><polygon class="cls-48" points="581.66 283.65 582.94 285.01 583.1 288.06 576.77 292.06 564.18 292.06 564.18 289.14 574.64 289.14 581.66 283.65"/><polygon class="cls-52" points="580.31 91.69 604.21 97.63 625.7 105.49 623.93 115.35 618.28 126.89 620.76 126.77 622.53 129.7 625.29 124.53 627.54 122.28 631.11 124.01 634.96 128.34 633.83 130.98 630.67 134.67 627.82 138.84 616.43 164.14 596.39 167.99 596.55 156.36 594.71 148.62 586.09 145.46 573.26 141.73 574.62 117.79 580.31 91.69"/><polygon class="cls-49" points="605.97 122.12 602.44 113.82 593.02 113.58 587.45 127.58 591.62 108.49 601.36 109.05 607.17 113.58 609.58 117.79 605.97 122.12"/><polygon class="cls-49" points="577.03 106.73 583.32 111.3 583.72 119.72 589.5 106.65 577.03 106.73"/><polygon class="cls-49" points="608.22 125.97 588.29 125.37 588.53 122.56 608.22 125.97"/><polygon class="cls-49" points="574.58 118.67 582.68 124.13 583.4 121.16 574.58 118.67"/><polygon class="cls-49" points="619.32 103.56 610.74 111.02 608.22 125.97 606.49 148.46 596.39 167.99 605.65 167.15 616.43 164.14 627.82 138.84 621.57 135.15 622.53 129.7 618.28 126.89 625.7 105.49 619.32 103.56"/><polygon class="cls-53" points="627.82 138.84 621.57 135.15 623.45 148.5 627.82 138.84"/><polygon class="cls-53" points="573.26 141.73 612.31 149.38 602.16 166.86 599.76 168.39 596.39 167.99 594.71 148.62 573.26 141.73"/><polygon class="cls-46" points="607.37 107.47 605.97 104.79 595.49 104.97 607.37 107.47"/><polygon class="cls-46" points="588.53 103.36 583.88 98.15 579.95 98.99 588.53 103.36"/><polygon class="cls-54" points="591.9 107.01 587.45 127.58 582.04 126.77 587.05 106.29 591.9 107.01"/><polygon class="cls-53" points="587.45 127.58 584.56 130.46 582.04 126.77 587.45 127.58"/><polygon class="cls-53" points="630.99 129.86 628.22 127.06 625.29 131.42 630.99 129.86"/><polygon class="cls-55" points="591.9 107.01 610.74 111.02 608.22 125.97 588.53 122.56 589.25 119.24 605.97 122.12 607.17 113.58 591.3 109.98 591.9 107.01"/><polygon class="cls-55" points="569.57 101.48 587.05 106.29 586.33 109.13 572.06 105.49 570.49 113.94 584.12 118.31 583.4 121.16 566.68 116.47 569.57 101.48"/><polygon class="cls-48" points="580.31 91.69 602.64 76.62 601.92 87.97 598.8 97.31 580.31 91.69"/><polygon class="cls-56" points="602.64 76.62 638.97 89.05 641.61 95.38 641.45 100.72 633.75 103.88 625.7 105.49 619.32 103.56 598.8 97.31 602.64 76.62"/><polygon class="cls-48" points="641.45 100.72 642.98 104.56 642.57 107.53 645.42 124.53 632.83 122.52 621.33 118.15 625.7 105.49 641.45 100.72"/><polygon class="cls-46" points="645.42 124.53 621.33 118.15 618.28 126.89 622.53 129.7 627.54 122.28 634.96 128.34 630.67 134.67 645.42 124.53"/><polygon class="cls-46" points="642.61 107.61 654.56 106.53 648.55 98.63 638.97 89.05 641.45 100.72 642.61 107.61"/><polygon class="cls-56" points="638.97 89.05 653.88 81.27 664.46 117.11 654.56 106.53 638.97 89.05"/><polygon class="cls-48" points="616.43 164.14 592.18 168.79 594.67 174.72 600 181.62 613.15 175.08 621.29 167.06 616.43 164.14"/><polygon class="cls-57" points="621.29 167.06 629.38 171.19 626.14 182.5 620.8 193.97 616.19 195.81 599.8 197.49 582.96 191.92 592.18 168.79 600 181.62 621.29 167.06"/><polygon class="cls-51" points="620.8 193.97 582.96 191.92 586.73 219.02 599.04 219.7 613.87 217.42 620.8 193.97"/><polygon class="cls-57" points="613.87 217.42 601.28 232.45 593.62 237.34 587.09 231.25 586.73 219.02 613.87 217.42"/><polygon class="cls-58" points="613.87 217.42 593.62 237.34 591.42 260.19 608.7 281.56 623.25 233.77 613.87 217.42"/><polygon class="cls-26" points="586.73 219.02 580.03 250.73 585.65 247.32 593.62 237.34 586.73 219.02"/><polygon class="cls-51" points="593.62 237.34 580.03 250.73 574.78 276.54 608.7 281.56 593.62 237.34"/><polygon class="cls-12" points="629.38 171.19 648.35 201.86 638.04 200.1 630.75 196.77 620.85 193.88 629.38 171.19"/><polygon class="cls-48" points="630.71 196.77 625.58 214.73 629.3 217.82 633.47 218.14 648.35 201.86 630.71 196.77"/><polygon class="cls-55" points="629.3 223.23 629.78 223.55 630.99 221.31 630.51 221.03 629.3 223.23"/><polygon class="cls-55" points="625.58 222.71 626.62 223.31 628.46 219.94 627.34 219.34 625.58 222.71"/><polygon class="cls-55" points="623.57 220.18 624.09 220.46 625.29 218.26 624.81 217.94 623.57 220.18"/><polygon class="cls-49" points="552.49 198.09 548.72 193.44 551.17 191.76 554.26 193.97 554.22 196.33 552.49 198.09"/><polygon class="cls-52" points="633.47 218.14 627.7 231.69 622.73 230.29 614.16 224.35 625.58 214.73 633.47 218.14"/><polygon class="cls-53" points="614.16 224.35 627.7 231.69 622.48 236.3 614.16 224.35"/><polygon class="cls-53" points="552.49 198.09 557.9 207.11 565.04 208.96 567.16 204.99 562.11 198.38 552.49 198.09"/><polygon class="cls-52" points="556.54 188.67 564.88 194.45 567.16 204.99 552.49 198.09 556.54 188.67"/><path class="cls-46" d="M577.46,111.72a2.07,2.07,0,1,0,2.09-2A2.06,2.06,0,0,0,577.46,111.72Z"/><path class="cls-46" d="M597.49,116.47a2,2,0,1,0,2-2A2.07,2.07,0,0,0,597.49,116.47Z"/><polygon class="cls-59" points="584.3 135.04 597.22 136.36 588.37 139.47 578.94 134.56 584.3 135.04"/><polygon class="cls-60" points="597.22 136.36 586.46 133.99 578.94 134.56 586.61 135.86 595.24 136.41 597.22 136.36"/><polygon class="cls-61" points="597.22 136.36 588.51 140.84 578.94 134.56 587.98 138.21 597.22 136.36"/></g><g id="Layer_4" data-name="Layer 4"><polygon class="cls-62" points="692.11 263.47 684.16 274.22 673.09 271.44 665.02 264.9 673.83 231.14 689.17 254.53 692.11 263.47"/><polygon class="cls-63" points="684.16 274.22 674.41 288.08 662.36 285.21 660.41 282.16 665.02 264.9 684.16 274.22"/><polygon class="cls-64" points="716.65 231.62 673.83 231.14 689.17 254.53 702.42 248.38 716.65 231.62"/><polygon class="cls-65" points="689.17 254.53 693.2 271.44 704.34 276.05 715.49 271.99 720.11 249.48 721.01 240.34 716.65 231.62 689.17 254.53"/><polygon class="cls-62" points="693.2 271.44 696.78 286.67 703.47 290.12 712.23 289.53 715.49 271.99 693.2 271.44"/><polygon class="cls-29" points="696.78 286.67 691.89 298.08 702.02 299.18 712.5 298.08 712.23 289.53 696.78 286.67"/><polygon class="cls-29" points="660.41 282.16 646.45 295.31 662.65 296.4 674.15 295.31 674.41 288.08 660.41 282.16"/><rect class="cls-66" x="691.89" y="298.08" width="20.61" height="3.59" transform="translate(1404.39 599.76) rotate(180)"/><rect class="cls-66" x="646.45" y="295.31" width="27.7" height="3.59" transform="translate(1320.6 594.2) rotate(180)"/><polygon class="cls-45" points="720.34 171.6 695.25 197.56 688.25 170.44 704.84 167.82 720.34 171.6"/><polygon class="cls-67" points="671.15 176.03 665.55 192.78 667.19 208.32 677.52 215.52 678.09 190.36 671.15 176.03"/><polygon class="cls-29" points="669.31 205.39 667.19 208.32 655.34 209.72 657.63 221.81 675.87 222.74 677.06 209.27 669.31 205.39"/><polygon class="cls-23" points="669.79 207.11 670.46 213.42 662.09 221.34 655.34 209.72 661.59 208.8 669.79 207.11"/><polygon class="cls-31" points="663.37 201.77 666.45 198.46 655.18 183.86 652.39 186.48 656.96 194.32 658.81 200 663.37 201.77"/><polygon class="cls-31" points="663.37 199.02 654.13 208.51 660.77 215.13 665.8 210.66 663.37 199.02"/><polygon class="cls-33" points="665.55 192.78 668.57 192.88 669.79 207.11 665.8 210.66 663.37 201.77 665.55 192.78"/><polygon class="cls-43" points="663.37 201.77 656.96 194.32 650.45 205.06 655.34 209.72 663.37 201.77"/><polygon class="cls-29" points="720.34 171.6 696.68 189.22 710.29 200.03 727.05 210.35 732.74 197.36 736.61 180.49 720.34 171.6"/><polygon class="cls-29" points="688.25 170.44 671.15 176.03 676.36 193.38 685.98 195.44 696.68 189.22 688.25 170.44"/><polygon class="cls-23" points="727.05 210.35 722.39 226.69 716.65 231.62 692.01 234.15 691.89 209.72 696.68 189.22 727.05 210.35"/><polygon class="cls-68" points="696.68 189.22 676.36 193.38 673.83 231.14 692.01 234.15 696.68 189.22"/><polygon class="cls-33" points="720.11 249.48 725.37 242.07 716.65 231.62 720.11 249.48"/><polygon class="cls-67" points="736.61 180.49 743.91 206.35 734.3 219.86 727.05 210.35 736.61 180.49"/><polygon class="cls-33" points="688.72 110.26 683 104.08 676.5 102.86 667.05 154.7 684.14 159.04 704.46 160.44 714.33 125.2 716.31 108.59 702.23 106.89 688.72 110.26"/><polygon class="cls-31" points="692.24 162.75 667.05 154.7 704.46 161.5 712.05 123.59 716.31 108.59 724.64 118.78 722.28 126.68 716.49 136.37 719.1 137.07 720.57 139.89 723.64 137.67 726.12 132.29 728.88 136.53 732.23 138.41 727.26 142.5 725.01 147.48 723.57 150.61 722.83 156.89 720.34 171.6 688.16 170.81 692.24 162.75"/><polygon class="cls-42" points="673.75 117.93 671.31 99.89 680.55 101.39 673.75 117.93"/><polygon class="cls-31" points="703.96 120.99 696.24 127.27 689.64 138.78 690.43 128.07 692.24 122.3 694.57 119.21 702.61 116.99 703.96 120.99"/><polygon class="cls-31" points="685.2 117.48 686.87 121.56 687.12 125.78 684.99 130.96 675.57 115.63 681.14 112.13 685.2 117.48"/><polygon class="cls-42" points="693.95 116.37 703.14 114.92 707.23 118.87 703.96 120.99 701.92 118.42 694.57 119.21 693.95 116.37"/><polygon class="cls-42" points="686.87 115.26 680.01 110.63 675.57 115.63 678.16 117.67 681.22 114.15 685.2 117.48 686.87 115.26"/><polygon class="cls-43" points="686.87 121.56 683.72 137.29 686.23 138.99 689.64 138.78 692.24 122.3 686.87 121.56"/><polygon class="cls-38" points="678.74 143.37 695.71 146.48 688.66 152.65 681.84 151.88 678.74 143.37"/><polygon class="cls-33" points="720.57 139.89 719.27 142.85 725.01 147.48 732.23 138.41 726.12 132.29 720.57 139.89"/><polygon class="cls-35" points="688.72 110.26 671.31 99.89 689.83 88.23 691.26 100.31 688.72 110.26"/><polygon class="cls-14" points="688.72 110.26 689.83 88.23 737.97 106.37 727.59 109.55 716.31 108.59 688.72 110.26"/><polygon class="cls-35" points="737.97 106.37 739.82 134.52 731.42 127.43 724.64 118.78 716.31 108.59 737.97 106.37"/><polygon class="cls-42" points="724.64 118.78 716.49 136.37 720.57 139.89 726.12 132.29 732.23 138.41 739.82 134.52 724.64 118.78"/><polygon class="cls-38" points="728.9 138.78 726.67 136.55 723.9 141.18 728.9 138.78"/><polygon class="cls-38" points="725.01 147.48 720.93 144.15 722.76 157.19 725.01 147.48"/><polygon class="cls-38" points="683.72 137.29 686.31 141.55 689.64 138.78 683.72 137.29"/><circle class="cls-46" cx="680.55" cy="123.2" r="2.25"/><path class="cls-46" d="M696.24,127.27a2.25,2.25,0,1,0,2.24-2.25A2.24,2.24,0,0,0,696.24,127.27Z"/><polygon class="cls-38" points="710.87 161.27 667.05 154.7 688.16 163.96 688.16 170.81 710.87 161.27"/><polygon class="cls-45" points="681.82 145.58 682.54 147.72 690.14 148.85 692.02 147.12 681.82 145.58"/></g><g id="table-2" data-name="table"><polygon class="cls-11" points="724.8 278.98 723.81 311.96 701.96 309.64 699.55 284.04 724.8 278.98"/><polygon class="cls-12" points="414.79 284.69 429.77 311.18 443.88 307.06 454.56 269.18 414.79 284.69"/><polygon class="cls-12" points="614.82 300.74 625.63 334.57 643.4 329.39 648.84 311.59 720.79 298.02 723.81 311.96 734.96 308.17 739.15 242.25 584.31 269.06 614.82 300.74"/><polygon class="cls-11" points="406.3 235.13 412.63 308.33 429.77 311.18 433.86 289.89 603.48 311.59 610.26 332.4 625.63 334.57 635.17 267.51 406.3 235.13"/><polygon class="cls-11" points="580.47 239.09 635.17 267.51 748.67 244.8 749.93 225.56 580.47 239.09"/><polygon class="cls-2" points="525.12 237 391.94 221.85 391.94 240.2 635.17 267.51 636.65 252.33 525.12 237"/><polygon class="cls-13" points="504.83 202.62 749.93 225.56 636.65 252.33 391.94 221.85 504.83 202.62"/></g><g id="book"><polygon class="cls-5" points="547.5 235.75 620 223.75 673.83 231.14 615.59 246.8 547.5 235.75"/><polygon class="cls-1" points="600.5 227.5 608 241.25 655.5 230.75 655.25 222 600.5 227.5"/><polygon class="cls-3" points="611.5 225.25 568.25 228.5 567.75 236 608 241.25 608 233 611.5 225.25"/><polygon class="cls-20" points="622 218.5 568.25 228.5 608 233 655.25 222 622 218.5"/><polygon class="cls-1" points="588.67 227.5 607.83 230 618.08 227.58 599.33 225.42 588.67 227.5"/><polygon class="cls-5" points="504.83 202.62 509.75 210.5 519 210.25 522.33 213.33 541 206 504.83 202.62"/><polygon class="cls-5" points="564.83 207.87 572 214.5 601 211.25 564.83 207.87"/></g><g id="paper"><polygon class="cls-69" points="674.45 186.5 674.02 227.89 704.64 229.79 706.96 189.25 674.45 186.5"/><polygon class="cls-31" points="707.8 221.2 701.4 209.24 689.22 214.69 694.4 226.51 704.74 227.68 707.8 221.2"/><polygon class="cls-33" points="717.38 218.81 711.75 214.44 701.4 209.24 704.74 227.68 715.19 228.52 717.38 218.81"/><polygon class="cls-29" points="743.91 206.35 711.75 214.44 715.19 228.52 749.93 225.56 743.91 206.35"/><polygon class="cls-3" points="544.56 175.4 550.6 214.28 579.73 215.37 575.7 175.55 544.56 175.4"/><polygon class="cls-52" points="550.76 198.48 547.02 191.32 543.63 196.31 546.13 206.5 549.43 206.79 550.76 198.48"/><polygon class="cls-49" points="555.25 194.45 547.02 191.32 549.43 206.79 555.87 206.23 555.25 194.45"/><polygon class="cls-31" points="511.33 211.33 500.33 207.5 494.83 214.83 504.17 220.5 512.5 216.5 511.33 211.33"/><polygon class="cls-33" points="500.33 207.5 513.5 207.67 524.33 207.67 522.33 213.33 512.5 216.5 500.33 207.5"/><polygon class="cls-31" points="513.5 207.67 532.33 188.5 543 197 522.33 213.33 513.5 207.67"/></g><g id="ENFP"><polygon class="cls-53" points="210.94 182.13 210.76 188.6 200.47 190.29 196.37 186.28 207.56 168.33 210.13 168.97 210.94 182.13"/><polygon class="cls-50" points="226.6 130.43 198.9 194.66 202.98 196.77 230.4 131.7 226.6 130.43"/><polygon class="cls-49" points="210.13 168.97 216.15 171.39 210.76 188.6 203.83 182.97 210.13 168.97"/><polygon class="cls-52" points="194.19 188.39 199.47 178.19 202.98 170.37 208.33 166.43 210.08 168.96 205.73 174 205.1 183.18 194.19 188.39"/><polygon class="cls-49" points="199.47 178.19 180.32 188.04 174.41 203.52 179.2 212.25 200.59 190.29 199.47 178.19"/><polygon class="cls-70" points="157.41 176.42 164.03 170.79 180.32 188.04 179.76 218.16 161.77 207.39 157.41 176.42"/><polygon class="cls-49" points="98.34 240.04 90.99 245.46 87.14 238.59 98.34 240.04"/><polygon class="cls-52" points="109.96 229.21 104.05 247.53 90.99 245.46 94.14 231.5 109.96 229.21"/><polygon class="cls-49" points="94.91 195.04 79.62 202.73 94.14 231.5 104.85 231.56 104.13 225.28 98.43 204.81 94.91 195.04"/><polygon class="cls-53" points="94.91 195.04 79.62 202.73 84.75 212.95 99.95 210.23 98.43 204.81 94.91 195.04"/><polygon class="cls-71" points="152.59 76.41 159.33 66.5 145.33 66.49 152.59 76.41"/><polygon class="cls-70" points="101.35 172.38 74.64 200.91 99.95 210.23 103.04 206.87 111.5 186.22 101.35 172.38"/><polygon class="cls-7" points="132.47 261.77 127.06 275.62 109.41 275.97 101.48 273.19 102.27 236.49 125.92 250.24 132.47 261.77"/><polygon class="cls-7" points="161.71 270 160.5 235.96 132.92 245.31 132.47 261.77 138.06 275.81 159.08 277.01 161.71 270"/><polygon class="cls-71" points="138.06 275.81 144.89 294.07 161.11 300.17 162.13 290.74 161.71 270 138.06 275.81"/><polygon class="cls-71" points="118.83 297.15 127.06 275.62 101.48 273.19 101 296.14 109.48 302.03 118.83 297.15"/><polygon class="cls-72" points="160.5 235.96 132.47 261.77 102.27 236.49 160.5 235.96"/><polygon class="cls-20" points="139.35 193.17 134.11 211.83 118.59 214.2 103.04 206.87 101.35 172.38 114.22 169.63 135.37 177.28 139.35 193.17"/><polygon class="cls-52" points="120.78 163.78 135.21 170.92 144.38 166.62 148.95 163.56 168.23 164.19 175.3 111.52 173.02 98.12 158.43 101.03 130.17 102.43 122.6 113.53 123.54 128.02 113.6 131.07 120.78 163.78"/><polygon class="cls-49" points="134.63 162.79 136.49 112.68 135.05 103.18 124.85 110.99 119.8 123.89 109.11 128.11 113.06 140.19 115.26 142.21 115.4 147.35 120.67 163.48 125.94 171.5 135.37 177.28 133.41 165.9 134.63 162.79"/><polygon class="cls-53" points="113.09 140.18 119.65 138.07 115.4 147.35 113.09 140.18"/><polygon class="cls-7" points="159.33 66.5 145.71 78.89 144.25 90.23 159.77 106.87 165.1 86.5 159.33 66.5"/><polygon class="cls-53" points="112.63 130.18 116.85 128.67 118.7 135.6 112.63 130.18"/><polygon class="cls-54" points="159.08 140.13 153.41 139.77 154.32 121.72 160 122.09 159.08 140.13"/><polygon class="cls-53" points="159.08 140.13 155.75 142.49 153.41 139.77 159.08 140.13"/><polygon class="cls-59" points="148.79 152.8 143.82 144.64 166.03 146.37 159.82 153.16 148.79 152.8"/><path class="cls-53" d="M145.15,145.45,164.53,147l-5,5.48-10.32-.33-4-6.66m-2.65-1.63,1.44,2.37,4.05,6.65.4.66.76,0,10.32.34.65,0,.44-.48,5-5.49,2-2.14-2.9-.22L145.26,144l-2.76-.22Z"/><polygon class="cls-4" points="155.16 169.24 135.37 177.28 135.05 186.05 135.05 186.05 134.11 211.83 150.43 213.51 161.77 207.39 164.03 170.79 155.16 169.24"/><polygon class="cls-71" points="139.92 116.81 141.44 117.78 149.7 114.32 153.13 116.36 153.87 115.47 151.47 110.42 139.92 116.81"/><polygon class="cls-71" points="162.29 117.19 166.35 117.23 169.41 113.78 174.37 112.41 168.94 111.6 162.29 117.19"/><polygon class="cls-48" points="129.17 182.27 135.05 186.05 140.49 182.2 135.37 177.28 129.17 182.27"/><polygon class="cls-70" points="125.77 209.44 103.04 206.87 102.27 236.49 133.38 245.66 140.49 218.91 125.77 209.44"/><polygon class="cls-73" points="161.77 207.39 134.11 211.83 133.68 219.5 133.38 245.66 160.5 235.96 161.77 207.39"/><polygon class="cls-6" points="176.43 95.73 171.78 80.97 159.33 66.5 159.77 106.87 176.43 95.73"/><polygon class="cls-72" points="104.39 115.85 109.11 128.11 119.36 126.59 122.09 135.25 129.95 133.03 126.78 114.66 117.52 110.63 104.39 115.85"/><polygon class="cls-74" points="136.31 117.37 107.8 124.43 109.11 128.11 136.06 124.11 136.31 117.37"/><polygon class="cls-72" points="125.7 84.29 127.77 98.05 135 103.67 135 103.67 135.15 103.47 159.77 106.87 145.71 78.89 125.7 84.29"/><polygon class="cls-71" points="104.39 115.85 126.78 114.66 135 103.67 125.7 84.29 104.39 115.85"/><polygon class="cls-49" points="138.73 128.69 141.4 122.82 151.39 123.16 152.61 121.17 138.64 119.35 138.73 128.69"/><polygon class="cls-49" points="168.66 122.77 164.4 124.27 162.55 130.49 161.72 120.79 168.66 122.77"/><polygon class="cls-53" points="159.77 106.87 173.67 101.91 173.01 98.09 159.77 106.87"/><polygon class="cls-49" points="162.29 117.19 160.39 119.22 171.28 120.16 174.37 112.41 169.41 113.78 166.35 117.23 162.29 117.19"/><polygon class="cls-49" points="153.13 116.36 153.79 118.87 141.36 117.81 149.7 114.32 153.13 116.36"/><polygon class="cls-49" points="138.39 131.19 153.66 134.79 153.79 132.15 138.39 131.19"/><polygon class="cls-49" points="159.32 135.32 172.28 132.82 159.44 133.16 159.32 135.32"/><polygon class="cls-53" points="148.95 163.56 131.12 162.6 135.37 177.28 142.78 175.04 148.52 166.56 148.95 163.56"/><path class="cls-73" d="M161.39,119.28h0l-.32,0-.93-.08v0l-5.64-.29-18.19-1.54-.52,14,18,.74.56-10.41L160,122l-.57,11.13,18,.75,1-13.12ZM151,129.17l-12.23-.48.3-8.24,12.47,1.11ZM174.78,131l-12.23-.49.31-8.24,12.47,1.11Z"/><path class="cls-46" d="M171.57,125.54a2.07,2.07,0,1,1-2.64-1.25A2.05,2.05,0,0,1,171.57,125.54Z"/><path class="cls-46" d="M150.49,124.05a2.07,2.07,0,1,1-2.64-1.25A2.06,2.06,0,0,1,150.49,124.05Z"/><polygon class="cls-50" points="125.77 209.44 125.77 209.44 133.91 215.51 143.11 210.46 135.05 186.05 125.77 209.44"/><polygon class="cls-48" points="143.11 210.46 125.77 209.44 133.68 219.5 143.11 210.46"/><polygon class="cls-74" points="120.67 163.48 114.22 169.63 127.24 186.41 135.37 177.28 120.67 163.48"/><polygon class="cls-74" points="135.37 177.28 141.83 185.84 155.16 169.24 148.68 165.44 135.37 177.28"/><polygon class="cls-20" points="162.13 290.74 174.53 303.4 157.81 306.18 144.69 303.12 144.89 294.07 162.13 290.74"/><rect class="cls-19" x="144.67" y="303.26" width="29.84" height="3.9" transform="translate(2.95 -1.53) rotate(0.55)"/><polygon class="cls-20" points="118.83 297.15 123.23 308.84 114.6 310.91 98.25 308.51 101 296.14 118.83 297.15"/><polygon class="cls-19" points="123.09 313.48 98.07 313.01 98.25 308.51 123.23 308.84 123.09 313.48"/></g><g id="bubble"><polygon class="cls-69" points="582.42 39.25 570.25 12.25 528.42 0.25 500.58 21.5 510.25 57 523.13 60.42 516.17 67.17 531.53 62.64 555.5 69 582.42 39.25"/><polygon class="cls-69" points="681.25 27.75 653.31 1.33 607.58 15.5 600.83 39.5 622.53 70.7 636.96 67.83 637.17 78.83 644.63 66.3 668.45 61.56 681.25 27.75"/><polygon class="cls-69" points="797.33 67.67 787.75 33.75 739 25.5 717.77 45.88 727.64 82.58 742.5 86.76 734.5 95.17 752.73 89.64 774.17 95.67 797.33 67.67"/><path class="cls-24" d="M552.32,50.24a4.46,4.46,0,1,1-4.46-4.46A4.46,4.46,0,0,1,552.32,50.24Z"/><path class="cls-30" d="M634.36,50.28a4.47,4.47,0,1,1-4.47-4.47A4.47,4.47,0,0,1,634.36,50.28Z"/><circle class="cls-75" cx="759" cy="77.5" r="4.5"/><polygon class="cls-76" points="532.1 42.49 538.74 29.62 540.75 31.53 544.27 26.3 548.5 35.55 550.11 32.84 554.67 43.1 532.1 42.49"/><polygon class="cls-76" points="629.42 41.84 636.07 28.94 638.09 30.85 641.62 25.61 645.85 34.89 647.46 32.16 652.03 42.45 629.42 41.84"/><polygon class="cls-24" points="537.83 15.13 538.03 14.13 538.64 13.25 543.93 15.87 538.03 18.88 537.83 15.13"/><polygon class="cls-77" points="537.43 26.73 537.5 13.25 538.64 13.25 538.43 26.6 537.43 26.73"/><polygon class="cls-30" points="645.99 15.96 646.19 14.97 646.79 14.08 652.1 16.7 646.19 19.73 645.99 15.96"/><polygon class="cls-77" points="645.58 27.59 645.65 14.08 646.79 14.08 646.59 27.46 645.58 27.59"/><polygon class="cls-29" points="752.5 38.32 752.7 37.31 753.31 36.42 758.66 39.06 752.7 42.11 752.5 38.32"/><polygon class="cls-77" points="752.09 50.03 752.16 36.42 753.31 36.42 753.11 49.9 752.09 50.03"/><polyline class="cls-78" points="542.79 49.34 527.97 46.12 522.2 37.53 535.35 26.8"/><polyline class="cls-78" points="638.52 49.84 654.39 48.23 662.18 38.01 648.2 28.6"/><line class="cls-79" x1="752.94" y1="51.52" x2="758.53" y2="71.44"/><polygon class="cls-76" points="759.04 68.15 768.01 68.39 763.4 58.03 761.78 60.77 757.51 51.42 755.24 54.8 759.04 68.15"/><polygon class="cls-76" points="752.81 55.62 751.92 54.78 745.22 67.78 756.07 68.07 752.81 55.62"/></g></svg>