<svg id="ILLUSTRATION" xmlns="http://www.w3.org/2000/svg" xmlns:xlink="http://www.w3.org/1999/xlink" viewBox="0 0 900 350"><defs><style>.cls-1{fill:#ebebea;}.cls-12,.cls-2{fill:#c4c4c4;}.cls-13,.cls-14,.cls-15,.cls-16,.cls-2,.cls-3,.cls-34,.cls-4,.cls-5{fill-rule:evenodd;}.cls-11,.cls-3{fill:#a3a3a3;}.cls-4,.cls-6{fill:#dddddc;}.cls-24,.cls-5{fill:#cfcfcd;}.cls-7{fill:#ececeb;}.cls-8{fill:#c0db8f;}.cls-34,.cls-9{fill:#99c26c;}.cls-10{fill:#6f9d52;}.cls-13,.cls-17,.cls-32,.cls-39{fill:#2b2b2b;}.cls-13,.cls-17{opacity:0.1;}.cls-14{fill:#738d57;}.cls-15{fill:#b8c744;}.cls-16{fill:#d9e256;}.cls-18{fill:#35785e;}.cls-19{fill:#3f8f6f;}.cls-20{fill:#54b08b;}.cls-21{fill:#74c7a5;}.cls-22{fill:#737474;}.cls-23{fill:#8f8f8f;}.cls-25{fill:#8b6651;}.cls-26{fill:#dfbda5;}.cls-27{fill:#5a753d;}.cls-28{fill:#c2987a;}.cls-29{fill:#e9cbb7;}.cls-30{fill:#474748;}.cls-31{fill:#44622d;}.cls-33{fill:#6f7273;}.cls-35{clip-path:url(#clip-path);}.cls-36{fill:#f4cab2;}.cls-37{fill:#738c57;}.cls-38{fill:#709c52;}.cls-39{opacity:0.2;}.cls-40{fill:#98c16c;}.cls-41{fill:#bfda8e;}.cls-42{fill:#fbe3d4;}.cls-43{fill:#c18f7c;}.cls-44{fill:#fff0e8;}.cls-45{fill:#4f5353;}.cls-46{fill:#848585;}.cls-47{fill:#9ecd7e;}.cls-48{fill:#fff;}.cls-49{fill:#3f8e6f;}.cls-50{fill:#54af8a;}</style><clipPath id="clip-path"><polygon class="cls-1" points="192.23 11.51 82 0.5 0.41 54.22 36.38 169.66 152.27 185.01 224.87 109.6 192.23 11.51"/></clipPath></defs><title>diplomats_Campaigner_ENFP_weaknesses</title><g id="Mountain"><polygon class="cls-2" points="498.12 149.64 428.55 162.53 381.47 162.91 353 169.54 351.25 192.18 479.13 194.18 498.12 149.64"/><polygon class="cls-3" points="785.85 137.13 809.83 141.13 834.3 164.66 775.86 184.18 785.85 137.13"/><polygon class="cls-4" points="563.05 138.13 584.83 123.74 618 98.59 639.48 108.1 680.95 59.06 719.41 95.09 741.76 98.72 761.87 113.61 783.85 121.11 779.85 175.67 571.55 172.16 563.05 138.13"/><polygon class="cls-5" points="618 98.59 608.01 145.14 653.97 134.13 682.19 132.88 684.11 127.62 639.48 108.1 618 98.59"/><polygon class="cls-2" points="708.75 135.29 684.11 127.62 568.88 140.97 621.5 157.32 780.02 146.97 778.46 141.25 771.36 115.28 767.7 131.29 708.75 135.29"/><polygon class="cls-3" points="552.23 150.64 585.87 144.64 605.51 142.13 659.47 148.39 751.71 138.63 773.69 145.31 755.38 164.32 600.19 180.34 552.23 150.64"/><polygon class="cls-3" points="476.63 160.15 427.68 169.16 401.2 165.66 389.84 169.03 370.23 181.67 475.64 184.18 476.63 160.15"/><polygon class="cls-5" points="741.76 98.72 708.75 135.29 768.37 132.13 775.11 119.86 771.36 111.61 761.87 113.61 741.76 98.72"/><polygon class="cls-5" points="682.78 122.28 680.95 59.06 722.07 95.26 682.78 122.28"/></g><g id="Cloud"><polygon class="cls-6" points="803.83 50.05 743.89 52.55 832.8 71.57 883.76 57.05 803.83 50.05"/><polygon class="cls-6" points="447.33 39.54 364.74 54.88 447.66 79.58 610.51 62.89 447.33 39.54"/><polygon class="cls-7" points="364.74 54.88 481.63 28.53 610.51 62.89 452.66 50.88 364.74 54.88"/><polygon class="cls-7" points="743.89 52.55 820.32 43.04 883.76 57.05 820.32 60.06 743.89 52.55"/></g><g id="Land"><polygon class="cls-8" points="406.7 207.03 194.24 197.64 65.02 244.73 -0.26 275.76 403.37 273.76 406.7 207.03"/><polygon class="cls-9" points="756.38 164.66 745.05 150.98 588.03 156.15 592.53 220.21 739.89 199.19 756.38 164.66"/><polygon class="cls-10" points="722.91 182.17 684.94 165.66 549.07 155.15 528.92 213.04 691.44 204.19 722.91 182.17"/><polygon class="cls-10" points="789.85 210.7 877.76 199.69 899.74 215.71 881.26 237.73 789.85 210.7"/><polygon class="cls-9" points="774.86 164.16 835.3 164.66 877.76 199.69 845.63 207.03 738.89 192.68 774.86 164.16"/><polygon class="cls-10" points="701.93 168.16 759.04 152.31 835.3 164.66 788.85 177.17 676.45 193.68 701.93 168.16"/><polygon class="cls-8" points="650.47 181.17 714.91 170.16 788.85 177.17 845.63 207.03 710.92 276.76 625.5 192.68 650.47 181.17"/><path class="cls-9" d="M662,221.71l-49.12-26-54.33-5.25-57.4-5.26-49.79-11.52L371,180.13l-81.5,7.55S401.7,259.25,406.7,258.75,643,245.23,643,245.23Z"/><polygon class="cls-9" points="671.45 267.75 845.63 207.03 881.26 237.73 867.27 251.24 671.45 267.75"/><polygon class="cls-10" points="614.51 204.36 647.14 201.02 867.27 251.24 860.28 296.28 597.19 240.4 614.51 204.36"/><polygon class="cls-8" points="593.86 229.72 723.07 247.4 860.28 296.28 797 332.48 584.53 263.08 593.86 229.72"/><polygon class="cls-9" points="593.86 229.72 620.5 225.71 723.07 247.4 670.46 267.09 584.53 263.08 593.86 229.72"/><polygon class="cls-9" points="641.82 286.44 714.41 331.15 797 332.48 670.46 267.09 641.82 286.44"/><polygon class="cls-10" points="554.56 308.46 579.87 350.5 714.41 331.15 670.46 267.09 605.18 255.74 554.56 308.46"/><polygon class="cls-10" points="603.85 206.36 578.87 217.37 369.4 219.04 567.88 267.75 603.85 206.36"/><polygon class="cls-7" points="638.98 194.18 684.94 165.66 745.05 150.98 759.04 152.31 703.09 175 638.98 194.18"/><polygon class="cls-6" points="603.85 206.36 612.84 195.69 684.94 165.66 714.91 170.16 667.79 206.03 603.85 206.36"/><polygon class="cls-11" points="575.88 228.38 578.87 217.37 612.84 195.69 667.79 206.03 643.48 230.39 575.88 228.38"/><polygon class="cls-12" points="533.25 287.11 554.56 247.07 578.87 217.37 643.48 230.39 623.5 258.75 533.25 287.11"/><polygon class="cls-11" points="465.31 278.43 554.56 247.07 623.5 258.75 579.87 350.5 491.29 339.16 379.39 302.45 465.31 278.43"/><polygon class="cls-9" points="298.13 259.75 280.82 338.49 295.47 350.5 491.29 339.16 424.02 311.8 298.13 259.75"/><polygon class="cls-10" points="151.6 282.44 159.59 323.81 280.82 338.49 424.02 311.8 554.56 247.07 271.49 249.3 237.52 249.07 151.6 282.44"/><polygon class="cls-8" points="77.67 267.75 57.69 280.43 159.59 323.81 216.38 302.79 169.59 262.42 77.67 267.75"/><path class="cls-9" d="M204.89,243.06c-2,1.34-143.2,20-143.2,20L-.26,275.76l155.19,19,95.91-46.38-46-5.34"/><polygon class="cls-8" points="59.69 263.75 346.25 210.5 554.56 247.07 174.92 256.69 59.69 263.75"/></g><g id="Flowers"><polygon class="cls-13" points="733.06 283.01 745.34 279.8 759.01 285.39 743.25 289.02 733.06 283.01"/><polygon class="cls-14" points="745.62 269.74 744.02 274.91 742.62 283.92 748.2 283.78 745.62 269.74"/><polygon class="cls-15" points="742.2 263.87 735.85 265.82 744.02 274.91 753.99 269.32 742.2 263.87"/><polygon class="cls-16" points="743.74 258 735.85 265.82 753.99 269.32 743.74 258"/><polygon class="cls-13" points="735.4 237.89 742.4 236.06 750.19 239.24 741.2 241.31 735.4 237.89"/><polygon class="cls-14" points="742.55 230.32 741.64 233.27 740.85 238.41 744.03 238.33 742.55 230.32"/><polygon class="cls-15" points="740.61 226.97 736.99 228.09 741.64 233.27 746.55 232.55 740.61 226.97"/><polygon class="cls-16" points="741.72 222.88 736.99 228.09 746.55 232.55 741.72 222.88"/><polygon class="cls-13" points="720.5 203.78 725.2 202.56 730.44 204.69 724.4 206.07 720.5 203.78"/><polygon class="cls-14" points="725.3 198.73 724.69 200.7 724.16 204.13 726.29 204.07 725.3 198.73"/><polygon class="cls-15" points="724 196.5 721.56 197.25 724.69 200.7 728.51 198.57 724 196.5"/><polygon class="cls-16" points="724.9 189.12 721.56 197.25 728.51 198.57 724.9 189.12"/><polygon class="cls-13" points="751.1 187.13 746.4 185.91 741.16 188.04 747.2 189.42 751.1 187.13"/><polygon class="cls-14" points="746.29 182.09 746.91 184.05 747.44 187.48 745.3 187.43 746.29 182.09"/><polygon class="cls-15" points="747.6 179.85 750.03 180.6 746.91 184.05 743.09 181.93 747.6 179.85"/><polygon class="cls-16" points="747.01 177.62 750.03 180.6 743.09 181.93 747.01 177.62"/><polygon class="cls-13" points="415.51 209.05 411.43 207.99 406.9 209.83 412.13 211.03 415.51 209.05"/><polygon class="cls-14" points="411.34 204.68 411.87 206.38 412.33 209.35 410.48 209.3 411.34 204.68"/><polygon class="cls-15" points="412.47 202.74 414.58 203.39 411.87 206.38 408.56 204.54 412.47 202.74"/><polygon class="cls-16" points="411.96 200.81 414.58 203.39 408.56 204.54 411.96 200.81"/><polygon class="cls-13" points="469.17 224.86 464.3 223.59 458.87 225.8 465.13 227.23 469.17 224.86"/><polygon class="cls-14" points="464.18 219.63 464.82 221.67 465.38 225.22 463.16 225.16 464.18 219.63"/><polygon class="cls-15" points="465.54 217.32 468.06 218.09 464.82 221.67 460.86 219.47 465.54 217.32"/><polygon class="cls-16" points="464.98 211.7 468.06 218.09 460.86 219.47 464.98 211.7"/><polygon class="cls-13" points="449.01 244.34 441.65 242.43 433.46 245.75 442.9 247.91 449.01 244.34"/><polygon class="cls-14" points="441.48 236.44 442.44 239.52 443.28 244.88 439.94 244.8 441.48 236.44"/><polygon class="cls-15" points="443.53 232.95 447.33 234.12 442.44 239.52 436.47 236.19 443.53 232.95"/><polygon class="cls-16" points="441.96 229.97 447.33 234.12 436.47 236.19 441.96 229.97"/><polygon class="cls-13" points="843.61 189.22 838.91 188 833.67 190.13 839.71 191.51 843.61 189.22"/><polygon class="cls-14" points="838.8 184.18 839.41 186.14 839.95 189.57 837.81 189.51 838.8 184.18"/><polygon class="cls-15" points="840.11 181.94 842.54 182.69 839.41 186.14 835.59 184.02 840.11 181.94"/><polygon class="cls-16" points="838.3 180.3 842.54 182.69 835.59 184.02 838.3 180.3"/><polygon class="cls-13" points="873.58 214.25 868.88 213.02 863.64 215.15 869.68 216.53 873.58 214.25"/><polygon class="cls-14" points="868.77 209.2 869.39 211.16 869.92 214.59 867.78 214.54 868.77 209.2"/><polygon class="cls-15" points="870.08 206.97 872.51 207.71 869.39 211.16 865.57 209.04 870.08 206.97"/><polygon class="cls-16" points="868.23 202.65 872.51 207.71 865.57 209.04 868.23 202.65"/><polygon class="cls-13" points="659.13 325.06 668.34 322.65 678.59 326.84 666.77 329.56 659.13 325.06"/><polygon class="cls-14" points="668.55 315.1 667.34 318.98 666.3 325.74 670.48 325.63 668.55 315.1"/><polygon class="cls-15" points="665.98 310.7 658.13 312.3 667.34 318.98 677.99 315.45 665.98 310.7"/><polygon class="cls-16" points="667.79 298.45 658.13 312.3 677.99 315.45 667.79 298.45"/><polygon class="cls-13" points="660.48 254.03 666.72 252.4 673.67 255.24 665.66 257.09 660.48 254.03"/><polygon class="cls-14" points="666.87 247.28 666.05 249.91 665.34 254.5 668.18 254.43 666.87 247.28"/><polygon class="cls-15" points="665.13 244.3 659.78 245.17 666.05 249.91 673.76 247.74 665.13 244.3"/><polygon class="cls-16" points="666.35 235.99 659.78 245.17 673.76 247.74 666.35 235.99"/><polygon class="cls-13" points="717.08 318.97 723.72 317.24 731.11 320.26 722.59 322.22 717.08 318.97"/><polygon class="cls-14" points="723.87 311.79 723 314.59 722.25 319.46 725.26 319.39 723.87 311.79"/><polygon class="cls-15" points="722.16 305.29 716.83 308.79 723 314.59 729.98 307.21 722.16 305.29"/><polygon class="cls-16" points="723.32 299.79 716.83 308.79 729.98 307.21 723.32 299.79"/><polygon class="cls-13" points="620.67 290.43 630.07 287.97 640.53 292.25 628.47 295.03 620.67 290.43"/><polygon class="cls-14" points="630.28 280.26 629.05 284.22 627.99 291.13 632.26 291.02 630.28 280.26"/><polygon class="cls-15" points="627.66 275.77 618.25 278.01 628.49 286.4 643.11 281.89 627.66 275.77"/><polygon class="cls-16" points="629.67 268.75 618.25 278.01 643.11 281.89 629.67 268.75"/></g><g id="Trees"><polygon class="cls-17" points="390.05 182.7 408.95 178.79 427.12 183.1 407.57 188.68 390.05 182.7"/><polygon class="cls-17" points="638.15 157.94 651.83 156.17 664.88 158.25 650.79 161.15 638.15 157.94"/><polygon class="cls-17" points="743.39 193.68 780.78 187.19 815.82 195.94 778.24 207.36 743.39 193.68"/><polygon class="cls-18" points="774.63 172.88 777.71 197.59 784.03 195.27 781.1 174.12 774.63 172.88"/><polygon class="cls-19" points="776.17 177.82 773.24 196.2 777.71 197.59 779.71 183.07 776.17 177.82"/><polygon class="cls-19" points="770.77 130.58 768.62 164.55 779.71 183.07 812.69 166.4 790.19 134.91 770.77 130.58"/><polygon class="cls-20" points="769.85 138.61 744.89 164.86 779.71 183.07 775.24 151.43 769.85 138.61"/><polygon class="cls-18" points="775.4 105.88 775.24 151.43 810.84 141.7 789.26 107.12 775.4 105.88"/><polygon class="cls-19" points="774.16 113.91 751.67 138.61 775.24 151.43 780.02 123.79 774.16 113.91"/><polygon class="cls-20" points="774.47 101.25 780.02 70.07 802.83 112.06 780.02 123.79 774.47 101.25"/><polygon class="cls-21" points="780.02 70.07 762.14 113.91 780.02 123.79 780.02 70.07"/><polygon class="cls-18" points="650.27 151.47 651.28 159.56 653.35 158.8 652.39 151.88 650.27 151.47"/><polygon class="cls-19" points="650.78 153.09 649.82 159.11 651.28 159.56 651.94 154.81 650.78 153.09"/><polygon class="cls-19" points="649.01 137.62 648.31 148.74 651.94 154.81 660.46 151.54 655.37 139.03 649.01 137.62"/><polygon class="cls-20" points="648.71 140.25 640.85 150.43 651.94 154.81 650.48 144.44 648.71 140.25"/><polygon class="cls-18" points="650.53 129.53 650.48 144.44 662.13 141.26 654.17 130.64 650.53 129.53"/><polygon class="cls-19" points="649.06 131.26 642.75 140.25 650.48 144.44 652.04 135.39 649.06 131.26"/><polygon class="cls-20" points="650.22 128.01 651.14 119.91 659.51 131.55 652.04 135.39 650.22 128.01"/><polygon class="cls-21" points="651.14 119.91 644.57 131.47 652.04 135.39 651.14 119.91"/><polygon class="cls-18" points="406.21 170.86 407.94 184.75 411.49 183.45 409.85 171.55 406.21 170.86"/><polygon class="cls-19" points="407.07 173.64 405.43 183.97 407.94 184.75 409.07 176.59 407.07 173.64"/><polygon class="cls-19" points="404.04 147.07 402.83 166.17 409.07 176.59 427.35 169.49 412.03 152.81 404.04 147.07"/><polygon class="cls-20" points="405.2 153.81 390.01 169.07 409.07 176.59 406.55 158.79 405.2 153.81"/><polygon class="cls-18" points="406.64 133.18 406.55 158.79 424.02 150.31 411.19 138.13 406.64 133.18"/><polygon class="cls-19" points="404.13 136.16 392.38 153.81 406.55 158.79 409.24 143.25 404.13 136.16"/><polygon class="cls-20" points="406.12 130.57 408.37 121.78 421.85 139.47 409.24 143.25 406.12 130.57"/><polygon class="cls-21" points="408.37 121.78 392.38 140.3 409.24 143.25 408.37 121.78"/></g><polygon class="cls-17" points="216.54 302.12 136.28 303.79 131.08 291.38 117.97 260.08 206.22 226.72 216.54 302.12"/><polygon class="cls-22" points="243.94 170.03 261.39 148.08 302.47 162.94 291.48 195.63 248.85 191.3 243.94 170.03"/><polygon class="cls-12" points="209.22 217.32 194.24 197.64 248.52 163.6 248.52 217.99 209.22 217.32"/><polygon class="cls-23" points="223.54 255.69 191.56 249.57 194.24 197.64 226.21 197.97 233.53 253.69 223.54 255.69"/><path class="cls-11" d="M205.22,255.36l-30.3,1.33-20,38.09,61.45,8L238.86,267S204.94,255.58,205.22,255.36Z"/><polygon class="cls-23" points="225.21 255.69 226.87 270.04 216.38 302.79 281.32 284.77 282.82 237.34 247.85 233 225.21 255.69"/><polygon class="cls-12" points="235.53 223.66 215.55 239.01 174.92 256.69 226.87 270.04 261.84 246.02 235.53 223.66"/><polygon class="cls-22" points="250.52 225.66 261.84 246.02 268.16 287.77 306.29 281.27 263.84 202.31 250.52 225.66"/><polygon class="cls-11" points="271.5 191.63 226.21 197.97 215.55 239.01 261.84 246.02 274.49 225.66 271.5 191.63"/><polygon class="cls-11" points="250.35 177.28 213.63 185.49 216.38 155.76 246.35 144.25 250.35 177.28"/><g id="Tent"><polygon class="cls-17" points="393.71 197.19 530.34 213.2 640.73 171.91 499.11 166.16 446.6 180.82 393.71 197.19"/><polygon class="cls-18" points="553.95 144.06 581.3 172.87 616.72 173.4 578.5 128.95 553.95 144.06"/><polygon class="cls-19" points="594.45 178.67 606.09 176.2 584.81 133.87 584.11 139.14 594.45 178.67"/><polygon class="cls-19" points="578.5 139.14 584.11 139.14 583.58 182.18 558.51 190.44 578.5 139.14"/><polygon class="cls-20" points="536.07 158.12 584.81 123.68 616.72 173.4 606.09 176.2 584.11 139.14 558.51 190.44 534.73 199.68 536.07 158.12"/><polygon class="cls-21" points="430.38 190.55 472.39 121.28 584.81 123.68 534.73 199.68 430.38 190.55"/><polygon class="cls-21" points="584.11 139.14 591.65 179.72 602.34 181.96 584.11 139.14"/><polygon class="cls-20" points="496.7 136.24 483.55 162.33 517.74 162.07 527.74 140.2 496.7 136.24"/><polygon class="cls-21" points="494.25 134.66 479.91 158.91 514.1 159.96 527.74 140.2 494.25 134.66"/></g><g id="Drink"><polygon class="cls-17" points="239.1 324.6 273.82 316.47 306.63 325.73 273.16 333.65 239.1 324.6"/><polygon class="cls-19" points="263.31 301.5 256.57 302.37 257.25 309.94 264.42 316.34 265.37 312.34 260.46 308.04 260.69 305.19 265.68 305.5 263.31 301.5"/><polygon class="cls-19" points="275.1 300.54 280.67 327.57 288.96 324.18 294.46 300.11 275.1 300.54"/><polygon class="cls-19" points="263.79 298.48 254.51 298.39 258.14 324.49 265.85 327.57 272.5 301.69 263.79 298.48"/><polygon class="cls-20" points="268.45 300.9 264.6 304.85 265.85 327.57 280.67 327.57 283.38 305.27 268.45 300.9"/><polygon class="cls-18" points="254.51 298.39 267.42 295.35 281.09 295.5 294.46 300.11 287.38 303.3 269.23 303.6 260.96 302.62 254.51 298.39"/><polygon class="cls-24" points="260.96 302.62 267.1 299.66 280.27 299.44 287.38 303.3 283.38 305.27 264.6 304.85 260.96 302.62"/><polygon class="cls-11" points="268.74 302.81 279.19 302.41 283.38 305.27 264.6 304.85 268.74 302.81"/><polygon class="cls-19" points="256.42 304.71 249.09 305.62 247.85 312.46 257.67 320.05 257.67 315.51 252.34 311.17 252.68 308.88 257.09 310.05 256.42 304.71"/></g><polygon class="cls-17" points="300.3 207.2 243.85 192.93 226.27 198.26 261.84 246.02 268.16 287.77 324.77 307.67 340.26 296.03 354.32 304.08 385.73 300.19 391.71 286.77 384.65 283.36 347.75 270.01 300.3 207.2"/><polygon class="cls-25" points="246.87 154.86 245.78 145.22 246.15 128.41 257.4 134.28 265.21 137.51 255.71 153.55 246.87 154.86"/><polygon class="cls-26" points="256.09 152.62 260.8 148.08 267.17 143.29 263.44 138.63 260.45 138.19 256.09 140.12 253.2 153.74 256.09 152.62"/><polygon class="cls-25" points="244.17 175.19 226.27 198.26 270.24 214.93 257.57 180.16 244.17 175.19"/><polygon class="cls-27" points="275.94 180.25 257.57 180.16 243.8 213.25 283.08 228.92 286.47 207.47 275.94 180.25"/><polygon class="cls-28" points="260.8 148.08 257.57 180.16 226.27 198.26 245.78 145.22 260.8 148.08"/><polygon class="cls-25" points="357.69 156.19 373.33 159.36 353.03 189.39 342.04 160.2 357.69 156.19"/><polygon class="cls-28" points="324.36 140.64 342.04 160.2 373.33 159.36 332.36 128.58 324.36 140.64"/><polygon class="cls-18" points="283.69 55.22 287.87 40.56 270.98 46.13 283.69 55.22"/><polygon class="cls-27" points="331.62 166.07 342.04 160.2 370.97 180.13 346.25 210.5 336.9 194.68 331.62 166.07"/><polygon class="cls-9" points="314.2 201.61 315.31 226.25 297.53 235.31 274.45 225.77 275.94 180.25 306.94 184.08 314.2 201.61"/><polygon class="cls-26" points="280.09 173.5 300.34 176.38 309.7 167.52 313.99 162.01 337.5 155.07 325.06 88.59 316.98 73.32 300.53 82.66 267 95.62 262.29 112.06 269.19 129.19 258.41 136.84 280.09 173.5"/><polygon class="cls-28" points="296.41 166.78 278.7 105.48 273.18 94.57 263.99 108.08 263.04 125.69 251.82 135.05 261.39 148.08 264.85 149.64 267.07 155.8 279.85 173.18 289.4 180.77 306.94 184.08 296.18 171.02 296.41 166.78"/><polygon class="cls-25" points="261.43 148.05 268.5 142.88 267.07 155.8 261.43 148.05"/><polygon class="cls-20" points="287.87 40.56 276.37 60.97 279.12 75.25 304.47 89.18 302.8 62.44 287.87 40.56"/><polygon class="cls-25" points="256.89 136.15 261.38 132.64 266.37 140.27 256.89 136.15"/><polygon class="cls-29" points="316.88 129.65 309.89 131.47 303.81 109.3 310.8 107.48 316.88 129.65"/><polygon class="cls-25" points="316.88 129.65 313.8 133.83 309.89 131.47 316.88 129.65"/><polygon class="cls-8" points="322.68 170.65 306.94 184.08 308.25 186.88 310.46 193.51 315.31 226.25 335.66 221.77 346.25 210.5 346.25 210.5 331.62 166.07 322.68 170.65"/><polygon class="cls-30" points="298.19 189.72 310.46 193.51 314.86 185.85 306.94 184.08 298.19 189.72"/><polygon class="cls-27" points="308.57 225.48 274.45 225.77 283.18 265.46 327.89 267.43 325.83 232.27 308.57 225.48"/><polygon class="cls-10" points="346.25 210.5 346.25 210.5 329.9 219.79 319.14 223.53 322.13 234.49 330.5 267.19 356.74 244.89 346.25 210.5"/><polygon class="cls-21" points="320.13 69.07 308.65 53.09 287.87 40.56 304.47 89.18 320.13 69.07"/><polygon class="cls-19" points="241.25 122.12 251.82 135.05 263.57 129.13 270.32 138.5 278.91 132.69 267.78 111.75 255 110.57 241.25 122.12"/><polygon class="cls-31" points="280.36 111.22 248.77 131.13 251.82 135.05 282.74 119.47 280.36 111.22"/><polygon class="cls-19" points="254.39 75.47 262.36 91.28 273.33 95.19 273.33 95.19 273.43 94.89 304.47 89.18 276.37 60.97 254.39 75.47"/><polygon class="cls-18" points="241.25 122.12 267.78 111.75 273.33 95.19 254.39 75.47 241.25 122.12"/><polygon class="cls-28" points="287.78 123.94 288.66 115.78 300.85 112.2 301.52 109.31 283.95 112.68 287.78 123.94"/><polygon class="cls-28" points="321.52 104.84 316.99 108.36 317.24 116.61 312.36 105.23 321.52 104.84"/><polygon class="cls-25" points="304.47 89.18 319.26 77.63 316.95 73.28 304.47 89.18"/><polygon class="cls-28" points="311.62 100.65 311.32 105.32 323.64 101.37 324.29 90.05 318.85 93.69 316.53 99.07 311.62 100.65"/><polygon class="cls-28" points="300.89 102.77 302.04 106.07 286.62 109.74 281.22 100.47 290.78 99.85 300.89 102.77"/><polygon class="cls-28" points="288.36 127.09 308.21 125.35 307.32 122.11 288.36 127.09"/><polygon class="cls-28" points="315.26 123.73 329.9 115.54 314.53 121.08 315.26 123.73"/><polygon class="cls-25" points="313.99 162.01 292.1 167.95 306.94 184.08 311.11 178.34 314.66 165.8 313.99 162.01"/><path class="cls-10" d="M302.91,105.83l-22.55,5.39,5,17.18,22-6.29-3.47-12.81,6.93-1.89,3.75,13.67,22-6.26-4.08-16.24Zm-.19,13.81-14.94,4.3-2.91-10.08,15.48-3.63Zm29.45-7.32-14.94,4.3-2.91-10.08,15.49-3.64Z"/><path class="cls-32" d="M324,105.85a2.63,2.63,0,1,1-3.68-.46A2.63,2.63,0,0,1,324,105.85Z"/><path class="cls-32" d="M298,112.46a2.63,2.63,0,1,1-3.69-.46A2.63,2.63,0,0,1,298,112.46Z"/><polygon class="cls-33" points="308.57 225.48 308.58 225.48 320.81 229.57 329.9 219.79 310.46 193.51 308.57 225.48"/><polygon class="cls-30" points="329.9 219.79 308.58 225.48 322.13 234.49 329.9 219.79"/><polygon class="cls-31" points="279.85 173.18 275.94 180.25 296.9 198.28 306.94 184.08 279.85 173.18"/><polygon class="cls-31" points="306.94 184.08 319.89 190.89 322.68 170.65 314.66 165.8 306.94 184.08"/><polygon class="cls-25" points="306.21 142.6 323.03 136.25 324.34 138.13 306.45 145.4 306.21 142.6"/><polygon class="cls-18" points="281.22 100.47 290.41 101.98 296.36 103.52 300.89 102.77 290.81 99.35 281.22 100.47"/><polygon class="cls-18" points="311.62 100.65 316.53 99.07 318.92 94.66 324.29 90.05 317.03 92.6 311.62 100.65"/><polygon class="cls-18" points="382.39 227.85 354.41 238.65 325.52 277.98 346.46 288.28 359.14 286.54 373.73 269.25 389.27 254.48 382.39 227.85"/><polygon class="cls-18" points="337.54 266.36 339.59 264.07 337.71 265.22 337.88 264.07 335.02 257.5 333.72 249.2 331.89 250.34 330.19 246.45 311.81 246.61 305.76 246.02 283.18 265.46 295.05 292.15 326.27 291.03 329.55 275.26 336.62 272.49 337.54 266.36"/><polygon class="cls-20" points="339.64 236.47 305.76 246.02 326.1 290.91 337.01 293.11 346.46 288.28 339.64 236.47"/><polygon class="cls-34" points="346.46 288.28 357.75 307.79 341.7 311.11 324.77 307.67 326.1 290.91 346.46 288.28"/><polygon class="cls-14" points="324.61 313.42 357.68 313.55 357.75 307.79 324.77 307.67 324.61 313.42"/><polygon class="cls-20" points="382.39 227.85 373.73 269.25 384.65 283.36 398.44 285.54 405.97 276.31 382.39 227.85"/><polygon class="cls-34" points="405.97 276.31 426.08 293.69 408.87 297.02 385.14 293.86 384.65 283.36 405.97 276.31"/><polygon class="cls-14" points="385.22 300.12 426.36 300.12 426.08 293.69 385.14 293.86 385.22 300.12"/><g id="Chat_Bubble" data-name="Chat Bubble"><polygon class="cls-1" points="192.23 11.51 82 0.5 0.41 54.22 36.38 169.66 152.27 185.01 224.87 109.6 192.23 11.51"/><g class="cls-35"><polyline class="cls-17" points="93.85 46.68 128.85 45.72 136.81 42.83 163.45 44.07 153.84 48.33 157.41 54.94 143.95 60.58 134.89 56.04 122.81 65.25 80.57 54.9"/><polygon class="cls-20" points="145.63 40.46 139.25 42.42 137.76 45.72 156.55 45.93 154.85 42.21 145.63 40.46"/><polygon class="cls-20" points="146.97 50.36 141 52.84 144.91 56.45 153.25 54.59 154.8 49.85 146.97 50.36"/><polygon class="cls-19" points="145.43 51.09 141.21 49.13 139.25 53.97 144.91 56.45 145.53 54.7 145.43 51.09"/><polygon class="cls-19" points="102.22 25.37 98.52 21.1 117.73 18.49 130.02 23.03 128.44 24.13 102.22 25.37"/><polygon class="cls-18" points="99.61 26.64 105.45 23.37 118.14 21.45 122.61 23.23 130.4 33.24 118.51 43 99.61 26.64"/><polygon class="cls-21" points="129.68 24.06 122.61 23.23 119.31 35.13 128.65 38.84 129.68 24.06"/><polygon class="cls-21" points="122.06 34.92 123.09 32.31 119.17 30.25 116.09 33.48 120.75 36.64 122.06 34.92"/><polygon class="cls-21" points="132.7 28.87 134.41 25.16 130.02 23.03 122.61 23.23 128.51 26.33 132.7 28.87"/><polygon class="cls-20" points="123.29 36.02 125.76 36.02 128.51 26.33 134.41 25.16 138.19 33.83 119.59 43.87 123.29 36.02"/><polygon class="cls-21" points="99.96 29.97 105.45 23.37 113.68 29.42 116.09 33.48 119.31 34.17 123.09 32.31 125.76 36.02 125.59 39.15 102.02 41.66 99.96 29.97"/><polygon class="cls-20" points="93.64 38.16 90.35 32.52 98.52 21.1 105.45 23.37 103.89 38.69 93.64 38.16"/><polygon class="cls-19" points="118.51 43 125.59 39.15 138.19 33.83 131.94 55.07 122.05 59.19 118.51 43"/><polygon class="cls-20" points="97.58 44.39 103.89 38.69 125.59 39.15 122.05 59.19 106.35 59.19 97.58 44.39"/><polygon class="cls-19" points="90.35 32.52 95.73 55.49 106.35 59.19 103.89 38.69 90.35 32.52"/><polygon class="cls-21" points="141.21 49.13 145.53 54.7 154.8 49.85 141.21 49.13"/><polygon class="cls-21" points="139.25 42.42 154.85 42.21 148.52 36.59 139.25 42.42"/><polygon class="cls-36" points="76.67 94.95 79.8 97.06 72.52 115.87 66.05 96.06 76.67 94.95"/><polygon class="cls-37" points="66.36 80.38 69.85 81.23 79.8 97.06 71.55 100.2 64.42 88.08 61.33 80.38 66.36 80.38"/><polygon class="cls-38" points="44.04 78.23 33.72 83.72 38.08 112.05 38.51 116.64 58.4 126.11 63.88 116.73 67.16 123.93 74.26 115.41 69 85.9 69.85 81.23 65.58 79.23 44.04 78.23"/><polygon class="cls-39" points="48.78 92.34 55.59 88.18 52.09 85.06 48.78 92.34"/><polygon class="cls-39" points="69 85.9 60.19 87.26 62.77 83.96 69 85.9"/><polygon class="cls-40" points="60.19 87.26 62.77 83.96 65.12 83.11 61.33 80.38 59.33 80.79 60.19 87.26"/><polygon class="cls-41" points="69 85.9 62.77 83.96 60.88 81.71 62.72 80.33 69 85.9"/><polygon class="cls-42" points="71.72 48.16 75.92 73.76 59.63 80.27 59.65 91.62 44.74 76.76 37.24 57.66 42.05 46.51 55.76 41.45 66.71 42.9 71.72 48.16"/><polygon class="cls-36" points="44.63 45.65 50.03 51.15 54.43 77.38 60.88 81.71 59.65 91.62 42.97 77.48 40.66 69.5 40.44 66.8 39.57 65.53 37.54 58.69 42.05 46.51 44.63 45.65"/><polygon class="cls-36" points="57.23 54.05 64.31 62.17 70.4 52.4 69.06 52.81 66.06 54 65.76 54.9 63.39 55.28 62.77 54.51 57.76 53.89 57.23 54.05"/><polygon class="cls-43" points="39.57 65.53 43.81 64.11 40.66 69.5 39.57 65.53"/><polygon class="cls-43" points="42.59 62.8 41.28 59 38.9 59.85 42.59 62.8"/><polygon class="cls-44" points="63.39 55.28 64.31 62.17 67.76 61.62 65.76 54.9 63.39 55.28"/><polygon class="cls-43" points="67.76 61.62 66.2 63.61 64.31 62.17 67.76 61.62"/><polygon class="cls-33" points="57.7 41.11 53.25 40.73 49.06 41.93 48.3 42.9 44.74 43.16 38.9 44.83 40.44 47.7 43.43 48.08 51.91 44.41 51.72 43.59 54.51 43.28 57.11 42.15 57.7 41.11"/><polygon class="cls-45" points="38.9 44.83 35.67 52.22 37.24 53.04 38.49 55.39 37.54 58.69 40.44 55.75 42.17 56.12 44.12 60.94 45.96 60.63 47.57 55.51 44.74 54.04 44.75 50.42 43.43 48.08 38.9 44.83"/><polygon class="cls-46" points="66.71 42.9 59.55 40.65 53.25 40.73 57.11 42.15 66.71 42.9"/><polygon class="cls-33" points="44.75 50.42 35.67 52.22 37.54 58.69 47.57 55.51 44.75 50.42"/><polygon class="cls-46" points="54.51 43.28 49.06 41.93 44.74 43.16 51.91 44.41 54.51 43.28"/><path class="cls-32" d="M58.18,56.48a1.11,1.11,0,0,0,1.28.92,1.07,1.07,0,1,0-.24-2.11A1.11,1.11,0,0,0,58.18,56.48Z"/><path class="cls-32" d="M66.85,55.74a1.18,1.18,0,1,0,1.05-1.19A1.12,1.12,0,0,0,66.85,55.74Z"/><polygon class="cls-43" points="70.18 65.66 61.97 66.93 61.27 71.82 72.11 69.61 70.18 65.66"/><polygon class="cls-43" points="75.92 73.76 50.49 77.97 60.88 81.71 75.92 73.76"/><polygon class="cls-40" points="42.85 77.08 41.72 79.44 48.78 92.34 52.09 85.06 42.85 77.08"/><polygon class="cls-27" points="59.65 91.62 59.61 95.45 62.45 113.49 63.88 116.73 63.96 114.08 61.03 95.19 59.65 91.62"/><polygon class="cls-36" points="41.02 100.76 45.03 106.63 47.05 110.99 45.34 113.2 42.46 113.85 38.08 112.05 32.64 109.19 27.89 104.27 30.24 100.52 41.02 100.76"/><polygon class="cls-42" points="47.56 110.32 54.45 113.03 51.06 116.13 46.81 118.38 42.85 114.42 47.56 110.32"/><polygon class="cls-36" points="46.81 118.38 51.7 119.39 56.53 113.85 54.45 113.03 46.81 118.38"/><polygon class="cls-43" points="41.02 100.76 32.64 109.19 26.37 105.94 32.88 100.76 41.02 100.76"/><polygon class="cls-37" points="33.72 83.72 26.37 105.94 41.02 100.76 40.31 91.01 33.72 83.72"/><polygon class="cls-47" points="47.56 110.32 45.03 106.63 38.08 112.05 42.85 114.42 47.56 110.32"/><polyline class="cls-48" points="69.76 66.74 62.72 67.9 62.58 69.31 70.57 68.05 69.83 66.76"/><polygon class="cls-33" points="63.24 53.98 57.09 53.23 57.16 54 63.39 55.28 63.24 53.98"/><polygon class="cls-33" points="65.42 53.53 70.09 51.81 70.4 52.4 65.76 54.9 65.42 53.53"/><polygon class="cls-38" points="95.36 140.14 85.1 135.67 68.73 136.19 71.43 158.4 85.42 155.39 95.67 149.06 95.36 140.14"/><polygon class="cls-49" points="114.84 135.67 129.65 134.43 130.69 157.16 118.46 153.32 114.84 135.67"/><polygon class="cls-43" points="113.28 138.54 120.47 146.02 118.46 153.32 103.34 147.26 113.28 138.54"/><polygon class="cls-36" points="114.32 140.45 114.17 146 118.46 153.32 104.37 162.81 88.63 153.94 85.1 135.67 97.33 127.37 105.2 129.86 114.32 140.45"/><polygon class="cls-42" points="120.47 146.02 114.73 132.46 105.2 129.86 95.78 135.88 97.12 140.76 107.17 139.31 114.17 146 120.47 146.02"/><polygon class="cls-42" points="94.33 145.01 87.8 149.17 85.42 155.39 102.92 165.98 110.85 158.51 94.33 145.01"/><polygon class="cls-42" points="160.53 121.95 159.32 122.8 157.34 123.84 156.68 128.31 162.59 130.97 173.52 128.66 174.06 125.39 172.86 122.05 161.6 121.99 160.53 121.95"/><polygon class="cls-42" points="153.32 125.85 149.12 128.45 145.71 138.5 151.38 140.87 153.32 125.85"/><polygon class="cls-45" points="141.27 94.9 144.05 104.44 146.03 89.63 144.09 89.75 141.27 94.9"/><polygon class="cls-42" points="144.05 89.81 144.01 104.5 143.96 118.76 164.86 119.17 168 112.1 166.89 94.98 165.4 88.57 149.05 87.32 144.05 89.81"/><polygon class="cls-45" points="167.38 87.14 160.6 86.33 151.43 89.31 152.72 91.04 166.89 94.96 167.7 90.36 167.38 87.14"/><polygon class="cls-33" points="144.09 85.61 147.36 85.45 153.25 82.91 152.32 77.56 145.3 81.42 144.09 85.61"/><polygon class="cls-36" points="172.86 122.05 175.94 106.05 168.59 89.91 167.28 90.41 165.47 112.07 164.9 119.11 159.67 122.05 160.62 124.19 162.3 127.39 172.86 122.05"/><polygon class="cls-43" points="175.08 111.3 175.69 107.38 174.35 104.91 170.89 104.9 175.08 111.3"/><polygon class="cls-45" points="152.32 77.56 147.36 85.45 155.91 85.05 157.12 80.42 155.35 76.03 152.32 77.56"/><polygon class="cls-45" points="159.79 81.38 166.49 84.52 171.98 81.78 171.33 77.76 155.35 76.03 159.79 81.38"/><polygon class="cls-33" points="155.91 85.05 166.49 84.52 155.35 76.03 155.91 85.05"/><polygon class="cls-33" points="171.33 77.76 177.75 83.96 173.43 84.16 166.49 84.52 171.33 77.76"/><polygon class="cls-45" points="166.65 88.42 173.19 96.15 182.9 101.22 178.07 87.78 173.47 88.02 166.65 88.42"/><polygon class="cls-33" points="175.69 107.38 182.9 101.22 166.65 88.42 166.89 94.96 175.69 107.38"/><polygon class="cls-43" points="156.25 118.91 162.3 127.39 166.88 119.14 156.25 118.91"/><polygon class="cls-49" points="172.86 122.05 178.07 125.85 178.78 128.35 177.75 128.97 173.31 130.24 171.7 127.31 172.86 122.05"/><polygon class="cls-49" points="157.34 123.84 153.32 125.85 153.03 128.35 156.22 130.9 158.62 127.47 157.34 123.84"/><polygon class="cls-50" points="151.88 136.97 152.38 133.15 153.03 128.35 158.62 127.47 171.7 127.23 177.75 128.97 178.99 135.37 178.54 137.03 163.18 140.15 151.88 136.97"/><polygon class="cls-49" points="151.38 140.87 152 136.1 178.54 137.02 179.36 141.73 175.47 144.27 161.56 145.85 151.38 140.87"/><polygon class="cls-42" points="181.82 128.08 178.07 125.85 176.4 143.66 179.03 143.19 188.12 142.91 181.82 128.08"/><polygon class="cls-36" points="144.82 96.72 149.6 98.99 152.53 104.13 155.54 105.96 159.91 98.77 165.67 96.36 163.22 94.87 156.6 94.78 155.23 97.92 153.94 99.45 152.97 97.96 151.78 95.19 149.48 94.8 144.82 96.72"/><polygon class="cls-45" points="156.89 93.83 156.6 94.78 163.28 95.45 165.67 96.36 163.63 94.54 156.89 93.83"/><polygon class="cls-45" points="146.44 94.83 151.5 94.03 151.75 95.16 146.49 96.1 144.82 96.72 146.44 94.83"/><polygon class="cls-44" points="152.97 97.96 152.39 105.96 155.54 105.96 155.23 97.92 152.97 97.96"/><polygon class="cls-43" points="153.92 107.75 152.39 105.96 155.54 105.96 153.92 107.75"/><polygon class="cls-40" points="173.66 106.97 173.12 107.97 172.11 109.94 173.97 112.06 175.36 109.86 174.2 107.94 173.66 106.97"/><polygon class="cls-38" points="173.14 104.96 173.12 107.97 174.2 107.94 173.94 104.9 173.14 104.96"/><path class="cls-32" d="M161.16,98.51a1.26,1.26,0,1,1-1.25-1.25A1.25,1.25,0,0,1,161.16,98.51Z"/><path class="cls-32" d="M150.85,98.77a1.25,1.25,0,1,1-1.25-1.25A1.25,1.25,0,0,1,150.85,98.77Z"/><polygon class="cls-33" points="175.69 107.38 174.31 114.53 175.39 118.2 176.75 118.12 181.03 114.87 182.9 101.22 175.69 107.38"/><polygon class="cls-45" points="175.69 107.38 181.86 108.83 182.9 101.22 173.94 104.9 175.69 107.38"/><polygon class="cls-45" points="180.27 120.35 184.46 115.62 181.86 108.83 174.31 114.53 172.86 122.05 180.27 120.35"/><polygon class="cls-21" points="144.09 85.61 144.09 89.75 166.65 88.42 171.04 87.06 174.9 86.62 167.38 79.42 144.09 85.61"/><polygon class="cls-50" points="166.65 88.42 179.53 91.51 177.75 83.96 167.38 79.42 166.65 88.42"/><polygon class="cls-41" points="167.22 81.13 164.57 83.52 166.82 86.6 169.2 84.53 167.22 81.13"/><polygon class="cls-48" points="153.29 111.08 148.96 113.76 159.52 114.06 153.29 111.08"/><polygon class="cls-38" points="148.96 113.76 152.48 110.35 153.95 110.74 155.54 110.44 159.52 114.06 153.58 111.74 148.96 113.76"/><polygon class="cls-40" points="153.5 114.62 148.96 113.76 153.51 113.22 159.52 114.06 153.5 114.62"/><polygon class="cls-45" points="168.86 97.73 169.35 102.41 170.89 102.82 171.79 101.88 168.86 97.73"/><polygon class="cls-48" points="149.16 101.06 148.44 104.65 149.36 105.15 150.41 104.86 149.16 101.06"/><polygon class="cls-48" points="159.76 100.95 159.03 104.55 159.95 105.05 161 104.76 159.76 100.95"/></g><polygon class="cls-7" points="194.48 148.56 185.49 159.07 192.98 167.83 206.76 164.16 207.97 150.56 194.48 148.56"/><polygon class="cls-12" points="228.82 154.56 222.62 159.5 226.49 165.78 234.25 163.98 234.97 156.45 228.82 154.56"/></g></svg>