<svg xmlns="http://www.w3.org/2000/svg" viewBox="0 0 900 350"><defs><style>.cls-1,.cls-5{fill:#dddddc;}.cls-2{fill:#ececeb;}.cls-3,.cls-40{fill:#54b08b;}.cls-39,.cls-4{fill:#3f8f6f;}.cls-33,.cls-34,.cls-35,.cls-36,.cls-37,.cls-38,.cls-39,.cls-40,.cls-41,.cls-42,.cls-43,.cls-44,.cls-45,.cls-46,.cls-47,.cls-48,.cls-49,.cls-5,.cls-50,.cls-7{fill-rule:evenodd;}.cls-6,.cls-7{fill:#a3a3a3;}.cls-43,.cls-8{fill:#6f7273;}.cls-9{fill:#858686;}.cls-10,.cls-47{fill:#35785e;}.cls-11{fill:#74c7a5;}.cls-12{fill:#8f8f8f;}.cls-13{fill:#c4c4c4;}.cls-14{fill:#cfcfcd;}.cls-15,.cls-29,.cls-37{fill:#2b2b2b;}.cls-15{opacity:0.1;}.cls-16,.cls-49{fill:#738d57;}.cls-17,.cls-41{fill:#6f9d52;}.cls-18{fill:#a0cf7f;}.cls-19,.cls-42{fill:#5a753d;}.cls-20,.cls-50{fill:#99c26c;}.cls-21{fill:#8b6651;}.cls-22{fill:#c2987a;}.cls-23{fill:#dfbda5;}.cls-24{fill:#e9cbb7;}.cls-25,.cls-48{fill:#fff;}.cls-26{fill:#c0db8f;}.cls-27,.cls-35{fill:#474748;}.cls-28{fill:#44622d;}.cls-30,.cls-34{fill:#755446;}.cls-31,.cls-33{fill:#51362a;}.cls-32,.cls-36{fill:#926d5a;}.cls-38{fill:#99796a;}.cls-44{fill:#4f5353;}.cls-45{fill:#9ca0a1;}.cls-46{fill:#070908;opacity:0.2;}</style></defs><title>diplomats_Campaigner_ENFP_strengths</title><g id="Layer_13" data-name="Layer 13"><polygon class="cls-1" points="83.25 12.5 21.5 20 117.5 49.5 209.75 20 137.5 27 83.25 12.5"/><polygon class="cls-2" points="21.5 20 82 0.75 150.5 16.5 209.75 20 136.75 35.5 69.5 21 21.5 20"/><polygon class="cls-1" points="613.81 80.2 660.68 89.28 585.59 106.69 516.55 79.12 571.49 88.38 613.81 80.2"/><polygon class="cls-2" points="660.68 89.28 615.4 71.28 562.1 79.64 516.55 79.12 580.25 90.5 623.88 87.45 660.68 89.28"/><polygon class="cls-1" points="808.99 41.82 780.6 45.27 824.74 58.83 867.16 45.27 833.94 48.49 808.99 41.82"/><polygon class="cls-2" points="780.6 45.27 808.42 36.42 867.16 45.27 826.5 49.5 802.67 45.73 780.6 45.27"/></g><g id="Layer_10" data-name="Layer 10"><polygon class="cls-3" points="115.18 111.22 142.94 88.83 203.54 96.1 199.47 229.81 129.71 225.16 115.18 111.22"/><polygon class="cls-4" points="105.15 100.75 105.01 132.43 108.2 204.81 141.05 210.62 142.94 88.83 105.15 100.75"/><polygon class="cls-4" points="153.4 100.68 153.04 111.22 163.58 112.09 164.23 101.99 153.4 100.68"/><polygon class="cls-4" points="151.88 121.82 151.51 132.36 162.05 133.23 162.7 123.13 151.88 121.82"/><polygon class="cls-4" points="169.1 103.08 168.74 113.61 179.27 114.48 179.93 104.38 169.1 103.08"/><polygon class="cls-4" points="167.57 124.22 167.21 134.76 177.75 135.63 178.4 125.53 167.57 124.22"/><polygon class="cls-4" points="166.26 145.88 165.9 156.41 176.44 157.28 177.09 147.19 166.26 145.88"/><polygon class="cls-4" points="166.09 168.55 165.72 179.09 176.26 179.96 176.91 169.86 166.09 168.55"/><polygon class="cls-4" points="165.13 193.08 164.88 203.08 175.12 203.19 175.77 193.09 165.13 193.08"/><polygon class="cls-4" points="186.1 104.67 185.74 115.21 196.28 116.08 196.93 105.98 186.1 104.67"/><polygon class="cls-4" points="184.58 125.82 184.21 136.36 194.75 137.23 195.4 127.13 184.58 125.82"/><polygon class="cls-4" points="183.27 147.47 182.91 158.01 193.44 158.88 194.1 148.78 183.27 147.47"/><polygon class="cls-4" points="182.4 170.15 182.03 180.68 192.57 181.56 193.22 171.46 182.4 170.15"/><polygon class="cls-4" points="182.34 192.75 181.97 203.29 192.5 203.5 193.13 193.63 182.34 192.75"/><polygon class="cls-2" points="151.5 129.17 105 124.67 91 144 108.2 204.81 141.05 210.62 162.12 138.1 151.5 129.17"/><polygon class="cls-1" points="80.17 129.5 72 139.46 88.37 221.77 121.22 227.58 105.01 132.43 105 124.67 80.17 129.5"/><polygon class="cls-5" points="97.16 164.7 105.01 132.43 162.12 138.1 159.83 240.33 84.52 232.71 97.16 164.7"/><polygon class="cls-6" points="113.92 153.09 122.78 153.81 122.93 145.53 114.21 144.66 113.92 153.09"/><polygon class="cls-6" points="129.03 154.69 137.9 155.41 138.04 147.13 129.32 146.26 129.03 154.69"/><polygon class="cls-6" points="145.31 148.15 145.02 156.58 153.88 157.3 154.03 149.02 145.31 148.15"/><polygon class="cls-6" points="113.48 171.4 122.35 172.13 122.49 163.84 113.77 162.97 113.48 171.4"/><polygon class="cls-6" points="128.6 173 137.46 173.72 137.61 165.44 128.89 164.57 128.6 173"/><polygon class="cls-6" points="144.58 174.89 153.45 175.62 153.59 167.33 144.88 166.46 144.58 174.89"/><polygon class="cls-6" points="113.05 189.86 121.91 190.58 122.06 182.3 113.34 181.43 113.05 189.86"/><polygon class="cls-6" points="128.16 191.46 137.03 192.18 137.17 183.9 128.45 183.03 128.16 191.46"/><polygon class="cls-6" points="144.15 193.34 153.01 194.07 153.16 185.79 144.44 184.92 144.15 193.34"/><polygon class="cls-6" points="112.76 208.46 121.62 209.19 121.77 200.9 113.05 200.03 112.76 208.46"/><polygon class="cls-6" points="127.87 210.06 136.74 210.78 136.88 202.5 128.16 201.63 127.87 210.06"/><polygon class="cls-6" points="143.86 211.95 152.72 212.68 152.87 204.39 144.15 203.52 143.86 211.95"/><polygon class="cls-7" points="74.5 264.5 71.83 139.5 105.01 132.43 105.01 249.72 74.5 264.5"/></g><g id="Layer_6" data-name="Layer 6"><polygon class="cls-8" points="639.88 184.77 640.94 201.64 645.72 202.03 643.6 189.82 639.88 184.77"/><polygon class="cls-9" points="635.63 189.02 639.08 190.88 638.42 201.24 641.21 198.72 641.34 194.6 639.35 187.56 635.63 189.02"/><polygon class="cls-4" points="637.75 172.16 641.34 194.6 653.84 190.12 645.46 175.41 637.75 172.16"/><polygon class="cls-3" points="636.83 176.54 627.63 189.85 641.34 194.6 641.87 182.91 636.83 176.54"/><polygon class="cls-10" points="636.8 173.27 641.87 182.91 653.94 178.88 644.96 162.67 636.8 173.27"/><polyline class="cls-4" points="638.23 164.03 629.13 177.34 641.87 182.91 641.66 168.7 636.43 159.55"/><polygon class="cls-3" points="637.82 159.41 644.42 142.89 653.16 163.2 641.66 168.7 637.82 159.41"/><polygon class="cls-11" points="644.42 142.89 631.12 165.12 641.66 168.7 644.42 142.89"/><polygon class="cls-8" points="595.26 178.36 596.81 202.96 603.78 203.54 600.68 185.72 595.26 178.36"/><polygon class="cls-9" points="589.06 184.56 594.1 187.27 593.13 202.38 597.19 198.7 597.39 192.69 594.48 182.43 589.06 184.56"/><polygon class="cls-4" points="592.16 159.95 597.39 192.69 617.73 183.01 603.39 164.7 592.16 159.95"/><polygon class="cls-3" points="590.8 166.34 577.38 185.77 597.39 192.69 600.68 174.89 590.8 166.34"/><polygon class="cls-10" points="587.51 154.91 600.68 174.89 617.54 166.34 602.67 146.1 587.51 154.91"/><polyline class="cls-4" points="592.35 146 579.57 167.51 600.68 174.89 601.55 156.17 590.22 141.55"/><polygon class="cls-3" points="592.25 141.35 600.09 121.84 614.63 146.88 601.55 156.17 592.25 141.35"/><polygon class="cls-11" points="599.94 121.54 582.47 149.68 601.55 156.17 599.94 121.54"/></g><g id="Layer_17" data-name="Layer 17"><polygon class="cls-4" points="729.67 93.33 753.67 83.33 775.83 94.17 775.5 223.25 725.67 211.67 729.67 93.33"/><polygon class="cls-3" points="687.83 132.58 688.33 87.33 753.67 83.33 753.33 219 698 147.33 687.83 132.58"/><polygon class="cls-4" points="695.46 97.08 706.96 96.33 706.58 108.83 695.33 109.71 695.46 97.08"/><polygon class="cls-4" points="713.08 96.21 724.58 95.46 724.21 107.96 712.83 108.33 713.08 96.21"/><polygon class="cls-4" points="730.71 95.33 742.21 94.58 741.83 107.08 730.96 107.71 730.71 95.33"/><polygon class="cls-4" points="695.46 115.96 706.96 115.21 706.58 127.71 695.33 127.83 695.46 115.96"/><polygon class="cls-4" points="713.08 115.08 724.58 114.33 724.21 126.83 712.96 126.96 713.08 115.08"/><polygon class="cls-4" points="730.71 114.21 742.21 113.46 741.83 125.96 730.58 126.08 730.71 114.21"/><polygon class="cls-6" points="687.5 140 713 122 744.38 131.75 742.5 217.5 687 217.5 687.5 140"/><polygon class="cls-1" points="662.5 214 661.5 124.83 713 122 710.5 216 662.5 214"/><polygon class="cls-6" points="666.89 130.99 677.87 130.56 677.94 136.23 666.83 136.53 666.89 130.99"/><polygon class="cls-6" points="681.13 130.54 692.1 130.11 692.18 135.78 681.07 136.08 681.13 130.54"/><polygon class="cls-6" points="695.37 130.09 706.34 129.67 706.42 135.33 695.31 135.63 695.37 130.09"/><polygon class="cls-6" points="666.97 145.41 677.95 144.98 678.02 150.64 666.92 150.94 666.97 145.41"/><polygon class="cls-6" points="681.21 144.96 692.19 144.53 692.26 150.2 681.15 150.49 681.21 144.96"/><polygon class="cls-6" points="695.45 144.51 706.42 144.08 706.5 149.75 695.39 150.05 695.45 144.51"/><polygon class="cls-6" points="667.14 159.91 678.12 159.48 678.19 165.14 667.08 165.44 667.14 159.91"/><polygon class="cls-6" points="681.38 159.46 692.35 159.03 692.43 164.7 681.32 164.99 681.38 159.46"/><polygon class="cls-6" points="695.62 159.01 706.59 158.58 706.67 164.25 695.56 164.55 695.62 159.01"/><polygon class="cls-6" points="667.14 174.91 678.12 174.48 678.19 180.14 667.08 180.44 667.14 174.91"/><polygon class="cls-6" points="681.38 174.46 692.35 174.03 692.43 179.7 681.32 179.99 681.38 174.46"/><polygon class="cls-6" points="695.62 174.01 706.59 173.58 706.67 179.25 695.56 179.55 695.62 174.01"/><polygon class="cls-6" points="667.68 189.49 678.66 189.06 678.73 194.73 667.63 195.03 667.68 189.49"/><polygon class="cls-6" points="681.54 189.29 692.52 188.86 692.6 194.53 681.49 194.83 681.54 189.29"/><polygon class="cls-6" points="695.78 189.34 706.76 188.92 706.83 194.58 695.73 194.88 695.78 189.34"/></g><g id="Layer_4" data-name="Layer 4"><polygon class="cls-12" points="687.5 268.5 755.5 344.5 899.67 307 882.5 262.5 687.5 268.5"/><polygon class="cls-6" points="115.5 249.5 161.58 350 755.5 344.5 745 302.5 115.5 249.5"/><polygon class="cls-13" points="71.5 254.5 20.5 265.5 1 318 161.58 350 167.5 312.5 71.5 254.5"/><polygon class="cls-2" points="105.67 216.67 525.25 219.25 653.5 215.17 777.5 220.5 780.83 292.5 745 302.5 574 306 193.5 269 105.67 216.67"/><polygon class="cls-13" points="775.17 235.83 565 196.5 526 216.5 780.83 292.5 775.17 235.83"/><polygon class="cls-6" points="754.38 236.38 814.75 219 882.5 262.5 780.83 292.5 754.38 236.38"/><polygon class="cls-2" points="197.5 245.5 199.75 206.25 425.5 211.5 541.17 306.5 263.89 310.75 197.5 245.5"/><polygon class="cls-1" points="498.08 215.85 478.5 250.25 481.32 275.67 662.25 257 526 216.5 498.08 215.85"/><polygon class="cls-14" points="481.32 275.67 291.83 281.83 263.93 310.84 574 306 481.32 275.67"/><polygon class="cls-1" points="136.5 232.5 99 265 170.43 302.25 263.91 310.84 481.32 275.67 281.5 205.5 199.75 206.25 136.5 232.5"/><polygon class="cls-14" points="199.75 206.25 116.44 256.25 133.17 216.5 199.75 206.25"/></g><g id="Layer_11" data-name="Layer 11"><polygon class="cls-3" points="121.75 222.83 114.5 221.5 130.17 213.17 133.83 216.83 111.5 267.5 99.13 253.71 121.75 222.83"/><polygon class="cls-11" points="105.17 215.5 20.5 265.5 167.5 312.5 218.63 302.63 192.75 284.5 102.5 251 130.17 213.17 105.17 215.5"/><polygon class="cls-11" points="814.75 219 754.5 236.83 565 196.5 700.5 200.39 814.75 219"/><polygon class="cls-15" points="655.42 199.08 642.63 201.96 626.46 198.29 655.42 199.08"/><polygon class="cls-15" points="616.33 197.92 598.58 201.25 579.92 196.96 616.33 197.92"/><polygon class="cls-3" points="102.5 251 20.5 265.5 86.38 286.54 102.5 251"/><polygon class="cls-3" points="167.5 312.5 192.75 284.5 263.93 310.84 167.5 312.5"/></g><g id="Layer_15" data-name="Layer 15"><polygon class="cls-15" points="169.83 256.17 199.83 264.17 228.83 255.83 199.17 249.5 169.83 256.17"/><polygon class="cls-15" points="579.67 290 609.67 298 638.67 289.67 609 283.33 579.67 290"/><polygon class="cls-15" points="223.08 287.39 291 300.5 371 286.79 301 275.25 223.08 287.39"/><polygon class="cls-15" points="393.42 289.83 460.21 303.5 525.25 290.25 480.68 276.21 393.42 289.83"/></g><g id="Layer_14" data-name="Layer 14"><polygon class="cls-16" points="590.86 231.83 597.62 239 612.92 276.94 601.58 279.73 603.74 273.81 590.86 231.83"/><polygon class="cls-17" points="585.31 220.53 583.08 233.42 597.96 239.92 601.28 220.75 585.31 220.53"/><polygon class="cls-18" points="585.23 210.49 583.08 233.42 601.28 220.75 585.23 210.49"/><polygon class="cls-19" points="616.36 240.95 616.96 247.69 606.75 281.67 601.79 271.34 605.47 269.07 616.36 240.95"/><polygon class="cls-17" points="618.17 232.49 610.58 234.42 616.96 247.69 626.69 239.4 618.17 232.49"/><polygon class="cls-18" points="623.33 222.67 610.58 234.42 626.69 239.4 623.33 222.67"/><polygon class="cls-4" points="627.15 259.58 614.29 256.23 605.71 283.3 612.28 292.54 633.72 264.53 627.15 259.58"/><polygon class="cls-3" points="587.89 266.68 603.58 260.04 612.28 292.54 606.25 292.14 589.46 268.79 587.89 266.68"/><polygon class="cls-11" points="582.12 253.54 574.08 281.95 603.58 260.04 582.12 253.54"/><polygon class="cls-3" points="641.22 252.88 643.77 279.41 614.29 256.23 641.22 252.88"/><polygon class="cls-16" points="205.19 223.35 202.06 227.76 196.6 249.55 202.97 250.21 201.35 247.15 205.19 223.35"/><polygon class="cls-17" points="207.36 216.79 209.19 225.06 204.25 229.38 198.69 218.11 207.36 216.79"/><polygon class="cls-18" points="208.88 215.25 209.19 225.06 198.69 218.11 208.88 215.25"/><polygon class="cls-19" points="192.01 230.23 192.2 233.94 200.31 251.65 202.23 245.66 200.06 244.7 192.01 230.23"/><polygon class="cls-17" points="190.4 225.77 194.66 226.24 194.5 234.5 186.28 230.17 190.4 225.77"/><polygon class="cls-18" points="186.84 220.81 194.66 226.24 186.28 230.17 186.84 220.81"/><polygon class="cls-4" points="187.55 241.18 194.29 238.38 201 252.46 198.13 257.98 184.35 244.37 187.55 241.18"/><polygon class="cls-3" points="209.44 242.08 200.4 239.65 198.13 257.98 201.37 257.31 208.74 243.35 209.44 242.08"/><polygon class="cls-11" points="211.58 234.5 218.1 249.35 200.4 239.65 211.58 234.5"/><polygon class="cls-3" points="180.25 241.88 182.25 258.25 194.29 238.38 180.25 241.88"/></g><g id="Layer_5" data-name="Layer 5"><polygon class="cls-15" points="684.25 216.75 747 232 786.75 220.25 714.75 209 684.25 216.75"/><polygon class="cls-15" points="786.33 214.33 797.33 224.17 824.83 225.5 814.75 219 786.33 214.33"/><polygon class="cls-17" points="704.33 208.8 704.21 218.39 709.9 217.62 713.36 206.3 704.33 208.8"/><polygon class="cls-17" points="767.63 192.7 763.8 185.89 728 184.25 723.38 199.38 763.53 209.67 767.63 192.7"/><polygon class="cls-20" points="765.73 214.04 763.63 222.13 759.31 221.44 753.06 211.51 765.73 214.04"/><polygon class="cls-16" points="745.9 203.93 760.33 205.33 763.8 185.89 769 187.25 769.5 220.94 763.63 222.13 761.24 215.16 750.87 217.21 749.42 225.33 743.92 226.92 739.52 208.02 745.9 203.93"/><polyline class="cls-18" points="703.04 208.12 700.5 200.39 723.38 199.38 760.33 205.33 745.51 207.01 703.05 208.76"/><polygon class="cls-17" points="700.5 200.39 745.51 207.01 743.92 226.92 737.33 225.42 736.5 216.39 707.59 209.36 704.21 218.39 699.13 216.94 700.5 200.39"/></g><g id="Layer_18" data-name="Layer 18"><polygon class="cls-8" points="802.87 186.95 805.19 222 814.75 219 811.03 198.03 802.87 186.95"/><polygon class="cls-9" points="793.54 196.28 801.12 200.36 798.17 219.17 805.19 222 806.07 208.52 801.7 193.07 793.54 196.28"/><polygon class="cls-4" points="798.21 159.27 806.07 208.52 836.67 193.95 815.11 166.41 798.21 159.27"/><polygon class="cls-3" points="796.16 168.89 779.33 196.33 806.07 208.52 807.24 182.88 796.16 168.89"/><polygon class="cls-10" points="791.21 151.7 807.24 182.88 836.38 168.89 814.01 138.44 791.21 151.7"/><polyline class="cls-4" points="798.5 138.29 779.27 170.64 807.24 182.88 812.34 153.59 795.29 131.59"/><polygon class="cls-3" points="798.35 131.3 803.16 99.83 832 139.61 812.34 153.59 798.35 131.3"/><polygon class="cls-11" points="803.16 99.83 783.64 143.83 812.34 153.59 803.16 99.83"/></g><g id="Layer_2" data-name="Layer 2"><polygon class="cls-21" points="325.05 176.84 331.07 184.23 343.61 166.23 340.27 158.84 338.95 158.84 325.05 176.84"/><polygon class="cls-22" points="372.04 151.51 373.71 147.4 384.55 142.45 388.57 153.86 375.79 162.94 372.04 151.51"/><polygon class="cls-21" points="367.88 146.79 374.22 146.83 375.79 162.94 361.57 164.54 355.06 158.69 367.88 146.79"/><polygon class="cls-23" points="354.08 160.49 358.58 153.73 364.95 145.11 375.19 141.88 376.87 145.86 370.53 149.64 367.27 155.95 354.08 160.49"/><polygon class="cls-22" points="358.58 153.73 340.27 158.84 331.07 184.23 361.57 164.54 358.58 153.73"/><polygon class="cls-19" points="315.48 135.18 323.03 128.76 342.2 156.43 325.05 176.84 320.46 170.54 315.48 135.18"/><polygon class="cls-10" points="309.98 20.99 317.67 9.68 301.68 9.67 309.98 20.99"/><polygon class="cls-19" points="251.47 130.56 223.44 168.28 227.41 169.49 233.5 175.57 250.19 176.6 253.4 169.94 263.06 146.37 251.47 130.56"/><polygon class="cls-3" points="287 232.63 280.82 248.44 260.67 248.85 251.61 245.66 252.52 203.76 279.52 219.47 287 232.63"/><polygon class="cls-3" points="320.38 242.02 319 203.16 287.52 213.84 287 232.63 293.38 248.66 317.38 250.04 320.38 242.02"/><polygon class="cls-10" points="293.38 248.66 301.19 269.51 319.7 276.47 320.86 265.71 320.38 242.02 293.38 248.66"/><polygon class="cls-10" points="271.43 273.03 280.82 248.44 251.61 245.66 251.07 271.87 260.76 278.59 271.43 273.03"/><polygon class="cls-4" points="319 203.16 287 232.63 252.52 203.76 319 203.16"/><polygon class="cls-20" points="294.86 154.3 288.88 175.61 271.15 178.32 253.4 169.94 251.47 130.56 266.16 127.43 290.31 136.16 294.86 154.3"/><polygon class="cls-23" points="273.65 120.74 290.13 128.9 300.61 123.99 305.82 120.5 327.83 121.22 335.91 61.08 333.3 45.79 316.64 49.11 284.37 50.7 275.73 63.38 276.8 79.92 265.45 83.41 273.65 120.74"/><polygon class="cls-22" points="289.47 119.62 291.59 62.41 289.94 51.56 278.3 60.47 272.54 75.21 260.33 80.02 264.84 93.82 267.36 96.12 267.51 102 273.53 120.41 279.55 129.56 290.31 136.16 288.07 123.17 289.47 119.62"/><polygon class="cls-21" points="264.88 93.81 272.36 91.39 267.51 102 264.88 93.81"/><polygon class="cls-3" points="317.67 9.68 302.12 23.82 300.45 36.77 318.17 55.78 324.26 32.52 317.67 9.68"/><polygon class="cls-21" points="264.35 82.39 269.17 80.66 271.29 88.57 264.35 82.39"/><polygon class="cls-24" points="317.39 93.75 310.91 93.34 311.95 72.73 318.43 73.15 317.39 93.75"/><polygon class="cls-21" points="317.39 93.75 313.58 96.45 310.91 93.34 317.39 93.75"/><polygon class="cls-21" points="305.96 108.48 300.13 99.26 325.49 101.23 318.32 108.57 305.96 108.48"/><polygon class="cls-25" points="302.2 103.04 300.13 98.97 325.49 100.95 321.9 104.75 302.2 103.04"/><path class="cls-21" d="M301.48,99.82l22.13,1.72-5.73,6.27-11.78-.39-4.62-7.6m-3-1.86,1.64,2.7,4.63,7.6.46.75.87,0,11.78.38.74,0,.51-.55,5.72-6.26,2.24-2.45-3.31-.26L301.6,98.21,298.45,98Z"/><polygon class="cls-26" points="312.91 126.99 290.31 136.16 289.95 146.18 289.95 146.18 288.88 175.61 307.51 177.53 320.46 170.54 323.03 128.76 312.91 126.99"/><polygon class="cls-10" points="295.51 67.12 297.24 68.23 306.68 64.28 310.59 66.61 311.44 65.6 308.69 59.83 295.51 67.12"/><polygon class="cls-10" points="321.05 67.56 325.68 67.6 329.18 63.67 334.84 62.1 328.64 61.17 321.05 67.56"/><polygon class="cls-27" points="283.24 141.86 289.95 146.18 296.15 141.78 290.31 136.16 283.24 141.86"/><polygon class="cls-19" points="279.35 172.88 253.4 169.94 252.52 203.76 288.04 214.24 296.16 183.7 279.35 172.88"/><polygon class="cls-17" points="320.46 170.54 288.88 175.61 288.39 184.37 288.04 214.24 319 203.16 320.46 170.54"/><polygon class="cls-11" points="337.19 43.06 331.88 26.21 317.67 9.68 318.17 55.78 337.19 43.06"/><polygon class="cls-4" points="254.94 66.03 260.33 80.02 272.03 78.29 275.15 88.17 284.12 85.64 280.51 64.66 269.93 60.06 254.94 66.03"/><polygon class="cls-28" points="291.39 67.76 258.83 75.83 260.33 80.02 291.11 75.46 291.39 67.76"/><polygon class="cls-4" points="279.27 29.99 281.64 45.7 289.9 52.12 289.9 52.12 290.07 51.9 318.17 55.78 302.12 23.82 279.27 29.99"/><polygon class="cls-10" points="254.94 66.03 280.51 64.66 289.9 52.12 279.27 29.99 254.94 66.03"/><polygon class="cls-22" points="294.15 80.69 297.2 73.99 308.6 74.37 310 72.09 294.05 70.02 294.15 80.69"/><polygon class="cls-22" points="328.32 73.93 323.46 75.64 321.35 82.75 320.39 71.67 328.32 73.93"/><polygon class="cls-21" points="318.17 55.78 334.04 50.1 333.29 45.75 318.17 55.78"/><polygon class="cls-22" points="321.05 67.56 318.88 69.87 331.32 70.94 334.84 62.1 329.18 63.67 325.68 67.6 321.05 67.56"/><polygon class="cls-22" points="310.59 66.61 311.34 69.48 297.15 68.27 306.68 64.28 310.59 66.61"/><polygon class="cls-22" points="293.76 83.54 311.19 87.65 311.35 84.64 293.76 83.54"/><polygon class="cls-22" points="317.66 88.25 332.46 85.4 317.79 85.79 317.66 88.25"/><polygon class="cls-21" points="305.82 120.5 285.46 119.4 290.31 136.16 298.77 133.61 305.32 123.92 305.82 120.5"/><path class="cls-17" d="M320,69.94h0l-.37,0-1.06-.1v0l-6.43-.33-20.77-1.76-.6,16,20.56.85L312,72.75l6.44.33-.64,12.71,20.52.86,1.08-15Zm-11.91,11.3-14-.55.35-9.41,14.23,1.27Zm27.2,2.05-14-.54.35-9.41,14.24,1.26Z"/><path class="cls-29" d="M331.65,77.09a2.36,2.36,0,1,1-3-1.43A2.36,2.36,0,0,1,331.65,77.09Z"/><path class="cls-29" d="M307.58,75.39a2.36,2.36,0,1,1-3-1.43A2.35,2.35,0,0,1,307.58,75.39Z"/><polygon class="cls-8" points="279.35 172.88 279.35 172.88 288.64 179.81 299.15 174.04 289.95 146.18 279.35 172.88"/><polygon class="cls-27" points="299.15 174.04 279.35 172.88 288.39 184.37 299.15 174.04"/><polygon class="cls-28" points="273.53 120.41 266.16 127.43 281.03 146.59 290.31 136.16 273.53 120.41"/><polygon class="cls-28" points="290.31 136.16 297.69 145.93 312.91 126.99 305.51 122.65 290.31 136.16"/><polygon class="cls-20" points="320.86 265.71 335.03 280.17 315.94 283.33 300.96 279.84 301.19 269.51 320.86 265.71"/><rect class="cls-16" x="300.94" y="280" width="34.07" height="4.45" transform="translate(2.74 -3.05) rotate(0.55)"/><polygon class="cls-20" points="271.43 273.03 276.46 286.37 266.6 288.73 247.93 286 251.07 271.87 271.43 273.03"/><polygon class="cls-16" points="276.29 291.67 247.73 291.14 247.93 286 276.46 286.37 276.29 291.67"/><polygon class="cls-22" points="232.53 179.31 245.85 203.92 253.49 200.78 255.82 197.17 250.19 176.6 233.74 175.57 232.53 179.31"/><polygon class="cls-23" points="255.82 197.17 266.51 202.96 261.85 210.83 252.04 215.81 245.85 203.92 255.82 197.17"/><polygon class="cls-21" points="227.41 169.49 232.53 179.31 250.01 176.54 227.41 169.49"/><polygon class="cls-22" points="266.51 202.96 269.78 218.36 257.43 223.93 252.04 215.81 266.51 202.96"/></g><g id="Layer_3" data-name="Layer 3"><polygon class="cls-30" points="369.78 188.06 365.83 186.03 354.38 189.33 358.76 200.61 374.37 199.18 369.78 188.06"/><polygon class="cls-31" points="369.86 181.77 365.07 185.93 374.37 199.18 386.86 190.87 387.33 182.46 369.86 181.77"/><polygon class="cls-32" points="389.25 183.18 379.84 179.65 370.99 178.59 361.12 182.81 362.43 186.93 369.7 185.66 376.28 188.32 389.25 183.18"/><polygon class="cls-33" points="440.18 116.67 446.84 127.73 449.39 150.69 460.8 140.48 467 136.62 474.86 135.04 482.26 119.81 460.33 120.61 448.99 119.21 440.18 116.67"/><polygon class="cls-34" points="468.14 111.24 471.68 122.24 476.78 123.24 473.37 135.55 474.88 138.71 480.87 136.43 481.51 127.61 489.72 103.99 487.46 87.61 479.25 75.05 475.88 75.97 468.14 111.24"/><polygon class="cls-33" points="481.43 94.83 489.72 103.99 492.28 96.98 487.57 93.11 481.43 94.83"/><polygon class="cls-35" points="477.27 70.56 479.25 75.05 483.45 89.5 498.38 81.49 499.6 77.81 496.57 56.79 484.49 61.11 481.28 66.31 477.27 70.56"/><polygon class="cls-36" points="484.61 79.61 481.43 94.83 492.28 96.98 498.38 81.49 484.61 79.61"/><polygon class="cls-33" points="487.87 84.42 485.88 90.71 492.6 85.03 487.87 84.42"/><polygon class="cls-36" points="422.95 117.38 471.68 122.24 481.28 66.31 462.84 50.52 425.72 60.19 422.95 117.38"/><polygon class="cls-34" points="428.09 72.78 436.25 70.44 442.37 75.4 444.82 79.41 444.91 86.02 441.68 93.55 436.98 80.14 428.09 72.78"/><polygon class="cls-34" points="449.64 79.71 448.06 85.9 450.17 94.19 457.72 81.92 468.67 76.59 460.57 73.57 452.64 76.07 449.64 79.71"/><path class="cls-37" d="M456.09,84.24A2.32,2.32,0,1,0,454,81.69,2.36,2.36,0,0,0,456.09,84.24Z"/><polygon class="cls-35" points="428.09 72.78 436.24 68.22 442.83 73 442.37 75.4 435.45 72.7 428.09 72.78"/><polygon class="cls-35" points="452.58 73.63 452.64 76.07 460.45 74.72 468.67 76.59 460.77 71.13 452.58 73.63"/><polygon class="cls-33" points="441.68 93.55 445.76 92.54 450.17 94.19 445.9 97.53 441.68 93.55"/><polygon class="cls-38" points="444.82 79.41 449.64 79.71 450.17 94.19 441.68 93.55 444.82 79.41"/><path class="cls-37" d="M435.29,82.36a2.32,2.32,0,1,0-2.14-2.54A2.35,2.35,0,0,0,435.29,82.36Z"/><polygon class="cls-39" points="494.94 174.12 499.19 177.89 506.26 178.05 519.44 172.03 524.54 165.85 500.16 136.74 494.56 147.68 496.01 150.06 494.94 174.12"/><polygon class="cls-36" points="507.17 185.92 503.47 193.04 504.29 199.85 501.39 207.29 502.75 211.63 508.11 206.67 509.13 202.97 512.35 202.75 534 182.72 530.47 185.98 520.58 183.38 507.17 185.92"/><polygon class="cls-33" points="530.47 185.98 507.17 185.92 511.07 182.96 528.9 178.05 536.91 179.19 530.47 185.98"/><polygon class="cls-40" points="499.19 177.89 507.17 185.92 536.91 179.19 524.54 165.85 499.19 177.89"/><polygon class="cls-41" points="503.47 193.04 512.35 202.75 508.11 206.67 503.98 201.31 501.29 199.73 500.96 197.79 503.47 193.04"/><polygon class="cls-40" points="428.73 176.43 426.08 181.6 421.97 180.78 407.44 171.17 406.18 164.76 425.65 140.82 428.73 145.98 428.73 176.43"/><polygon class="cls-39" points="406.18 164.76 395.64 177.73 421.66 186.49 426.08 181.6 406.18 164.76"/><polygon class="cls-42" points="448.7 290.35 413.46 290.26 413.46 286.99 417.35 284.61 444.81 284.1 448.7 287.07 448.7 290.35"/><polygon class="cls-42" points="501.06 294.51 477.34 294.51 477.2 290.7 480.17 287.92 497.73 287.23 500.92 290.7 501.06 294.51"/><polygon class="cls-41" points="434.71 273.22 413.46 286.99 429.77 287.07 448.7 287.07 448.7 277.48 446.89 274.72 437.71 271.7 434.71 273.22"/><polygon class="cls-41" points="480.68 276.21 477.2 290.7 485.03 287.45 492.14 287.45 500.92 290.7 496.32 275.67 491.94 272.58 484.79 272.86 480.68 276.21"/><polygon class="cls-41" points="483.43 285.45 477.2 290.7 500.92 290.7 493.95 285.18 483.43 285.45"/><polygon class="cls-43" points="461.44 233.19 470.43 253.16 474.81 255.82 493.86 256.37 496.94 254.39 498.08 215.85 494.78 212.05 487.41 210.15 460.39 226.19 461.44 233.19"/><polygon class="cls-43" points="425.27 210.86 430.17 252.18 435.42 254.01 449.93 254.46 455.97 252.63 461.44 233.19 458.24 226.32 431.04 211.94 431.42 207.73 425.27 210.86"/><polygon class="cls-44" points="480.68 276.21 496.32 275.67 496.94 254.39 470.43 253.16 480.68 276.21"/><polygon class="cls-44" points="432.97 274.27 448.7 277.48 455.97 252.63 430.14 252.09 432.97 274.27"/><polygon class="cls-44" points="425.27 210.86 461.44 233.19 485.57 213.41 487.41 210.15 484.52 206.33 432.77 207.7 428.4 205.87 425.27 210.86"/><polygon class="cls-39" points="425.73 203.2 432.7 205.8 451.77 206.07 454.84 203.89 456.99 147.89 453.61 145.98 451.77 135.93 443.48 138.64 441.67 133.96 425.65 140.82 425.73 203.2"/><polygon class="cls-40" points="458.22 136.2 453.61 145.98 451.77 206.07 484.03 204.98 495.71 199.54 498.69 195.06 500.16 136.74 483.39 132.78 469.88 141.67 458.22 136.2"/><path class="cls-42" d="M437.08,203.41l11.16-.2v7.51l-10.58.16-2.48-3.54,1.9-3.93Zm23.31-.43,18.49-.34,3.69,3.53-3.69,4.08-18.46.28h0l-2.82-4.05Z"/><polygon class="cls-42" points="437.08 203.41 437.66 210.88 425.27 210.86 425.73 203.2 437.08 203.41"/><polygon class="cls-42" points="478.88 202.64 478.76 210.24 484.64 210.15 488.33 206.07 484.64 202.53 478.88 202.64"/><polygon class="cls-39" points="448.24 211.78 460.43 210.53 460.39 202.98 448.24 202.13 448.24 211.78"/><polygon class="cls-34" points="503.98 201.31 498.69 195.06 498.32 204.84 502.64 211.73 503.98 201.31"/><polygon class="cls-40" points="446.7 127.5 441.67 133.96 440.1 144.9 451.77 135.93 446.7 127.5"/><polygon class="cls-39" points="458.22 136.2 470.67 146.94 484.27 133.07 482.72 124.12 458.22 136.2"/><polygon class="cls-45" points="446.55 200.7 446.55 213.22 460.44 213.28 460.43 210.53 449.47 210.7 449.47 203.19 460.39 202.98 460.39 200.53 446.55 200.7"/><path class="cls-46" d="M497.85,223.48l-12.28-10.07,12.51,2.44-.23,7.63Z"/><polygon class="cls-36" points="484.64 202.53 485.57 213.41 498.08 215.85 502.78 211.6 498.69 195.06 484.64 202.53"/><polygon class="cls-47" points="450.55 148.69 453.43 151.86 456.42 148.83 453.61 145.98 450.55 148.69"/><polygon class="cls-47" points="449.93 168.97 452.81 172.15 455.8 169.12 452.99 166.27 449.93 168.97"/><polygon class="cls-47" points="449.27 190.3 452.16 193.47 455.14 190.44 452.34 187.59 449.27 190.3"/><polygon class="cls-33" points="435.73 101.03 457.71 102.91 453.86 112.82 439.63 111.77 435.73 101.03"/><polygon class="cls-48" points="438.89 102.96 453.86 104.45 452.8 107.62 440.36 106.64 438.89 102.96"/><polygon class="cls-34" points="379.84 179.65 400.45 171.67 421.66 186.49 386.86 190.87 379.84 179.65"/><polygon class="cls-49" points="483.49 64.1 499.34 78.63 523.37 69.95 499.14 57.8 451.16 45.01 483.49 64.1"/><polygon class="cls-41" points="417.3 61.55 499.34 78.63 483.49 64.1 429.34 42.21 406.36 42.49 417.3 61.55"/><polygon class="cls-50" points="417.3 61.55 432.65 55.07 450.44 46.02 429.34 42.21 406.36 42.49 417.3 61.55"/><polygon class="cls-42" points="450.09 27.7 441.93 41.6 457.83 48.32 483.49 64.1 499.14 57.8 494.35 26.28 470.88 18.96 450.09 27.7"/><polygon class="cls-49" points="445.97 29.16 434.86 37.62 432.65 55.07 483.49 64.1 476.53 31.74 470.88 18.96 445.97 29.16"/><polygon class="cls-41" points="435.59 23.23 429.34 42.21 432.65 55.07 455.36 24.03 435.59 23.23"/><polygon class="cls-50" points="435.59 23.23 477.04 31.25 494.35 26.28 470.22 17.73 435.59 23.23"/></g></svg>